<svg width="78" height="78" viewBox="0 0 78 78" fill="none" xmlns="http://www.w3.org/2000/svg">
<path d="M62.93 65.8998C60.135 62.1992 56.519 59.1982 52.3667 57.1331C48.2145 55.0681 43.6394 53.9954 39.002 53.9996C34.3646 53.9954 29.7895 55.0681 25.6373 57.1331C21.485 59.1982 17.869 62.1992 15.074 65.8998M62.926 65.8998C68.38 61.0485 72.2305 54.6538 73.9667 47.5639C75.703 40.4739 75.243 33.0236 72.6479 26.2011C70.0527 19.3786 65.4449 13.5061 59.4356 9.36251C53.4263 5.21893 46.2994 3 39 3C31.7006 3 24.5737 5.21893 18.5644 9.36251C12.5551 13.5061 7.94732 19.3786 5.35214 26.2011C2.75697 33.0236 2.29701 40.4739 4.03328 47.5639C5.76955 54.6538 9.62 61.0485 15.074 65.8998M62.926 65.8998C56.3421 71.7726 47.8245 75.0125 39.002 75C30.1781 75.0135 21.6589 71.7735 15.074 65.8998M51.002 29.9992C51.002 33.1819 49.7377 36.2342 47.4873 38.4847C45.2368 40.7351 42.1846 41.9994 39.002 41.9994C35.8194 41.9994 32.7672 40.7351 30.5167 38.4847C28.2663 36.2342 27.002 33.1819 27.002 29.9992C27.002 26.8166 28.2663 23.7643 30.5167 21.5138C32.7672 19.2634 35.8194 17.9991 39.002 17.9991C42.1846 17.9991 45.2368 19.2634 47.4873 21.5138C49.7377 23.7643 51.002 26.8166 51.002 29.9992V29.9992Z" stroke="#22293A" stroke-width="5" stroke-linecap="round" stroke-linejoin="round"/>
</svg>
