<svg width="28" height="45" viewBox="0 0 28 45" fill="none" xmlns="http://www.w3.org/2000/svg">
<path d="M13.047 44.4563C12.9099 44.4594 12.7712 44.4557 12.6347 44.4453C12.0473 44.3954 11.5004 44.2178 11.0496 43.931C10.769 43.7488 10.5517 43.5617 10.3819 43.357C10.191 43.1322 10.0335 42.889 9.91721 42.6378C9.69079 42.1427 9.60823 41.5601 9.68199 40.9894C9.67143 40.999 9.66071 41.0087 9.64999 41.0183C8.77825 41.803 7.70569 42.2488 6.63057 42.273C6.57857 42.2741 6.52625 42.2744 6.47408 42.2735C5.8438 42.2671 5.23207 42.0914 4.7074 41.7654C4.43122 41.5964 4.1856 41.3871 3.9795 41.1446C3.74861 40.8714 3.57996 40.5557 3.49099 40.2307C3.40442 39.9157 3.38186 39.5776 3.42379 39.2265C3.45611 38.9467 3.53339 38.6548 3.6598 38.336C3.75949 38.0851 3.88798 37.8336 4.05279 37.5666C4.1472 37.4163 4.2384 37.2829 4.33313 37.1566C4.26384 36.8382 4.20912 36.5666 4.16336 36.3141C4.15856 36.2922 4.15472 36.2701 4.15216 36.2481C4.08303 35.8581 4.03439 35.513 4.00319 35.1937C3.96446 34.9092 3.9467 34.6259 3.92958 34.3519C3.92302 34.247 3.91646 34.142 3.90862 34.037C3.90174 33.8989 3.89966 33.7711 3.89758 33.6432C3.89662 33.5775 3.8955 33.5115 3.89374 33.4458C3.88894 33.2691 3.88526 33.0592 3.89454 32.8457C3.90766 31.979 3.98847 31.0811 4.13504 30.1708C3.69484 30.4054 3.25129 30.5605 2.8223 30.6273C2.68885 30.6481 2.5554 30.6601 2.42563 30.6632C1.78415 30.6776 1.23275 30.475 0.830638 30.0777C0.289799 29.5431 0.00257832 28.8288 1.81366e-05 28.0121C-0.00494222 26.453 1.00761 24.588 3.01 22.4688L3.0252 22.4527C3.17833 22.2909 3.33546 22.1282 3.50043 21.963C4.91525 20.5463 6.43328 19.4416 8.02044 18.6727C7.79018 18.4381 7.56712 18.1893 7.35607 17.9317C6.77779 17.2251 6.28863 16.4441 5.90172 15.6099L5.89244 15.5955L5.8742 15.5503C5.72763 15.2309 5.58906 14.8814 5.46761 14.5241L5.46329 14.5132C5.45209 14.4844 5.44281 14.4561 5.43561 14.4273C5.26968 13.9241 5.14007 13.4111 5.0503 12.9021C4.92373 12.1851 4.86757 11.4551 4.88293 10.732C4.84453 9.96665 4.97766 9.06163 5.2788 8.04204C5.72571 6.42944 6.52369 4.96486 7.64905 3.69629C8.94322 2.23634 10.6027 1.14666 12.448 0.545178C12.7953 0.43077 13.1622 0.331083 13.537 0.249477C13.7783 0.197154 14.0271 0.152191 14.2764 0.115868C14.7206 0.0509035 15.1741 0.0128206 15.624 0.00273991C15.9586 -0.00478063 16.2969 0.00321948 16.6295 0.0262611C17.42 0.080025 18.2053 0.220036 18.963 0.441972C19.2913 0.538139 19.6216 0.652386 19.9445 0.781676C20.0643 0.828719 20.1877 0.880083 20.3087 0.934807C21.3377 1.38748 22.2971 2.004 23.157 2.76566C25.615 4.94581 26.9514 8.07036 26.8402 11.3615C26.9365 11.4783 27.0248 11.6025 27.1039 11.7319C27.3631 12.1566 27.5383 12.6427 27.6247 13.1771C27.8695 13.9191 27.875 14.8036 27.6396 15.6731C27.2082 17.2659 26.1016 18.4585 24.8735 18.6631C24.4979 18.8244 24.1174 18.9105 23.7417 18.9188C23.6556 18.9207 23.5668 18.9177 23.4734 18.9094C22.9063 19.4541 22.2855 19.9341 21.6198 20.3432C22.0141 20.5948 22.3663 20.8817 22.6719 21.2007C22.822 21.3576 22.9431 21.5462 23.0313 21.7613C23.4633 22.8161 24.7989 26.6791 23.8529 32.1124C23.6657 33.1875 23.0686 34.1217 22.1714 34.7425C21.52 35.1933 20.762 35.441 19.9794 35.4584C19.6974 35.4646 19.4123 35.441 19.1323 35.3878C18.9791 35.3587 18.8236 35.3245 18.6609 35.2838C18.6255 35.3074 18.5908 35.3293 18.5559 35.3499C18.4429 35.423 18.3277 35.4723 18.2255 35.516L18.1578 35.5448C18.1068 35.5645 18.0538 35.58 18.0007 35.5949L17.8311 35.6429L17.6597 35.669C17.6098 35.6762 17.56 35.6832 17.5102 35.6883L17.4907 35.6903L17.3736 35.6912L18.0946 37.4808C18.136 37.583 18.1879 37.7101 18.2236 37.8509C18.2624 37.9941 18.2884 38.1512 18.2989 38.3111C18.309 38.4703 18.3031 38.6303 18.2812 38.7874C18.2716 38.8562 18.2599 38.9139 18.2479 38.9705L18.2077 39.163C18.1756 39.3377 18.129 39.5144 18.0839 39.6851C18.0692 39.7413 18.0359 39.8686 18.0359 39.8686C17.7245 40.9284 17.2942 41.7901 16.7206 42.5029C16.0381 43.3622 15.1726 43.9712 14.2194 44.2622C13.8445 44.3814 13.4483 44.4474 13.047 44.4563Z" fill="white"/>
<path d="M23.17 31.994C23.0822 32.5023 22.8823 32.9659 22.6009 33.3603C21.8701 34.3881 20.5841 34.959 19.2619 34.7071C18.6268 34.5867 17.9186 34.3729 17.148 34.017L17.5992 19.8466C17.5992 19.8466 20.4508 19.8819 22.1719 21.6796C22.2674 21.7782 22.3381 21.8966 22.3898 22.0243C22.4258 22.1138 22.473 22.2342 22.5266 22.3811C22.5281 22.3826 22.5281 22.3826 22.5281 22.3826C23.0035 23.6928 24.0021 27.2186 23.17 31.994Z" fill="white"/>
<g opacity="0.35">
<path d="M22.6009 33.3601C21.8701 34.3879 20.5841 34.9588 19.2619 34.707C18.6268 34.5865 17.9186 34.3727 17.148 34.0168L17.5992 19.8464C17.5992 19.8464 20.4508 19.8817 22.1719 21.6795C22.2674 21.778 22.3381 21.8964 22.3898 22.0241C22.4258 22.1136 22.473 22.2341 22.5266 22.381C22.4948 22.3506 21.8677 21.787 19.4547 22.0262C19.4547 22.0262 22.1949 26.0147 20.6459 31.7788C20.3422 32.9086 21.4994 33.8864 22.5551 33.3822C22.5705 33.375 22.5857 33.3677 22.6009 33.3601Z" fill="#2B1E59"/>
</g>
<path d="M17.3761 22.4758C17.3761 22.4758 17.3799 22.4737 17.3871 22.4699C17.3948 22.4659 17.4061 22.4598 17.421 22.452C17.4495 22.4371 17.4906 22.4163 17.5428 22.3912C17.5951 22.3661 17.659 22.3371 17.7322 22.3049C17.8058 22.2734 17.889 22.2387 17.9807 22.2035C18.0721 22.1675 18.1726 22.1326 18.2788 22.0961C18.3856 22.0608 18.4985 22.0251 18.6168 21.9928C18.7347 21.9595 18.8576 21.9286 18.9832 21.9006C19.1093 21.874 19.2375 21.8484 19.3669 21.8284L19.4639 21.8135C19.4964 21.8095 19.5288 21.8055 19.5612 21.8014C19.5935 21.7977 19.6257 21.7929 19.658 21.79C19.6903 21.787 19.7225 21.7839 19.7546 21.7809C19.883 21.7694 20.0097 21.762 20.1326 21.7603C20.2555 21.7593 20.3742 21.7609 20.4864 21.7695C20.5004 21.7703 20.5144 21.7713 20.5281 21.7721C20.5419 21.7734 20.5556 21.7748 20.5692 21.7761C20.5964 21.7788 20.6232 21.7815 20.6496 21.7841C20.7022 21.7887 20.7528 21.7972 20.8013 21.8047C20.8984 21.8175 20.9862 21.839 21.0638 21.8548C21.1026 21.8636 21.1384 21.8745 21.1715 21.8833C21.2046 21.8926 21.235 21.8999 21.2622 21.9087C21.3706 21.9449 21.4311 21.9673 21.4311 21.9673C21.4627 21.979 21.4789 22.0144 21.4672 22.046C21.4576 22.0718 21.4327 22.0873 21.4066 22.0859L21.4034 22.0857C21.4034 22.0857 21.34 22.0822 21.2317 22.0731C21.1774 22.0707 21.1115 22.0676 21.0358 22.0643C20.9601 22.0638 20.8755 22.0609 20.783 22.0638C20.76 22.0643 20.7365 22.0646 20.7125 22.0651C20.6886 22.0652 20.664 22.0678 20.6392 22.0686C20.6144 22.0697 20.5892 22.0708 20.5636 22.072C20.5508 22.0726 20.538 22.0731 20.5251 22.0737C20.5121 22.0748 20.499 22.076 20.4859 22.0771C20.4596 22.0793 20.4331 22.0816 20.406 22.0838C20.3791 22.086 20.3519 22.0875 20.3244 22.0908C20.2969 22.0937 20.2692 22.0968 20.2411 22.0996C20.2131 22.1025 20.1847 22.1054 20.1564 22.1097C20.0426 22.1251 19.9254 22.1416 19.8071 22.1648C19.7775 22.1705 19.7479 22.1763 19.7181 22.182C19.6884 22.1876 19.6588 22.195 19.629 22.2016C19.5992 22.2083 19.5695 22.215 19.5397 22.2217L19.4506 22.2438C19.3317 22.2726 19.2139 22.3067 19.0986 22.3414C18.9837 22.3782 18.8707 22.4139 18.7629 22.4534C18.7358 22.4632 18.7091 22.4729 18.6827 22.4824C18.6563 22.4925 18.6302 22.5024 18.6045 22.5121C18.5528 22.5314 18.5027 22.552 18.4537 22.571C18.3563 22.6107 18.2649 22.6498 18.1812 22.687C18.0974 22.7238 18.0217 22.7598 17.9548 22.7918C17.8881 22.824 17.8303 22.8527 17.7838 22.877C17.7369 22.9008 17.7006 22.92 17.6769 22.9331C17.654 22.9458 17.6418 22.9525 17.6418 22.9525L17.6381 22.9546C17.5065 23.0277 17.3404 22.9802 17.2672 22.8485C17.1941 22.7168 17.2416 22.5507 17.3733 22.4776C17.3736 22.4771 17.3754 22.4761 17.3761 22.4758Z" fill="#2B1E59"/>
<path d="M19.8853 35.039C19.6603 35.039 19.4332 35.0176 19.2105 34.9752C18.4933 34.839 17.7611 34.5998 17.0345 34.2646C16.935 34.2186 16.8727 34.1177 16.8761 34.0082L17.3275 19.8381C17.3323 19.6896 17.4557 19.5721 17.6035 19.5741C17.6339 19.5744 18.3591 19.5861 19.307 19.8246C19.865 19.9651 20.3853 20.1557 20.8538 20.3912C21.4449 20.6884 21.9545 21.0583 22.3688 21.4908C22.4826 21.6097 22.5749 21.7542 22.6429 21.9205C22.8202 22.3533 23.262 23.5499 23.5334 25.3062C23.8699 27.4836 23.8382 29.7493 23.4395 32.0402C23.2926 32.8841 22.85 33.6508 22.1931 34.1988C21.5438 34.7408 20.7242 35.039 19.8853 35.039ZM17.4272 33.8434C18.0591 34.1213 18.6926 34.3217 19.3123 34.4394C19.5016 34.4754 19.6944 34.4937 19.8853 34.4937C21.3764 34.4937 22.6452 33.4226 22.902 31.9468C23.8036 26.7669 22.5453 23.1214 22.1381 22.1274C22.096 22.0246 22.0411 21.9374 21.9747 21.8683C21.1339 20.9903 19.9947 20.562 19.1873 20.3573C18.6289 20.2157 18.1466 20.1583 17.8637 20.1352L17.4272 33.8434Z" fill="#2B1E59"/>
<path d="M11.3575 18.3277L9.40774 21.6604L6.34272 26.9034C4.99222 29.4851 2.37908 30.6351 1.3174 29.5853C1.0417 29.3131 0.833846 28.9579 0.742479 28.5142C0.483101 27.2495 1.17771 25.2687 3.99055 22.4526C7.82731 18.6096 11.3575 18.3277 11.3575 18.3277Z" fill="white"/>
<g opacity="0.35">
<path d="M9.40776 21.6605L6.34273 26.9034C4.99224 29.4852 2.37909 30.6352 1.31741 29.5853C1.04172 29.3132 0.833859 28.9579 0.742493 28.5142C2.04467 29.6879 3.08794 28.9795 3.72079 28.2104C4.07857 27.7755 4.33987 27.2689 4.51092 26.7322C5.68701 23.0433 9.19558 20.3148 9.19558 20.3148C9.19558 20.3148 9.28343 20.8724 9.40776 21.6605Z" fill="#2B1E59"/>
</g>
<path d="M3.13929 24.7C3.07656 24.7933 3.0108 24.8844 2.94599 24.9746L2.75126 25.2426L2.55988 25.5084C2.49668 25.5967 2.43507 25.6854 2.37491 25.7743C2.31475 25.8635 2.25922 25.9545 2.2061 26.0462C2.1541 26.1384 2.10513 26.231 2.06161 26.3249C2.05073 26.3485 2.04113 26.3721 2.03073 26.3957L2.01553 26.431L2.00192 26.4666C1.99312 26.4902 1.98304 26.5138 1.97504 26.5374L1.9512 26.6085C1.92224 26.7032 1.9 26.7978 1.88832 26.8901C1.88447 26.9359 1.87903 26.9816 1.88063 27.0256L1.88031 27.0589V27.061V27.062C1.88095 27.0773 1.87952 27.0421 1.87968 27.0463L1.88015 27.0516L1.88112 27.062L1.8832 27.0828L1.88415 27.0932L1.88464 27.0984C1.8848 27.1002 1.88496 27.1024 1.88528 27.1018C1.8864 27.1021 1.8872 27.1026 1.88768 27.1029C1.88832 27.1032 1.88864 27.1037 1.88864 27.1042C1.88864 27.1044 1.88864 27.1047 1.88864 27.105L1.8904 27.1085C1.89264 27.1133 1.89456 27.1181 1.896 27.1231C1.89872 27.1276 1.90176 27.132 1.90384 27.1367C1.90544 27.1418 1.91024 27.1453 1.91296 27.1498C1.91456 27.152 1.916 27.1543 1.91728 27.1565C1.91904 27.1586 1.92128 27.1604 1.9232 27.1623C1.92512 27.1642 1.92688 27.1663 1.92864 27.1684L1.9312 27.1716C1.93216 27.1725 1.93344 27.1732 1.93456 27.1741C1.93904 27.1775 1.9432 27.1812 1.94704 27.1852C1.952 27.1879 1.95664 27.1909 1.96112 27.1943C1.9632 27.1962 1.96576 27.1975 1.96832 27.1984C1.97088 27.1996 1.97344 27.2008 1.97584 27.2021C1.99584 27.2112 2.01665 27.2191 2.03729 27.22C2.05777 27.2212 2.07729 27.2189 2.09665 27.2138C2.10129 27.2116 2.10609 27.2093 2.11089 27.2077L2.11457 27.2066L2.11553 27.2063L2.11601 27.2061C2.12081 27.204 2.10993 27.2088 2.11153 27.208L2.11633 27.2058L2.13537 27.1972L2.17346 27.1797C2.1805 27.1767 2.18482 27.1743 2.18962 27.1717L2.20402 27.1642L2.23298 27.1493C2.2429 27.144 2.2533 27.1378 2.26354 27.132L2.29426 27.1146L2.32387 27.0959C2.40307 27.046 2.47556 26.9884 2.5418 26.9255C2.60853 26.8631 2.66565 26.792 2.71621 26.7165C2.7423 26.6794 2.76374 26.6389 2.78662 26.5994C2.79702 26.5789 2.80646 26.5578 2.81654 26.5371C2.82134 26.5267 2.82678 26.5165 2.83142 26.5059L2.84391 26.4734C2.88055 26.3881 2.90375 26.2955 2.92679 26.2024L2.94151 26.1428C2.96823 26.0348 3.07288 25.966 3.18057 25.9801C3.18265 25.9809 3.19257 25.9811 3.19929 25.9816L3.22297 25.982C3.23913 25.9824 3.25561 25.9822 3.27225 25.9819C3.30554 25.9812 3.33946 25.9798 3.37322 25.9776C3.40715 25.9753 3.44107 25.9721 3.47499 25.9684L3.52571 25.962L3.57628 25.9545L3.62668 25.9457L3.67676 25.9356C3.70989 25.9283 3.74317 25.9208 3.77581 25.9116C3.79229 25.9075 3.80861 25.9028 3.82461 25.8977C3.84078 25.8928 3.85726 25.8883 3.87294 25.8825C3.88878 25.8769 3.90494 25.8718 3.92078 25.8659L3.96767 25.8476C3.99823 25.8345 4.02959 25.8215 4.05903 25.8062C4.08943 25.7919 4.11776 25.775 4.14688 25.7585L4.18896 25.7318C4.2032 25.723 4.21584 25.7127 4.2296 25.7031L4.24977 25.6886L4.26881 25.6729C4.28129 25.6622 4.29521 25.6524 4.30689 25.6409L4.34321 25.607C4.35489 25.5953 4.36577 25.5828 4.37729 25.5706C4.38914 25.5586 4.39938 25.5457 4.40962 25.5326L4.4253 25.5129C4.43074 25.5065 4.43586 25.4998 4.44034 25.4927L4.46882 25.451C4.4781 25.4369 4.48578 25.4218 4.49442 25.4071L4.50722 25.3849C4.51122 25.3774 4.51459 25.3695 4.51827 25.3617L4.54035 25.3149L4.54403 25.3071C4.56499 25.2626 4.61827 25.2436 4.66275 25.2645C4.70164 25.2829 4.721 25.3257 4.7114 25.3658L4.69716 25.4257C4.6946 25.4356 4.69252 25.4458 4.68964 25.4558L4.6802 25.4852C4.67364 25.5047 4.66788 25.5249 4.6602 25.5442L4.63619 25.6022C4.63235 25.6119 4.62787 25.6214 4.62307 25.6307L4.60883 25.6588C4.59939 25.6777 4.58995 25.6966 4.57859 25.7142C4.56771 25.7321 4.55699 25.7505 4.54547 25.7683L4.50898 25.8201C4.49698 25.8377 4.48306 25.8534 4.46994 25.87L4.44994 25.8948L4.42866 25.9184C4.41426 25.9337 4.40034 25.95 4.38529 25.9648L4.33985 26.0089C4.30849 26.0369 4.27697 26.0654 4.24353 26.0907C4.21072 26.1172 4.17632 26.1409 4.14176 26.1651L4.08911 26.1993C4.07135 26.2104 4.05343 26.2208 4.03551 26.2315C4.01759 26.2425 3.99919 26.252 3.98095 26.2621C3.9627 26.2723 3.9443 26.2819 3.92574 26.291C3.88878 26.3101 3.85118 26.3273 3.81325 26.3443L3.75613 26.3686L3.69852 26.3915L3.64028 26.4129L3.58156 26.433C3.54219 26.4458 3.50267 26.4579 3.46267 26.469C3.42267 26.4802 3.38234 26.4904 3.34122 26.4998C3.32058 26.5045 3.29994 26.509 3.27866 26.5131L3.24633 26.5192C3.23449 26.5211 3.22569 26.5229 3.20905 26.5248H3.20889L3.46283 26.3025L3.44395 26.3965L3.43403 26.4433C3.43083 26.459 3.42571 26.4744 3.42155 26.4901L3.39498 26.5834C3.38538 26.6142 3.3729 26.6446 3.36186 26.6752L3.34474 26.721C3.3385 26.7362 3.33146 26.7509 3.32474 26.7659C3.31098 26.7957 3.29786 26.8259 3.28314 26.8554L3.23561 26.9423L3.22345 26.9639L3.21001 26.9847L3.18281 27.0263C3.10936 27.1364 3.02456 27.24 2.92823 27.3306C2.83222 27.4215 2.72646 27.5004 2.61557 27.5679C2.60165 27.5764 2.58789 27.585 2.57397 27.593L2.5314 27.6164C2.517 27.6241 2.50324 27.6319 2.48852 27.6396L2.44244 27.6622L2.41939 27.6734C2.41171 27.677 2.40355 27.681 2.39779 27.6834L2.35939 27.7002L2.34019 27.7086L2.33539 27.7106C2.33619 27.7103 2.32467 27.7153 2.32851 27.7135L2.32643 27.7143L2.32243 27.7158L2.30643 27.7215C2.28498 27.729 2.26322 27.7362 2.24146 27.7428C2.15234 27.7655 2.05905 27.7711 1.96848 27.7594C1.94608 27.7558 1.92368 27.7518 1.90128 27.7473C1.87936 27.7418 1.85775 27.735 1.83631 27.7281C1.81455 27.7218 1.79423 27.7121 1.77359 27.7033L1.74303 27.6894C1.7331 27.6842 1.7235 27.6785 1.71374 27.6729L1.68494 27.6558C1.67534 27.6502 1.6659 27.6441 1.6571 27.6372C1.63902 27.6239 1.62126 27.6103 1.60382 27.5964C1.58734 27.5812 1.57101 27.5658 1.55517 27.55C1.55117 27.546 1.54717 27.5422 1.54333 27.5382L1.53245 27.5253L1.51085 27.4994C1.50381 27.4906 1.49661 27.482 1.48989 27.473L1.47133 27.4447C1.45949 27.4255 1.44636 27.4071 1.43692 27.3863C1.427 27.366 1.41708 27.3455 1.40812 27.3247C1.40044 27.3033 1.39324 27.2817 1.38636 27.26L1.3814 27.2437L1.37708 27.2239C1.37436 27.2106 1.3718 27.1973 1.36956 27.184C1.36732 27.1708 1.36524 27.1575 1.36348 27.1442C1.36284 27.1402 1.36284 27.1389 1.36284 27.1372L1.36252 27.1319L1.36204 27.1215L1.36092 27.1005L1.36044 27.0901L1.36012 27.0848C1.36028 27.088 1.35868 27.052 1.35948 27.0666V27.065L1.35964 27.0618L1.36204 27.0112C1.3638 26.9434 1.37388 26.8783 1.38332 26.8131C1.40604 26.6843 1.44332 26.5627 1.48637 26.4461C1.53005 26.3296 1.58317 26.22 1.6395 26.1136C1.6971 26.0081 1.75871 25.9065 1.82431 25.8084C1.89072 25.7113 1.95904 25.6163 2.03105 25.5249C2.06689 25.4791 2.10321 25.4338 2.14081 25.39L2.1973 25.3242L2.2557 25.2602C2.33411 25.1756 2.41587 25.0945 2.501 25.0173C2.58597 24.94 2.67461 24.8668 2.76646 24.7978C2.78934 24.7804 2.81286 24.7639 2.83606 24.7469C2.85975 24.7306 2.88327 24.7139 2.90743 24.6981C2.95527 24.6659 3.00456 24.6359 3.05624 24.6075C3.08696 24.5907 3.12552 24.6019 3.14249 24.6327C3.15433 24.6541 3.15225 24.6795 3.13961 24.6986L3.13929 24.7Z" fill="#2B1E59"/>
<path d="M7.30938 23.467C7.23114 23.467 7.15353 23.4336 7.09961 23.3688C6.13186 22.2061 4.77928 21.8895 4.76584 21.8864C4.61911 21.8533 4.52662 21.7075 4.55958 21.5606C4.59255 21.4139 4.73784 21.3213 4.88473 21.3539C4.94729 21.3678 6.4282 21.7091 7.519 23.0198C7.61532 23.1356 7.59964 23.3075 7.48379 23.404C7.43275 23.4462 7.37083 23.467 7.30938 23.467Z" fill="#2B1E59"/>
<path d="M2.35791 30.2448H2.35759C1.85947 30.2448 1.4332 30.0836 1.12518 29.7791C0.665624 29.3247 0.421446 28.7133 0.419206 28.0107C0.416806 27.2793 0.672185 26.4506 1.17798 25.5479C1.74202 24.5411 2.6232 23.4347 3.79705 22.2595C4.68575 21.3697 5.6327 20.5954 6.61149 19.9583C7.39651 19.4473 8.20376 19.0228 9.01086 18.6966C10.3961 18.1367 11.2985 18.0596 11.3363 18.0565C11.4376 18.0485 11.535 18.0973 11.589 18.1834C11.6431 18.2695 11.6447 18.3785 11.5934 18.4661L6.58061 27.036C6.08377 27.9843 5.3986 28.796 4.59903 29.3842C3.84457 29.9391 3.04868 30.2448 2.35791 30.2448ZM10.828 18.6942C10.4439 18.7778 9.87812 18.9324 9.1896 19.2126C7.97639 19.7062 6.12298 20.7025 4.18316 22.6448C1.51768 25.3137 0.961805 27.0349 0.965005 28.0089C0.966765 28.571 1.14982 29.0362 1.50904 29.3911C1.71578 29.5954 2.0014 29.6991 2.35791 29.6991H2.35807C2.92499 29.6991 3.62392 29.4242 4.2758 28.9447C5.01058 28.4041 5.6415 27.6548 6.10025 26.7773C6.10217 26.7735 6.10441 26.7696 6.10649 26.7659L10.828 18.6942Z" fill="#2B1E59"/>
<path d="M17.4882 37.827C17.6058 38.1207 17.6428 38.4441 17.5845 38.7578C16.6283 43.9979 12.3529 44.6594 10.878 42.8754C10.3923 42.2866 10.2877 41.6432 10.3733 41.0401C10.5504 39.7595 11.5759 38.6629 11.5759 38.6629L9.57178 32.8227L10.5301 37.9207C10.2238 40.7783 6.88422 42.4895 4.926 41.082C4.29844 40.6311 4.08914 40.0834 4.0949 39.5472C4.10658 38.4125 5.08041 37.3304 5.08041 37.3304C4.3466 34.3199 4.51253 31.4802 5.07497 29.0183C5.48892 27.2053 6.11649 25.5962 6.75461 24.2728C7.92654 21.8475 9.13463 20.384 9.13463 20.384L10.6002 18.706L17.2859 20.2015L17.6564 22.9906C17.7861 25.0136 17.5356 26.7192 17.1515 28.0859C17.1267 28.1694 17.1034 28.2528 17.0786 28.3334C16.9517 28.7539 16.8123 29.1405 16.6691 29.4917C15.9729 31.2 15.1768 32.09 15.1768 32.09L17.4882 37.827Z" fill="white"/>
<g opacity="0.35">
<path d="M17.4882 37.8271L15.1768 32.09C15.1768 32.09 15.9715 31.1986 16.6677 29.4917C16.6681 29.4917 16.6686 29.4917 16.6693 29.4916C16.7069 29.3994 16.7441 29.3044 16.7811 29.2072C16.7842 29.1991 16.7872 29.1904 16.7904 29.1821C16.8338 29.0675 16.8762 28.949 16.9179 28.8277C16.928 28.7986 16.9381 28.7693 16.948 28.7397C16.9926 28.6075 17.0365 28.4728 17.0787 28.3331C17.1035 28.2526 17.1269 28.1691 17.1517 28.0856C17.0973 28.0944 17.0438 28.1022 16.9902 28.1099C15.7486 24.9777 14.7472 22.4927 14.7472 22.4927C14.7472 22.4927 14.5265 25.9468 14.0936 28.0652C13.5334 27.9532 13.2212 27.8167 13.2077 27.811C13.1898 27.8025 13.1719 27.7985 13.154 27.7915L13.3265 27.093C13.465 26.5331 13.1812 25.9633 12.6797 25.7243C12.6079 25.6903 12.5333 25.6639 12.4528 25.6435L7.05913 24.307C6.95785 24.2827 6.85544 24.2717 6.75479 24.2723C6.22483 24.2797 5.74272 24.6431 5.60975 25.1822L5.04603 27.4561L4.89802 28.0532C4.81241 28.3973 4.88682 28.7451 5.07515 29.0178C5.23436 29.2511 5.47678 29.4293 5.77168 29.5028L11.1669 30.8376C11.8059 30.9965 12.4574 30.6029 12.6165 29.9639L12.8311 29.0943C12.9412 29.1357 13.0992 29.19 13.3015 29.2463C13.473 29.2941 13.5614 29.4865 13.4798 29.6447C12.9895 30.5955 12.4069 32.3494 14.4573 32.8089C14.4573 32.8089 14.431 34.4163 15.4578 35.1648L16.1702 37.0105C16.6198 38.1757 16.4972 39.4881 15.8249 40.5409C15.0949 41.6837 13.9196 42.8397 12.2321 42.5541C10.9597 42.3383 10.4851 41.7121 10.3738 41.0393C10.288 41.6425 10.3928 42.2858 10.8784 42.8746C12.3534 44.6586 16.6288 43.9973 17.585 38.757C17.6428 38.4441 17.6058 38.1207 17.4882 37.8271Z" fill="#2B1E59"/>
</g>
<g opacity="0.35">
<path d="M10.5301 37.9206C10.2238 40.7783 6.88422 42.4894 4.926 41.082C4.29844 40.6311 4.08914 40.0833 4.0949 39.5471C5.95472 41.2436 7.54667 40.4677 8.55026 39.5267C9.30328 38.8205 9.62058 37.7645 9.42793 36.7503L8.92437 34.0999C8.86293 33.7763 8.64675 33.5069 8.34993 33.364C7.02055 32.7238 6.82838 31.9106 6.81558 31.543C6.81318 31.4726 6.90087 31.4368 6.94759 31.4894C8.03023 32.7071 9.57178 32.8227 9.57178 32.8227L10.5301 37.9206Z" fill="#2B1E59"/>
</g>
<path d="M5.34194 37.2547C5.34194 37.2547 5.34241 37.2568 5.34337 37.2608C5.34353 37.2613 5.34354 37.2617 5.3437 37.2622C5.3437 37.2627 5.34385 37.2632 5.34433 37.2651C5.34529 37.2683 5.34626 37.2718 5.34754 37.276C5.35298 37.2933 5.36178 37.3205 5.3765 37.3558C5.39122 37.3912 5.40994 37.4349 5.43698 37.483C5.44322 37.4954 5.45074 37.5074 5.4581 37.5202C5.46562 37.5328 5.47298 37.5461 5.48179 37.5589C5.49027 37.572 5.49907 37.5853 5.50803 37.5991C5.51763 37.6123 5.52755 37.6258 5.53763 37.6397C5.54739 37.6539 5.55875 37.6672 5.56979 37.6813C5.58099 37.6952 5.59187 37.7099 5.60467 37.7234C5.61699 37.7373 5.62963 37.7514 5.64244 37.7658C5.65604 37.7794 5.66996 37.7931 5.68404 37.8072C5.7418 37.8616 5.80549 37.9178 5.87973 37.9658C5.88885 37.972 5.89797 37.9784 5.90709 37.9847C5.9167 37.9904 5.92646 37.996 5.93606 38.0018C5.95558 38.0133 5.97526 38.025 5.99494 38.0367C6.01558 38.0472 6.03622 38.0578 6.05703 38.0684C6.06743 38.0736 6.07783 38.0792 6.08855 38.0844L6.12135 38.0983C6.14327 38.1077 6.16535 38.1172 6.18744 38.1268C6.21032 38.1348 6.23336 38.1429 6.2564 38.1509C6.302 38.1689 6.35065 38.1796 6.39833 38.1938C6.42201 38.2013 6.44681 38.2058 6.4713 38.2111C6.49594 38.2164 6.52042 38.2217 6.5449 38.2269C6.5945 38.2357 6.64459 38.2421 6.69419 38.25C6.7446 38.2546 6.79452 38.2591 6.84396 38.2636C6.89373 38.2666 6.94317 38.2676 6.99197 38.2697C7.00413 38.27 7.01629 38.2709 7.02845 38.2708C7.04062 38.2706 7.05262 38.2703 7.06478 38.2701C7.08894 38.2698 7.11278 38.2695 7.13646 38.269C7.16014 38.2687 7.18367 38.2684 7.20687 38.2682C7.23007 38.2668 7.25295 38.2653 7.27567 38.2639C7.32096 38.2607 7.36528 38.2588 7.40816 38.2556C7.45105 38.2511 7.49233 38.2468 7.53217 38.2428C7.61218 38.2362 7.68482 38.2237 7.74995 38.2151C7.78243 38.2105 7.81315 38.2073 7.84115 38.2023C7.86916 38.1973 7.89492 38.1929 7.91828 38.1889C7.965 38.1809 8.00181 38.1746 8.02709 38.1708C8.05237 38.1668 8.06581 38.1645 8.06581 38.1645L8.06709 38.1644C8.08405 38.1617 8.09989 38.1732 8.10261 38.1901C8.10485 38.2044 8.09701 38.218 8.08437 38.2236C8.08437 38.2236 8.07173 38.229 8.04821 38.2394C8.02469 38.2498 7.98996 38.2647 7.94548 38.2834C7.92324 38.2927 7.8986 38.3031 7.87172 38.3143C7.84483 38.3253 7.81507 38.3354 7.78339 38.3471C7.75171 38.3585 7.71779 38.3705 7.68226 38.3831C7.64674 38.3964 7.6085 38.4077 7.56849 38.4194C7.52849 38.4313 7.48673 38.4434 7.44353 38.4562C7.4 38.4681 7.3544 38.4778 7.30752 38.4889C7.28399 38.4943 7.26031 38.4998 7.23615 38.5054C7.21167 38.5098 7.18703 38.5142 7.16207 38.5188C7.13694 38.5231 7.11166 38.5274 7.08606 38.5319C7.07326 38.534 7.0603 38.5362 7.04734 38.5385C7.03438 38.5406 7.0211 38.5417 7.00797 38.5433C6.95517 38.5489 6.90141 38.5559 6.84652 38.5606C6.79148 38.5634 6.73547 38.5663 6.67883 38.5682C6.62203 38.5673 6.56458 38.5674 6.50682 38.565C6.47786 38.5628 6.44873 38.5606 6.41977 38.5583C6.39065 38.5559 6.36137 38.5545 6.33225 38.5497C6.274 38.541 6.21528 38.5343 6.15735 38.5204C6.12839 38.514 6.09927 38.5078 6.07047 38.5014C6.04182 38.4932 6.01334 38.485 5.98486 38.4769C5.97062 38.4727 5.95638 38.4686 5.94214 38.4646C5.92806 38.4599 5.91429 38.4546 5.90037 38.4497C5.87253 38.4396 5.84485 38.4295 5.81733 38.4194C5.79045 38.4076 5.76356 38.3957 5.737 38.3839C5.72372 38.3778 5.71044 38.3719 5.69732 38.366C5.68452 38.3593 5.67172 38.3525 5.65892 38.3458C5.55571 38.2941 5.46162 38.2313 5.37698 38.1658C5.35602 38.149 5.33553 38.1324 5.31521 38.1159C5.29585 38.0984 5.27681 38.0812 5.25793 38.0642C5.23873 38.0476 5.22177 38.0293 5.20432 38.012C5.1872 37.9946 5.16976 37.9778 5.15456 37.9599C5.13904 37.9421 5.12368 37.9248 5.1088 37.9079C5.09472 37.8903 5.08096 37.873 5.06752 37.856C5.05375 37.8394 5.04191 37.8221 5.02975 37.8055C5.01775 37.7888 5.00591 37.773 4.99551 37.7567C4.95183 37.693 4.91902 37.6333 4.89246 37.5832C4.86654 37.533 4.84894 37.4902 4.83662 37.4598C4.83358 37.452 4.83102 37.445 4.82862 37.4389C4.82734 37.4354 4.82622 37.432 4.8251 37.429C4.82398 37.4256 4.82286 37.4226 4.82206 37.4198C4.81918 37.4114 4.81774 37.4069 4.81774 37.4069C4.77005 37.2638 4.84734 37.1093 4.99039 37.0616C5.13344 37.0139 5.28801 37.0912 5.33569 37.2342C5.33793 37.2408 5.33985 37.2473 5.34145 37.2539L5.34194 37.2547Z" fill="#2B1E59"/>
<path d="M11.8168 38.5354C11.8165 38.5347 11.8197 38.5408 11.8199 38.5408C11.822 38.5443 11.825 38.5494 11.829 38.5562C11.8396 38.5734 11.8575 38.6005 11.8831 38.6351C11.9087 38.6698 11.9429 38.7114 11.9852 38.7576C12.0274 38.8039 12.0789 38.8538 12.1383 38.9055C12.1981 38.9567 12.2666 39.009 12.3426 39.0605C12.3817 39.0847 12.4207 39.1114 12.4636 39.1346C12.4849 39.1464 12.5055 39.1599 12.5278 39.1711C12.55 39.1826 12.5723 39.1941 12.595 39.2058C12.6172 39.2181 12.6412 39.2277 12.6647 39.2388C12.6886 39.2492 12.7118 39.2612 12.7366 39.2708C12.7859 39.2898 12.835 39.3114 12.8868 39.3284C12.9126 39.3373 12.9384 39.3465 12.9641 39.3556C12.9905 39.3634 13.0171 39.3713 13.0436 39.3791C13.0965 39.3961 13.1512 39.4081 13.2056 39.4217C13.2192 39.4249 13.2328 39.4285 13.2465 39.4316L13.288 39.4396C13.3157 39.4452 13.3432 39.4508 13.3709 39.4562C13.3984 39.4625 13.4264 39.466 13.4541 39.4703C13.4819 39.4746 13.5096 39.4788 13.5373 39.4831C13.5648 39.4879 13.5928 39.49 13.6205 39.4932C13.6482 39.4961 13.6759 39.4991 13.7032 39.502C13.717 39.5034 13.7306 39.5052 13.7443 39.5062C13.7581 39.507 13.7717 39.5078 13.7855 39.5086C13.8128 39.5102 13.8399 39.5119 13.8669 39.5135C13.8938 39.515 13.9205 39.5182 13.9472 39.5182C13.9738 39.5188 14.0002 39.5196 14.0263 39.5202C14.0786 39.5218 14.1296 39.5242 14.1797 39.5234C14.2298 39.5233 14.2785 39.5233 14.3258 39.5238C14.373 39.5231 14.4189 39.5212 14.463 39.5202C14.5511 39.5193 14.6322 39.5149 14.7044 39.5116C14.7404 39.5097 14.7743 39.5089 14.8057 39.5076C14.8371 39.5055 14.8657 39.5034 14.8918 39.5017C14.9439 39.4988 14.9851 39.4964 15.0132 39.4954C15.0414 39.4945 15.0564 39.4938 15.0564 39.4938L15.0592 39.4937C15.0976 39.4922 15.1297 39.5223 15.1312 39.5607C15.1323 39.5916 15.1129 39.6185 15.0856 39.6286C15.0856 39.6286 15.0712 39.6338 15.0443 39.6436C15.0172 39.6535 14.9775 39.667 14.9267 39.6844C14.9012 39.6927 14.8729 39.702 14.8422 39.7121C14.8111 39.7212 14.7775 39.7306 14.7414 39.7402C14.7052 39.75 14.6666 39.7603 14.626 39.7711C14.6057 39.7769 14.5846 39.7814 14.563 39.7859C14.5414 39.7905 14.5191 39.7951 14.4966 39.7999C14.4513 39.8091 14.4041 39.8198 14.3548 39.8283C14.3053 39.8361 14.2541 39.8439 14.2015 39.8516C14.1488 39.8606 14.0941 39.8646 14.0381 39.8703C13.9821 39.8758 13.925 39.8812 13.8663 39.883C13.837 39.8841 13.8074 39.8852 13.7776 39.8863C13.7627 39.8868 13.7477 39.8875 13.7328 39.8881C13.7178 39.8884 13.7027 39.8881 13.6875 39.8881C13.6571 39.8879 13.6267 39.8876 13.596 39.8875C13.5653 39.887 13.5344 39.8876 13.5034 39.8854C13.4723 39.8838 13.4411 39.882 13.4098 39.8804C13.3784 39.8787 13.3469 39.8777 13.3155 39.8739C13.284 39.8707 13.2523 39.8675 13.2208 39.8643L13.1733 39.8591C13.1574 39.8571 13.1417 39.8543 13.1259 39.8519C13.0627 39.8419 12.9992 39.8332 12.9366 39.819C12.9052 39.8124 12.8739 39.8059 12.8425 39.7995C12.8115 39.7914 12.7804 39.7834 12.7495 39.7754C12.6875 39.7609 12.6273 39.7396 12.5673 39.7209C12.5372 39.7116 12.5082 39.6994 12.479 39.6889C12.4498 39.6777 12.4204 39.6679 12.3924 39.6551C12.2783 39.6086 12.1711 39.554 12.0721 39.4967C11.974 39.4377 11.8829 39.3775 11.8039 39.3143C11.7248 39.2511 11.6547 39.1892 11.5963 39.1293C11.5381 39.0693 11.4898 39.0136 11.4517 38.965C11.4139 38.9159 11.3856 38.8746 11.3664 38.8442C11.3565 38.8279 11.3499 38.8173 11.3427 38.8043C11.3378 38.7952 11.335 38.7906 11.335 38.7906C11.2645 38.6575 11.3152 38.4923 11.4483 38.4219C11.5813 38.3515 11.7463 38.4022 11.8168 38.5354Z" fill="#2B1E59"/>
<path d="M7.39828 35.5619C7.02946 35.5619 6.69327 35.5435 6.40445 35.5179C5.42726 35.4315 4.77857 35.2512 4.75153 35.2435C4.60656 35.2027 4.52207 35.0521 4.56288 34.9072C4.60368 34.7622 4.75425 34.6777 4.89922 34.7185C4.91186 34.722 5.54039 34.895 6.46557 34.9758C7.31748 35.0502 8.60365 35.0593 9.89302 34.6809C10.0375 34.6385 10.1892 34.7212 10.2316 34.8659C10.274 35.0104 10.1913 35.1621 10.0466 35.2045C9.11137 35.4789 8.18138 35.5619 7.39828 35.5619Z" fill="#2B1E59"/>
<path d="M12.0825 36.2972C11.3682 36.2972 10.8848 36.2144 10.8587 36.2098C10.7104 36.1839 10.611 36.0424 10.6371 35.8941C10.663 35.7458 10.8041 35.6466 10.9526 35.6725C10.9605 35.6738 11.7426 35.8066 12.7649 35.7246C13.6933 35.6502 15.0182 35.3781 16.0578 34.5041C16.1732 34.4071 16.3452 34.422 16.4421 34.5374C16.5391 34.6527 16.5242 34.8247 16.4089 34.9217C15.8971 35.352 15.2849 35.6872 14.5895 35.9183C14.0385 36.1013 13.4341 36.2196 12.7932 36.2698C12.5391 36.2895 12.2999 36.2972 12.0825 36.2972Z" fill="#2B1E59"/>
<path d="M9.54068 33.0934C9.54068 33.0934 9.52708 33.0916 9.50164 33.0883C9.47715 33.0849 9.44243 33.0798 9.39875 33.0726C9.35522 33.0649 9.30258 33.0555 9.2429 33.043C9.18321 33.0305 9.11633 33.015 9.04368 32.9971C8.9712 32.9785 8.89311 32.9574 8.81103 32.9324C8.72878 32.9083 8.64333 32.879 8.55517 32.8478C8.46716 32.8159 8.37676 32.7814 8.28651 32.7417C8.19594 32.7031 8.10506 32.6604 8.01545 32.6153C7.97097 32.5918 7.92664 32.5682 7.8828 32.5441C7.86104 32.5316 7.83944 32.5191 7.81767 32.5066C7.79607 32.4943 7.77447 32.4818 7.75351 32.4684C7.71143 32.4418 7.66902 32.4172 7.62902 32.3889C7.60886 32.3751 7.58886 32.3614 7.56902 32.3477C7.54918 32.3343 7.53013 32.3193 7.51109 32.3053C7.49205 32.2913 7.47317 32.2772 7.45445 32.2633C7.43589 32.249 7.41813 32.234 7.40052 32.2194C7.38292 32.2049 7.36548 32.1903 7.34836 32.1761C7.33172 32.161 7.31524 32.1461 7.29908 32.1316C7.28292 32.1169 7.26708 32.1025 7.25139 32.0882C7.23587 32.0737 7.22163 32.0581 7.20707 32.0436C7.17843 32.014 7.15011 31.9864 7.1253 31.9572C7.10002 31.9285 7.07586 31.9012 7.0541 31.874C7.03282 31.8464 7.01282 31.8202 6.99378 31.7957C6.97473 31.7715 6.95953 31.7463 6.94449 31.7242C6.92961 31.7019 6.91617 31.6815 6.90433 31.6627C6.88193 31.6242 6.86529 31.5936 6.85409 31.5728C6.84289 31.552 6.8368 31.541 6.8368 31.541C6.8096 31.4907 6.82816 31.428 6.87841 31.4006C6.91985 31.3782 6.96977 31.3869 7.0013 31.4187L7.00706 31.4245C7.00706 31.4245 7.01506 31.4326 7.03026 31.4478C7.04546 31.4629 7.06722 31.4854 7.09458 31.5139C7.1093 31.5274 7.1253 31.5423 7.14259 31.5587C7.16019 31.5749 7.17763 31.5933 7.19939 31.6106C7.22019 31.6285 7.24211 31.6474 7.26548 31.6674C7.289 31.6871 7.31556 31.7059 7.34132 31.7271C7.36692 31.7485 7.39636 31.768 7.42565 31.7893C7.44053 31.7997 7.45509 31.8106 7.47061 31.8212C7.48613 31.8316 7.50197 31.842 7.51813 31.8527C7.53414 31.8632 7.55029 31.874 7.56678 31.8848C7.58374 31.8951 7.60086 31.9053 7.6183 31.9157C7.63558 31.9261 7.65302 31.9367 7.67062 31.9474C7.68854 31.9575 7.70679 31.9679 7.72503 31.9781C7.74343 31.9884 7.76135 31.9992 7.78055 32.009C7.79959 32.0188 7.8188 32.0287 7.838 32.0386C7.87608 32.0591 7.91608 32.0777 7.95576 32.0972C7.97545 32.1071 7.99593 32.1162 8.01641 32.1252C8.03673 32.1343 8.05721 32.1434 8.07769 32.1525C8.11914 32.1701 8.16106 32.1869 8.20282 32.2039C8.28731 32.2362 8.37195 32.2682 8.45692 32.2956C8.4782 32.3025 8.49932 32.3093 8.52029 32.3162C8.54157 32.3226 8.56253 32.329 8.58349 32.3353C8.62509 32.3487 8.66718 32.3598 8.70798 32.3718C8.7491 32.3831 8.78958 32.3938 8.82927 32.4041C8.86927 32.4137 8.90799 32.4239 8.94608 32.4326C9.02208 32.4511 9.09457 32.4657 9.16129 32.4793C9.22818 32.4927 9.28946 32.5041 9.34386 32.513C9.39827 32.5228 9.44547 32.5298 9.48419 32.5354C9.52276 32.5412 9.553 32.5454 9.57268 32.5478C9.59156 32.55 9.60164 32.5511 9.60164 32.5511L9.60756 32.5518C9.75717 32.5694 9.86422 32.7049 9.84646 32.8545C9.82886 33.0041 9.69333 33.1112 9.54372 33.0934C9.54324 33.0937 9.54116 33.0936 9.54068 33.0934Z" fill="#2B1E59"/>
<path d="M9.20933 20.4455C9.10308 20.5954 8.99907 20.7514 8.89746 20.9071C8.7957 21.0631 8.69569 21.2203 8.5976 21.3787C8.40143 21.6953 8.21197 22.0158 8.02908 22.3399C7.84587 22.6637 7.67002 22.9913 7.49976 23.3215C7.32983 23.6519 7.16614 23.9854 7.00949 24.3219C6.93092 24.4901 6.8546 24.6592 6.77955 24.8288C6.74131 24.9133 6.70515 24.9988 6.66834 25.0839L6.61346 25.2117L6.56002 25.3402C6.41681 25.6822 6.28223 26.0276 6.15487 26.3757C6.02814 26.7238 5.91053 27.0751 5.80028 27.4284L5.75948 27.561C5.74572 27.6052 5.73228 27.6495 5.71964 27.694L5.64171 27.9604C5.59259 28.1388 5.54266 28.3169 5.49786 28.4963C5.40601 28.8546 5.32217 29.2147 5.25032 29.5773C5.17848 29.9398 5.11239 30.3036 5.06151 30.6694C5.00934 31.035 4.96566 31.4019 4.93558 31.77C4.91782 31.9538 4.9087 32.1382 4.89606 32.3223L4.88406 32.599C4.88214 32.6451 4.87973 32.6912 4.87845 32.7372L4.87557 32.8756C4.86485 33.2446 4.87157 33.6139 4.88453 33.9826L4.89814 34.2591L4.9015 34.3282L4.90646 34.3972L4.91654 34.5351L4.92662 34.6732L4.93174 34.7422L4.93846 34.811L4.9655 35.0864L4.97222 35.1552L4.9807 35.2238L4.99766 35.3611L5.01446 35.4984L5.02294 35.567L5.03303 35.6355C5.06071 35.8179 5.08599 36.0008 5.11991 36.1821C5.18072 36.5462 5.26104 36.9065 5.34473 37.266C5.36553 37.3557 5.34057 37.4451 5.2852 37.5101L5.28232 37.5133L5.2572 37.5424L5.22984 37.575C5.2116 37.5971 5.19336 37.6198 5.17544 37.6427C5.13943 37.6885 5.10407 37.7354 5.06951 37.7827C5.00054 37.8778 4.93462 37.9754 4.87285 38.0749C4.749 38.2741 4.64084 38.4815 4.55507 38.6941C4.51203 38.8004 4.47571 38.9082 4.44594 39.0166C4.41602 39.1249 4.3941 39.2339 4.38098 39.3424C4.35394 39.5593 4.3653 39.7741 4.42066 39.9742C4.47602 40.1746 4.57763 40.3592 4.71524 40.5224C4.85333 40.6855 5.02439 40.8282 5.21768 40.9479L5.2508 40.9687L5.2868 40.9892C5.31113 41.0025 5.33465 41.0174 5.35977 41.0294C5.38457 41.0418 5.40905 41.055 5.43402 41.067L5.5097 41.1017C5.61163 41.146 5.71676 41.1833 5.82428 41.2137C6.03902 41.2753 6.264 41.3046 6.49041 41.31C6.6037 41.3126 6.71763 41.3071 6.83123 41.2967C6.94484 41.286 7.05829 41.2697 7.17078 41.2463C7.28327 41.2233 7.39512 41.1951 7.50536 41.1615C7.61561 41.1273 7.72442 41.0881 7.83179 41.0444C8.04588 40.9559 8.25294 40.8487 8.44911 40.7237C8.49855 40.693 8.5464 40.66 8.59456 40.6274C8.64177 40.5935 8.68961 40.5602 8.73537 40.5245C8.78209 40.4898 8.8269 40.4527 8.87218 40.4162C8.91635 40.3783 8.96115 40.3411 9.00387 40.3016C9.04755 40.2632 9.08884 40.2223 9.13092 40.1821C9.17172 40.1408 9.21317 40.0998 9.25221 40.0568C9.29253 40.0149 9.33014 39.9706 9.36854 39.927C9.40566 39.8824 9.44326 39.8381 9.47847 39.792C9.49655 39.7693 9.51447 39.7464 9.53127 39.7229C9.54839 39.6995 9.56599 39.6763 9.58279 39.6528C9.61575 39.6051 9.64936 39.5577 9.68024 39.5088C9.71256 39.4606 9.74152 39.4105 9.77177 39.3611C9.80009 39.3107 9.82937 39.2607 9.85561 39.2091C9.88329 39.1582 9.90762 39.1057 9.93322 39.0539C9.95658 39.001 9.98138 38.9487 10.0025 38.895C10.0252 38.8418 10.0447 38.7874 10.0651 38.7333C10.075 38.7063 10.0836 38.6786 10.0931 38.6514L10.1068 38.6105L10.1193 38.569C10.154 38.4589 10.1809 38.3466 10.2048 38.2336C10.2284 38.1207 10.2446 38.0063 10.2582 37.8917L10.2614 37.9711L9.30261 32.8724C9.27477 32.7244 9.37222 32.5819 9.52023 32.554C9.65512 32.5286 9.78553 32.6073 9.82857 32.7336L11.8332 38.5741C11.8665 38.6709 11.842 38.7737 11.7782 38.8449L11.7745 38.8489L11.7511 38.8748L11.7257 38.9039L11.6746 38.9641C11.6407 39.0047 11.6074 39.0463 11.5745 39.0884C11.5089 39.1727 11.4452 39.2591 11.3842 39.3472C11.2621 39.5232 11.1499 39.7059 11.0501 39.8934C10.851 40.2683 10.7008 40.6669 10.6433 41.0702C10.6149 41.2715 10.6096 41.4731 10.6341 41.6692C10.6584 41.8654 10.7122 42.0555 10.7933 42.2347C10.8342 42.3242 10.8826 42.4106 10.9365 42.4939C10.9504 42.5146 10.9632 42.5357 10.9779 42.556L11.0218 42.6167C11.0367 42.6367 11.0528 42.656 11.0682 42.6759L11.0877 42.7005L11.1152 42.7322L11.1427 42.7639C11.1472 42.769 11.1522 42.7751 11.1563 42.7792L11.1683 42.7914L11.2157 42.8407C11.2517 42.8743 11.2866 42.909 11.3248 42.9402C11.3434 42.9564 11.3621 42.9725 11.382 42.9873C11.4016 43.0023 11.4207 43.018 11.4408 43.0325L11.5017 43.0754C11.5218 43.0898 11.5434 43.1025 11.5642 43.1161C11.9014 43.3294 12.3011 43.4497 12.7096 43.4828L12.7864 43.4886L12.8635 43.4913L12.9021 43.4926H12.9406C12.9664 43.4924 12.9922 43.4927 13.0179 43.4924C13.0694 43.49 13.121 43.4897 13.1725 43.4849C13.1983 43.4828 13.224 43.4814 13.2498 43.479L13.3269 43.4703C13.3527 43.4679 13.3783 43.4641 13.4039 43.4602L13.4808 43.4489L13.5573 43.4348L13.5956 43.4278L13.6336 43.4193L13.7098 43.4025C13.7351 43.3964 13.7602 43.3895 13.7853 43.3831C13.8359 43.371 13.8855 43.355 13.9356 43.3406C14.135 43.2794 14.3287 43.1991 14.5159 43.105C14.5633 43.0825 14.6086 43.0559 14.655 43.0314C14.7009 43.0061 14.7457 42.9786 14.7912 42.9524C14.8355 42.924 14.8803 42.8965 14.9241 42.8674L14.9893 42.8229C15.011 42.8082 15.0328 42.7933 15.0539 42.7775C15.3959 42.5309 15.7023 42.2325 15.9679 41.8995C16.1009 41.7329 16.2239 41.5579 16.3372 41.3759C16.4508 41.1942 16.5547 41.0058 16.6483 40.8117C16.7422 40.618 16.8273 40.4192 16.9044 40.217C16.9801 40.0141 17.0476 39.8078 17.1085 39.5992C17.1677 39.39 17.2198 39.1785 17.2651 38.965C17.2766 38.9118 17.2862 38.858 17.2969 38.8044L17.3126 38.7241L17.3157 38.7087L17.319 38.6879L17.3224 38.6671C17.3235 38.6604 17.3249 38.6525 17.3253 38.6481L17.3291 38.6167C17.3307 38.6068 17.3312 38.5938 17.3325 38.5826C17.335 38.5594 17.3357 38.5359 17.3371 38.5125C17.3382 38.4657 17.3384 38.4188 17.3352 38.3719C17.329 38.2781 17.3141 38.1847 17.2893 38.0936C17.2774 38.048 17.2625 38.0031 17.2461 37.9589L17.2333 37.9256L17.2176 37.8866L17.1862 37.8085L16.9347 37.1843L14.9227 32.1906L14.9225 32.1905C14.8835 32.0945 14.9033 31.9892 14.9654 31.9148L14.9723 31.9066L14.9918 31.8833L15.0134 31.8567C15.028 31.8388 15.0425 31.8204 15.0573 31.8017C15.0867 31.7648 15.1153 31.726 15.1443 31.6879C15.2013 31.6103 15.2579 31.5319 15.3128 31.4519C15.4232 31.2922 15.5275 31.127 15.6285 30.9598L15.7037 30.8341L15.7765 30.7065C15.8008 30.6641 15.8252 30.6216 15.848 30.5784L15.9183 30.4492C15.9421 30.4065 15.9637 30.3623 15.9865 30.319L16.0538 30.1883L16.1831 29.9238L16.306 29.6561L16.4226 29.3853C16.4606 29.2946 16.4961 29.2029 16.5332 29.1119L16.5606 29.0434L16.5862 28.9742L16.6375 28.8358L16.6633 28.7667C16.6719 28.7437 16.6806 28.7206 16.6883 28.6973L16.7361 28.5576L16.7841 28.4179C16.8006 28.3715 16.8139 28.324 16.8291 28.2771L16.8732 28.1359L16.8955 28.0654L16.9065 28.0302L16.9166 27.9947L16.9972 27.71C17.0113 27.6626 17.023 27.6148 17.035 27.5669L17.0715 27.4234L17.1081 27.2799C17.1197 27.2319 17.1299 27.1836 17.1408 27.1354L17.2051 26.8461L17.2617 26.555C17.2709 26.5064 17.2814 26.4581 17.2893 26.4093L17.3131 26.2629L17.3369 26.1163C17.3446 26.0675 17.3539 26.0187 17.3605 25.9697L17.4003 25.6753C17.407 25.6262 17.4142 25.5772 17.4205 25.5281L17.4363 25.3802L17.4693 25.0844C17.4789 24.9856 17.4862 24.8866 17.4949 24.7877C17.5147 24.5898 17.5238 24.3912 17.5366 24.1925C17.5395 24.1427 17.5437 24.0931 17.5456 24.0433L17.5509 23.894L17.5627 23.5948C17.5686 23.3953 17.5694 23.1954 17.5765 22.9946L17.5766 22.9917C17.5781 22.9482 17.6147 22.9141 17.6583 22.9157C17.6975 22.917 17.729 22.9469 17.7338 22.9845C17.7466 23.0847 17.7587 23.1852 17.7699 23.2858L17.7871 23.4367C17.7925 23.4871 17.7984 23.5374 17.8016 23.5879L17.8229 23.8912L17.833 24.043C17.8359 24.0936 17.8365 24.1443 17.8384 24.195L17.8467 24.4994L17.8485 24.5755C17.8488 24.601 17.8482 24.6263 17.848 24.6517L17.8466 24.804C17.845 24.9056 17.8445 25.0072 17.8418 25.1089L17.8267 25.4135L17.8186 25.566C17.8149 25.6167 17.8101 25.6675 17.8059 25.7182L17.7791 26.0225C17.7685 26.1238 17.7551 26.2248 17.7427 26.3259L17.7239 26.4776C17.7176 26.5282 17.7087 26.5784 17.7013 26.6288L17.6544 26.9312C17.6363 27.0315 17.617 27.1317 17.5982 27.2322C17.5886 27.2823 17.5798 27.3327 17.5694 27.3826L17.5366 27.5322L17.5038 27.6818C17.4928 27.7318 17.4822 27.7817 17.4691 27.8311L17.3942 28.1284L17.3848 28.1656L17.3744 28.2025L17.3536 28.2763L17.3117 28.4238C17.2973 28.4729 17.2846 28.5225 17.2688 28.5712L17.2227 28.7176L17.1766 28.864C17.1616 28.913 17.1437 28.961 17.1273 29.0095L17.0769 29.1546L17.0518 29.2272L17.0249 29.2992C16.9884 29.3949 16.9536 29.4914 16.9155 29.5865L16.7988 29.8711L16.6747 30.1527C16.6308 30.2455 16.5876 30.3387 16.5431 30.4313L16.474 30.5691C16.4506 30.6148 16.4286 30.6613 16.4039 30.7064C16.3553 30.7969 16.3086 30.8886 16.257 30.9778L16.1812 31.1123L16.1023 31.2453L16.0628 31.3117L16.0218 31.3773C15.9943 31.421 15.9676 31.4651 15.9394 31.5084L15.8543 31.638C15.8255 31.681 15.7959 31.7236 15.7666 31.7663C15.7076 31.8516 15.6464 31.9359 15.5832 32.0191C15.5509 32.0605 15.5195 32.1022 15.4858 32.1434C15.4693 32.1641 15.4525 32.1847 15.4349 32.2055L15.4083 32.2369L15.3787 32.2706L15.4283 31.9869L15.4285 31.9871L17.4405 36.9807L17.692 37.6049L17.7234 37.683L17.7391 37.7221L17.7565 37.7674C17.7794 37.8282 17.7995 37.8899 17.816 37.9528C17.8501 38.0783 17.8709 38.2074 17.8794 38.3375C17.8839 38.4026 17.884 38.4679 17.8821 38.5332C17.8803 38.5658 17.8791 38.5985 17.8757 38.6309C17.8741 38.6476 17.8731 38.6626 17.8707 38.6805L17.864 38.7327C17.8629 38.7421 17.8618 38.7482 17.8607 38.7553L17.8573 38.7761L17.8539 38.7969L17.8512 38.8122L17.8491 38.8228L17.8327 38.9076C17.8215 38.9641 17.8112 39.0207 17.7991 39.0771C17.7512 39.3025 17.6959 39.5268 17.633 39.7493C17.5683 39.9714 17.4963 40.1917 17.415 40.4093C17.3323 40.6263 17.2408 40.8404 17.139 41.0503C17.0376 41.2603 16.9246 41.4654 16.8004 41.6641C16.6764 41.863 16.5412 42.0555 16.3943 42.2397C16.1007 42.6077 15.7589 42.9417 15.3726 43.2201C15.349 43.238 15.3243 43.2546 15.2997 43.2714L15.2259 43.3218C15.1763 43.3548 15.1256 43.3862 15.0752 43.418C15.0237 43.4479 14.9728 43.4791 14.9205 43.5079C14.8678 43.5359 14.8161 43.5659 14.7622 43.5918C14.5487 43.6991 14.3267 43.7913 14.0969 43.8617C14.0393 43.8787 13.982 43.8968 13.9234 43.911C13.8943 43.9184 13.8653 43.9264 13.8361 43.9332L13.7479 43.9528L13.7037 43.9624L13.6592 43.9705L13.5703 43.9868L13.4808 44.0001C13.4511 44.0046 13.4211 44.0089 13.3911 44.012L13.301 44.0219C13.2709 44.0246 13.2407 44.0265 13.2106 44.0289C13.1504 44.0344 13.0896 44.035 13.0291 44.0376C12.9989 44.038 12.9685 44.0377 12.9381 44.0379H12.8926L12.847 44.0364L12.756 44.0331L12.6649 44.0264C12.6497 44.0251 12.6345 44.0243 12.6195 44.0227L12.574 44.0176C12.5438 44.014 12.5134 44.0112 12.4833 44.0068C12.423 43.9977 12.3625 43.9894 12.3025 43.9769C12.2423 43.9664 12.1828 43.9515 12.1231 43.9376C12.0934 43.93 12.0639 43.9214 12.0343 43.9134L11.99 43.9009L11.946 43.8868C11.8284 43.8507 11.7132 43.8054 11.6005 43.754C11.4876 43.7033 11.3783 43.6431 11.2728 43.5767C11.2468 43.5596 11.2199 43.5438 11.1944 43.5255L11.1178 43.4715C11.0925 43.4531 11.0682 43.4332 11.0432 43.4142C11.0183 43.3953 10.9944 43.375 10.9706 43.3543C10.9221 43.3143 10.8771 43.2703 10.8314 43.2271L10.7622 43.1551L10.7451 43.137C10.7395 43.1311 10.7357 43.1263 10.7309 43.1209L10.7034 43.0892L10.6758 43.0575L10.6723 43.0535C10.6624 43.0418 10.6675 43.0477 10.6643 43.0439L10.6571 43.0348L10.6427 43.0165C10.6237 42.9921 10.604 42.9682 10.5854 42.9433L10.5307 42.8676C10.5125 42.8423 10.496 42.8157 10.4785 42.7898C10.4107 42.6848 10.3494 42.5749 10.2969 42.4603C10.1926 42.2309 10.1233 41.9845 10.0926 41.7353C10.0614 41.486 10.0687 41.2353 10.1031 40.9926C10.1377 40.7497 10.1995 40.5141 10.2793 40.2882C10.3593 40.0621 10.4574 39.8451 10.5681 39.6366C10.679 39.4281 10.8021 39.2278 10.9357 39.0353C11.0024 38.939 11.0719 38.8446 11.144 38.7519C11.1802 38.7055 11.217 38.6597 11.2549 38.6141C11.274 38.5914 11.293 38.5687 11.3127 38.546L11.3426 38.5117L11.3581 38.4945L11.3756 38.4753L11.3168 38.75L9.31221 32.9094L9.83833 32.7705L10.7971 37.8691L10.7976 37.8718C10.8024 37.8974 10.803 37.924 10.8003 37.9487C10.7848 38.0803 10.7661 38.2119 10.739 38.3418C10.7117 38.4716 10.6806 38.6009 10.6408 38.7274L10.6264 38.7751L10.6105 38.8223C10.5998 38.8537 10.5897 38.8854 10.5784 38.9164C10.5552 38.9785 10.5326 39.0409 10.5067 39.1019C10.4824 39.1636 10.4541 39.2235 10.4272 39.2839C10.3981 39.3435 10.37 39.4035 10.3384 39.4617C10.3083 39.5208 10.275 39.5779 10.2424 39.6355C10.208 39.692 10.1747 39.7493 10.138 39.8041C10.1027 39.86 10.0646 39.9141 10.0268 39.9683C10.0076 39.9952 9.98778 40.0216 9.96826 40.0482C9.9489 40.0749 9.92858 40.101 9.9081 40.1269C9.86793 40.1794 9.82537 40.2298 9.78313 40.2803C9.7396 40.3299 9.69672 40.38 9.65112 40.4277C9.60663 40.4764 9.55991 40.5229 9.51351 40.5696C9.46598 40.6152 9.41894 40.6615 9.3695 40.705C9.32101 40.7497 9.27045 40.7919 9.22037 40.8348C9.169 40.8761 9.11828 40.9181 9.06547 40.9573C9.01347 40.9978 8.95939 41.0356 8.90594 41.0738C8.85138 41.111 8.79714 41.1481 8.74113 41.183C8.51872 41.3246 8.2835 41.4463 8.039 41.5475C7.91659 41.5976 7.79178 41.6424 7.66505 41.6817C7.53817 41.7204 7.40904 41.7531 7.27847 41.7796C7.1479 41.8065 7.01557 41.8259 6.88212 41.8384C6.74867 41.8507 6.61442 41.8569 6.47953 41.8541C6.21023 41.8478 5.93901 41.8125 5.67643 41.7376C5.54522 41.7006 5.41593 41.6547 5.29048 41.6001L5.1972 41.5572C5.16632 41.5424 5.13607 41.5264 5.10551 41.5108C5.07479 41.4958 5.04551 41.4779 5.01542 41.4612L4.97062 41.4356L4.92486 41.4071C4.69684 41.2654 4.48035 41.0884 4.29761 40.8725C4.1152 40.6573 3.97119 40.3978 3.89454 40.1191C3.85614 39.98 3.83326 39.8374 3.82462 39.6957C3.8155 39.5537 3.82238 39.4129 3.83886 39.2752C3.8555 39.1372 3.88302 39.0025 3.91903 38.8716C3.95503 38.7407 3.99823 38.613 4.04831 38.4893C4.14816 38.2416 4.27089 38.0079 4.40882 37.7856C4.47779 37.6744 4.55091 37.5662 4.62772 37.4605C4.66612 37.4077 4.70564 37.3553 4.74629 37.3036C4.76661 37.2777 4.78725 37.2521 4.80853 37.2264L4.84085 37.1876L4.85765 37.1681L4.87669 37.1465L4.81429 37.3937C4.72724 37.023 4.64388 36.651 4.58035 36.2753C4.54499 36.088 4.51843 35.8994 4.48963 35.7111L4.47907 35.6403L4.46995 35.5694L4.45186 35.4277L4.43378 35.2859L4.42466 35.215L4.4173 35.144L4.38802 34.8598L4.38066 34.7887L4.37506 34.7175L4.36386 34.5751L4.35266 34.4327L4.34722 34.3615L4.34338 34.2902L4.32786 34.0048C4.31217 33.6243 4.30289 33.2432 4.31153 32.8624L4.31361 32.7195C4.31473 32.672 4.31697 32.6243 4.31857 32.5767L4.3293 32.2913C4.34098 32.1012 4.34946 31.9109 4.36642 31.7213L4.37778 31.5789L4.38354 31.5077L4.39058 31.4367L4.41938 31.1525C4.4293 31.0578 4.44226 30.9635 4.45346 30.8689L4.47106 30.7273L4.49123 30.586C4.54307 30.2089 4.60868 29.834 4.68372 29.461C4.75765 29.0879 4.84565 28.7176 4.94166 28.3499C4.98886 28.1657 5.04167 27.9831 5.09351 27.8004L5.1756 27.5276C5.18904 27.482 5.20344 27.4367 5.218 27.3916L5.26136 27.2559C5.37785 26.8944 5.50362 26.536 5.63883 26.1812C5.77436 25.8267 5.91917 25.4759 6.07182 25.1287L6.12942 24.9986L6.18847 24.8693C6.22815 24.7832 6.26719 24.6968 6.30816 24.6114C6.3888 24.4398 6.47297 24.2701 6.55826 24.1008C6.90084 23.4247 7.27927 22.7674 7.69242 22.1334C7.89995 21.8171 8.11533 21.5059 8.34142 21.2027C8.45471 21.0511 8.57024 20.9015 8.68897 20.7541C8.74865 20.6807 8.8085 20.6074 8.8701 20.5354C8.93187 20.4632 8.99299 20.3917 9.05875 20.3208C9.09524 20.2815 9.15668 20.2791 9.19604 20.3155C9.23237 20.3491 9.23717 20.4039 9.20933 20.4431V20.4455Z" fill="#2B1E59"/>
<path d="M5.75522 28.7626L11.1503 30.0985C11.7888 30.2568 12.4411 29.8638 12.5997 29.2244L13.3105 26.3533C13.4491 25.7936 13.1647 25.2243 12.6626 24.985C12.5917 24.9506 12.5159 24.9239 12.4363 24.9041L7.04203 23.5683C6.40279 23.4099 5.75026 23.8029 5.59265 24.4424L5.02909 26.7162L4.88092 27.3132C4.72266 27.9525 5.11677 28.6042 5.75522 28.7626Z" fill="white"/>
<g opacity="0.35">
<path d="M5.75522 28.7626L11.1503 30.0985C11.7888 30.2568 12.4411 29.8638 12.5997 29.2244L13.3105 26.3533C13.4491 25.7936 13.1647 25.2243 12.6626 24.985C12.3059 25.1126 12.079 25.1947 12.079 25.1947C11.2457 27.4342 10.9239 29.1677 7.40686 28.0453C6.19429 27.6582 5.45824 27.0914 5.02909 26.7162L4.88092 27.3132C4.72266 27.9525 5.11677 28.6042 5.75522 28.7626Z" fill="#2B1E59"/>
</g>
<path d="M11.436 30.4017C11.3182 30.4017 11.2003 30.3873 11.0854 30.3588L5.6908 29.0229C5.31221 28.9291 4.99219 28.6926 4.78978 28.3566C4.5872 28.0207 4.52736 27.6273 4.62112 27.2487L5.33221 24.3773C5.4111 24.0585 5.59847 23.7723 5.85961 23.5711C6.11627 23.3735 6.43453 23.2647 6.75584 23.2647C6.87361 23.2647 6.99153 23.2791 7.10642 23.3076L12.501 24.6435C12.8796 24.7373 13.1997 24.9738 13.4021 25.3098C13.6046 25.6457 13.6645 26.0391 13.5707 26.4177L12.8596 29.2891C12.7807 29.6079 12.5934 29.8941 12.3322 30.0953C12.0756 30.2929 11.7573 30.4017 11.436 30.4017ZM6.75568 23.8009C6.32685 23.8009 5.95546 24.091 5.85257 24.5062L5.14148 27.3776C5.08212 27.6172 5.12036 27.8665 5.24885 28.0798C5.3775 28.2931 5.58023 28.4432 5.81961 28.5024L11.2142 29.8383C11.287 29.8564 11.3616 29.8655 11.4359 29.8655C11.8647 29.8655 12.2361 29.5754 12.339 29.1602L13.05 26.2888C13.1094 26.0492 13.0712 25.7999 12.9427 25.5866C12.814 25.3733 12.6113 25.2232 12.3719 25.164L6.97729 23.8281C6.90449 23.81 6.82992 23.8009 6.75568 23.8009Z" fill="#2B1E59"/>
<path d="M5.54395 28.6877C5.61019 28.7195 5.68043 28.7445 5.75516 28.7626L11.1503 30.0985C11.6183 30.2142 12.0934 30.0346 12.3763 29.6775C12.4793 29.5479 12.5569 29.3949 12.5989 29.2242L12.9152 27.9489L13.0195 27.5281L13.3104 26.3533C13.4688 25.714 13.0749 25.0623 12.4363 24.9039L11.2704 24.6155C11.7826 24.85 12.0747 25.4249 11.935 25.9904L11.5514 27.5414L11.224 28.8622C11.0658 29.5007 10.4133 29.8946 9.77465 29.7364L5.54395 28.6877Z" fill="white"/>
<g opacity="0.35">
<path d="M5.54395 28.6877C5.61019 28.7195 5.68043 28.7445 5.75516 28.7626L11.1503 30.0985C11.7887 30.2568 12.4411 29.8638 12.5989 29.2242L13.0195 27.5281C12.8096 27.7942 12.4747 28.1017 12.0751 28.0438C11.8558 28.0124 11.6833 27.8063 11.5514 27.5414L11.224 28.8623C11.0658 29.5007 10.4133 29.8946 9.77465 29.7364L5.54395 28.6877Z" fill="#371A45"/>
</g>
<path d="M11.4362 30.4019C11.3184 30.4019 11.2005 30.3875 11.0856 30.359L5.69067 29.0228C5.60171 29.0013 5.51338 28.9701 5.42922 28.9304C5.30457 28.8717 5.24472 28.728 5.29097 28.5981C5.33721 28.4682 5.47418 28.3945 5.60795 28.4277L9.83929 29.4759C9.9121 29.494 9.9865 29.5031 10.0607 29.5031C10.4896 29.5031 10.8608 29.213 10.9634 28.7978L11.6745 25.9262C11.7815 25.4937 11.5649 25.0449 11.1591 24.8589C11.0333 24.8013 10.972 24.6575 11.0178 24.5267C11.0634 24.3962 11.2008 24.3218 11.3352 24.3549L12.5006 24.6432C12.8794 24.7373 13.1994 24.974 13.4018 25.3097C13.6044 25.6457 13.6642 26.0392 13.5703 26.4176L12.8593 29.2889C12.7806 29.6074 12.5934 29.8939 12.3321 30.0951C12.0756 30.2929 11.7574 30.4019 11.4362 30.4019ZM10.9146 29.7641L11.2148 29.8385C11.2876 29.8566 11.362 29.8657 11.4362 29.8657C11.8583 29.8657 12.2379 29.569 12.3388 29.1604L13.0499 26.2888C13.1094 26.0493 13.0714 25.8 12.9427 25.5868C12.8141 25.3735 12.6113 25.2234 12.3716 25.1639L12.1065 25.0983C12.2391 25.3902 12.2766 25.7257 12.195 26.0553L11.4839 28.9266C11.4052 29.2452 11.218 29.5316 10.9568 29.7329C10.9429 29.7434 10.9288 29.754 10.9146 29.7641Z" fill="#2B1E59"/>
<path d="M8.90981 26.8416C8.88629 26.9434 8.83893 27.7977 8.83893 27.7977C8.83893 27.7977 9.09911 27.858 9.41849 27.9319C9.81756 28.0244 10.2368 27.6862 10.3549 27.1765C10.473 26.6669 10.2453 26.1787 9.8462 26.0862C9.5769 26.0238 9.26664 25.952 9.26664 25.952C9.26664 25.952 8.94822 26.6759 8.90981 26.8416Z" fill="#22A7F0"/>
<path d="M9.55177 27.9872C9.50393 27.9872 9.45592 27.9817 9.40936 27.9709L8.797 27.8289L8.79892 27.7953C8.80084 27.7603 8.8466 26.9364 8.87076 26.8325C8.90948 26.6652 9.21687 25.9654 9.22999 25.9357L9.24327 25.9053L9.85515 26.047C10.275 26.1443 10.5166 26.6549 10.3938 27.1854C10.2862 27.65 9.93212 27.9872 9.55177 27.9872ZM8.88084 27.7662L9.4276 27.8929C9.46825 27.9024 9.51001 27.9072 9.55177 27.9072C9.89516 27.9072 10.2166 27.5961 10.316 27.1674C10.429 26.68 10.2141 26.2125 9.83723 26.1251L9.28999 25.9984C9.22951 26.1371 8.98149 26.7095 8.94885 26.8506C8.93093 26.9277 8.89524 27.5084 8.88084 27.7662Z" fill="#2B1E59"/>
<g opacity="0.35">
<path d="M8.90981 26.8416C8.88629 26.9434 8.83893 27.7977 8.83893 27.7977C8.83893 27.7977 9.09911 27.858 9.41849 27.9319C9.81756 28.0244 10.2368 27.6862 10.3549 27.1765C10.473 26.6669 10.2453 26.1787 9.8462 26.0862C9.5769 26.0238 9.26664 25.952 9.26664 25.952C9.26664 25.952 8.94822 26.6759 8.90981 26.8416Z" fill="#2B1E59"/>
</g>
<path d="M9.55174 28.1249C9.49333 28.1249 9.43509 28.1182 9.37828 28.1051L8.79872 27.9708C8.71455 27.9513 8.65663 27.874 8.66127 27.7878C8.67567 27.5263 8.712 26.9068 8.73648 26.8015C8.77664 26.6283 9.04946 26.0038 9.10386 25.8803C9.13827 25.802 9.22339 25.7593 9.30676 25.7787L9.88632 25.9129C10.3803 26.0273 10.6681 26.6122 10.5281 27.2165C10.406 27.7428 9.99545 28.1249 9.55174 28.1249ZM9.02498 27.6582L9.45861 27.7587C9.48901 27.7657 9.52037 27.7692 9.55174 27.7692C9.82727 27.7692 10.098 27.497 10.1817 27.1362C10.2775 26.7229 10.1089 26.3294 9.80599 26.2594L9.3706 26.1584C9.25267 26.4319 9.1045 26.7892 9.08306 26.8816C9.07154 26.9383 9.0461 27.2978 9.02498 27.6582Z" fill="#2B1E59"/>
<path d="M9.77486 27.0406C9.89294 26.531 9.66518 26.0428 9.26614 25.9504C8.86711 25.8579 8.4479 26.1962 8.32983 26.7058C8.21175 27.2155 8.43951 27.7036 8.83854 27.7961C9.23758 27.8885 9.65678 27.5503 9.77486 27.0406Z" fill="#22A7F0"/>
<path d="M8.97216 27.8527C8.92431 27.8527 8.87631 27.8473 8.8299 27.8364C8.41003 27.7391 8.16842 27.2285 8.29131 26.6981C8.39899 26.2336 8.7531 25.8964 9.13345 25.8964C9.18129 25.8964 9.22913 25.9019 9.2757 25.9127C9.48099 25.9603 9.6498 26.1062 9.75125 26.3235C9.8511 26.5374 9.8735 26.7958 9.81446 27.0511C9.70661 27.5156 9.3525 27.8527 8.97216 27.8527ZM9.13329 25.9766C8.78974 25.9766 8.46844 26.2877 8.36907 26.7163C8.2561 27.2037 8.471 27.6713 8.84783 27.7586C8.88847 27.7681 8.93023 27.7729 8.97199 27.7729C9.31538 27.7729 9.63684 27.4618 9.73621 27.0331C9.79125 26.7954 9.77077 26.5554 9.67845 26.3574C9.58772 26.1628 9.43811 26.0326 9.25745 25.9908C9.21697 25.9814 9.17505 25.9766 9.13329 25.9766Z" fill="#2B1E59"/>
<g opacity="0.35">
<path d="M9.7753 27.0423C9.65753 27.5517 9.23814 27.8902 8.83907 27.7978C8.43953 27.7054 8.21183 27.217 8.3304 26.707C8.34608 26.6382 8.368 26.5722 8.39456 26.5101C8.41617 26.8839 8.62258 27.1946 8.93268 27.266C9.27735 27.3458 9.63737 27.1047 9.80458 26.708C9.81083 26.8157 9.80122 26.9283 9.7753 27.0423Z" fill="#2B1E59"/>
</g>
<path d="M9.77529 27.0423C9.76745 27.077 9.75785 27.1108 9.74665 27.1438C9.75993 26.7261 9.54472 26.3651 9.20757 26.2872C8.83571 26.2015 8.44576 26.4892 8.29999 26.9418C8.30207 26.8645 8.31231 26.7863 8.33039 26.7071C8.44816 26.1976 8.86755 25.8592 9.26662 25.9515C9.66537 26.0446 9.89322 26.5324 9.77529 27.0423Z" fill="white"/>
<path d="M8.97224 27.9905C8.91384 27.9905 8.85559 27.9838 8.79879 27.9707C8.30483 27.8563 8.01697 27.2714 8.15698 26.6671C8.27891 26.1408 8.6895 25.7587 9.13337 25.7587C9.19162 25.7587 9.25002 25.7654 9.30682 25.7785C9.5542 25.8358 9.75646 26.0086 9.87615 26.2653C9.98895 26.507 10.0147 26.7971 9.94863 27.0821C9.82654 27.6086 9.41595 27.9905 8.97224 27.9905ZM9.13337 26.1144C8.85783 26.1144 8.58709 26.3866 8.50341 26.7474C8.40756 27.1607 8.57621 27.5542 8.87911 27.6244C8.90952 27.6314 8.94088 27.635 8.97224 27.635C9.24778 27.635 9.51852 27.3628 9.60221 27.002C9.65037 26.7939 9.63325 26.5858 9.55388 26.4157C9.4814 26.2603 9.36523 26.1571 9.22666 26.1251C9.1961 26.1181 9.16473 26.1144 9.13337 26.1144Z" fill="#2B1E59"/>
<path d="M7.0121 29.17C6.99977 29.17 6.98745 29.1687 6.97481 29.166C6.8788 29.1455 6.81752 29.0511 6.838 28.9551L7.22603 27.1325L6.54118 26.4347C6.49846 26.3912 6.48102 26.329 6.49494 26.2696L7.0777 23.78C7.1001 23.6843 7.19579 23.6251 7.29131 23.6473C7.38684 23.6697 7.44621 23.7654 7.42397 23.8609L6.86344 26.2552L7.54669 26.9514C7.58846 26.994 7.60606 27.0546 7.59374 27.113L7.18571 29.0288C7.16811 29.1128 7.09434 29.17 7.0121 29.17Z" fill="#2B1E59"/>
<path d="M15.8363 28.8017C13.8673 28.8459 12.6898 28.3075 12.629 28.279C12.2959 28.1228 12.1523 27.7261 12.3085 27.3928C12.4642 27.0607 12.8589 26.9171 13.1914 27.0709C13.2207 27.084 14.7469 27.7524 17.2143 27.3317C17.577 27.2695 17.9212 27.5136 17.9831 27.8764C18.0449 28.2391 17.8012 28.5833 17.4383 28.6451C16.8594 28.7443 16.3235 28.7909 15.8363 28.8017Z" fill="white"/>
<g opacity="0.35">
<path d="M17.9679 27.8212C17.87 27.9372 17.7346 28.0225 17.5732 28.05C16.9941 28.1487 16.4581 28.1955 15.971 28.2064C14.002 28.2505 12.8245 27.7121 12.7637 27.6836C12.5771 27.5961 12.453 27.4324 12.4048 27.2476C12.3679 27.2914 12.3341 27.3386 12.3086 27.393C12.1525 27.7262 12.2958 28.1228 12.6291 28.2792C12.69 28.3076 13.8673 28.8459 15.8364 28.8019C16.3235 28.791 16.8595 28.7443 17.4386 28.6456C17.8014 28.5837 18.0452 28.2395 17.9835 27.8769C17.9799 27.8574 17.9729 27.8399 17.9679 27.8212Z" fill="#371A45"/>
</g>
<path d="M15.6079 29.0771C13.7441 29.0771 12.6339 28.5825 12.5134 28.526C12.0446 28.3062 11.842 27.746 12.0617 27.2771C12.2156 26.9488 12.5496 26.7365 12.9123 26.7365C13.0482 26.7365 13.1799 26.7654 13.3039 26.8224C13.3301 26.8337 14.1843 27.1979 15.6153 27.1979C16.1207 27.1979 16.6433 27.1525 17.1686 27.063C17.221 27.0541 17.2747 27.0494 17.3279 27.0494C17.7861 27.0494 18.175 27.3779 18.2522 27.8306C18.3393 28.341 17.9948 28.8272 17.4845 28.9142C16.932 29.0085 16.3796 29.0624 15.8426 29.0744C15.7644 29.0761 15.6853 29.0771 15.6079 29.0771ZM12.9123 27.2821C12.7602 27.2821 12.6202 27.3711 12.5557 27.5087C12.4637 27.7052 12.5485 27.9399 12.745 28.0321C12.7883 28.0524 13.8321 28.5315 15.6079 28.5315C15.6815 28.5315 15.7562 28.5307 15.8303 28.5289C16.3407 28.5175 16.8664 28.4662 17.3928 28.3764C17.6068 28.3399 17.7511 28.1362 17.7146 27.9223C17.6823 27.7327 17.5195 27.5949 17.3279 27.5949C17.3056 27.5949 17.283 27.5968 17.2606 27.6007C16.7049 27.6954 16.1514 27.7434 15.6153 27.7434C14.0412 27.7434 13.1183 27.3371 13.0799 27.3199C13.0789 27.3194 13.0779 27.3191 13.077 27.3186C13.0247 27.2944 12.9693 27.2821 12.9123 27.2821Z" fill="#2B1E59"/>
<path d="M17.8144 20.647C17.8144 20.647 19.7723 23.2247 20.1981 26.5231C20.6239 29.8214 19.7755 35.1539 17.2209 35.0002C14.6662 34.8462 15.1776 32.1428 15.1776 32.1428C15.1776 32.1428 14.1895 32.4113 13.8525 31.5391C13.5155 30.6669 14.8987 29.114 14.8987 29.114C15.2889 25.3311 14.7508 22.5103 14.7508 22.5103C14.7508 22.5103 14.5263 21.3233 14.5099 21.1785C14.4934 21.0337 14.4015 19.8768 14.4015 19.8768L17.8144 20.647Z" fill="white"/>
<g opacity="0.35">
<path d="M9.25415 18.8719C9.25415 18.8719 12.2286 21.8453 18.0877 21.0631C18.0877 21.0631 20.1013 23.7597 20.2748 27.7734C20.4481 31.7871 19.0315 36.1354 16.2332 34.7128C16.2332 34.7128 15.2707 34.3399 15.1392 33.1816C15.1392 33.1816 16.4657 34.7817 17.9194 34.1047C19.2593 33.4807 20.3753 27.3302 18.8067 23.6589C18.3716 22.6407 17.3347 22.0205 16.2289 22.0762C14.1679 22.1797 10.4592 21.9138 9.25415 18.8719Z" fill="#2B1E59"/>
</g>
<path d="M15.1692 25.9516L14.8977 25.4785C14.9204 25.4654 15.4656 25.1549 16.3564 24.905C17.1758 24.6751 18.4583 24.4549 19.9139 24.7117L19.8192 25.2489C18.472 25.0111 17.2822 25.2137 16.521 25.4254C15.6906 25.6564 15.1744 25.9487 15.1692 25.9516Z" fill="#2B1E59"/>
<path d="M14.8153 22.4983C14.852 22.6332 14.8835 22.7692 14.9126 22.9052L14.9342 23.0073L14.9545 23.1095C14.968 23.1777 14.9816 23.246 14.9933 23.3145C15.0171 23.4515 15.0421 23.5884 15.0618 23.726L15.0925 23.9325C15.1026 24.0013 15.1106 24.0702 15.1195 24.1392L15.1454 24.3463C15.1539 24.4154 15.1603 24.4845 15.1678 24.5536C15.1811 24.692 15.1976 24.8304 15.207 24.9692C15.2178 25.1079 15.2291 25.2466 15.2382 25.3854L15.2608 25.8022L15.2663 25.9065L15.2696 26.0108L15.2757 26.2195C15.2794 26.3587 15.2845 26.4979 15.284 26.6371C15.285 26.7763 15.2858 26.9157 15.2855 27.0549V27.1072L15.2843 27.1594L15.2819 27.2639L15.2773 27.4729C15.2738 27.6121 15.2715 27.7516 15.2629 27.8907C15.2559 28.0299 15.2485 28.1691 15.2402 28.3081C15.2338 28.4473 15.22 28.5862 15.208 28.7251C15.196 28.864 15.1832 29.0029 15.1698 29.1416L15.1696 29.1436C15.1638 29.2023 15.1392 29.2546 15.1022 29.2949L15.0621 29.3415L15.0206 29.3909C14.9931 29.4242 14.9657 29.458 14.9387 29.4921C14.8845 29.5602 14.8317 29.6295 14.78 29.6996C14.6768 29.8399 14.579 29.9835 14.4889 30.13C14.3991 30.2766 14.3166 30.4262 14.2479 30.5777C14.2134 30.6534 14.1825 30.7296 14.1564 30.8056C14.13 30.8814 14.1089 30.9571 14.0942 31.0312C14.087 31.0682 14.081 31.1047 14.0777 31.1402C14.0737 31.1759 14.0722 31.2106 14.0727 31.244C14.0735 31.3109 14.0831 31.3722 14.1018 31.4253L14.1054 31.4352L14.107 31.4402C14.1078 31.4423 14.1004 31.424 14.1038 31.4322L14.1042 31.4332L14.105 31.4351L14.1066 31.4389L14.1199 31.4701L14.1332 31.5013L14.1366 31.5092C14.1375 31.5114 14.1383 31.5125 14.1393 31.5143L14.1446 31.5237L14.1547 31.5429C14.158 31.5495 14.1606 31.5556 14.1655 31.5629L14.1916 31.6055C14.2281 31.6602 14.2705 31.7073 14.3187 31.7471C14.3668 31.7871 14.4214 31.8193 14.4819 31.8441C14.5424 31.869 14.6086 31.8865 14.6785 31.8972C14.7486 31.9071 14.8222 31.9106 14.8966 31.907C14.9337 31.9054 14.9712 31.9018 15.0078 31.8969C15.0262 31.8945 15.0443 31.8914 15.0621 31.8884L15.0877 31.8833L15.0994 31.8807L15.1045 31.8796C15.1058 31.8793 15.1082 31.8786 15.1062 31.8793L15.4458 32.1932L15.441 32.2228L15.436 32.2574C15.4328 32.2807 15.4299 32.3046 15.4274 32.3286C15.4223 32.3766 15.4181 32.4252 15.4152 32.474C15.4091 32.5715 15.4075 32.6696 15.4098 32.7672C15.4151 32.9622 15.4367 33.1557 15.4794 33.3411C15.5219 33.5264 15.5852 33.7039 15.6728 33.8637C15.7602 34.0239 15.8713 34.1665 16.005 34.2846C16.2721 34.522 16.63 34.655 17.0112 34.7057C17.0349 34.7094 17.0592 34.7113 17.083 34.7144C17.107 34.7171 17.131 34.7201 17.1553 34.7216L17.2282 34.7272L17.2373 34.7278C17.2208 34.727 17.2355 34.7276 17.2331 34.7275L17.2381 34.7276L17.2579 34.7281L17.2974 34.7292L17.337 34.7304L17.3469 34.7307L17.3544 34.7302L17.3694 34.7294C17.3896 34.7283 17.4096 34.7275 17.4298 34.7268C17.4507 34.7254 17.4734 34.7222 17.4951 34.72L17.528 34.7164C17.5389 34.7147 17.5496 34.7126 17.5605 34.7107L17.6255 34.699L17.6895 34.6828C17.7111 34.6784 17.7319 34.6708 17.7528 34.664L17.7843 34.6539C17.7949 34.6507 17.8053 34.6472 17.8156 34.6427L17.8773 34.618C17.898 34.61 17.9176 34.5991 17.938 34.59C17.9788 34.5723 18.0173 34.5481 18.057 34.527C18.2116 34.4329 18.3569 34.3146 18.4865 34.1746C18.6167 34.0354 18.7353 33.8802 18.8407 33.7132C19.0526 33.3794 19.2208 33.0088 19.36 32.6257C19.4989 32.242 19.6088 31.8447 19.6984 31.4418C19.7882 31.0387 19.8565 30.6297 19.9082 30.218C19.96 29.8065 19.9947 29.3921 20.0133 28.9771C20.0322 28.5622 20.0352 28.1464 20.0204 27.7319C20.013 27.5247 20.0013 27.3178 19.9847 27.1117C19.9805 27.0602 19.9763 27.0087 19.9712 26.9573C19.9664 26.906 19.9616 26.8544 19.9559 26.8032C19.9504 26.7519 19.945 26.7007 19.9384 26.6495L19.9291 26.5728L19.928 26.5632L19.9274 26.5584C19.9282 26.5648 19.9272 26.5573 19.9272 26.5575L19.9243 26.5379L19.9187 26.4987L19.8962 26.3419L19.8848 26.2635C19.8808 26.2377 19.8762 26.2133 19.8719 26.1881L19.8456 26.0381L19.8325 25.963L19.8171 25.8873C19.796 25.7865 19.7778 25.6851 19.7533 25.5847C19.7299 25.4843 19.708 25.3836 19.6811 25.2838C19.5795 24.8837 19.4563 24.4885 19.3153 24.0994C19.1749 23.71 19.0136 23.3276 18.8382 22.9519L18.8054 22.8813L18.7715 22.8114L18.7036 22.6714C18.6566 22.5789 18.6111 22.4858 18.5625 22.3943C18.4671 22.2101 18.367 22.0283 18.2634 21.8488C18.1599 21.6693 18.0527 21.4918 17.9413 21.3177C17.886 21.2303 17.8288 21.1446 17.7714 21.0591C17.7424 21.0167 17.7135 20.9743 17.684 20.9327L17.6399 20.8706L17.597 20.8122L17.5936 20.8076C17.5045 20.6861 17.5307 20.5154 17.6522 20.4265C17.7727 20.3381 17.9418 20.3634 18.0314 20.4825C18.0505 20.5079 18.0657 20.5289 18.0823 20.5517L18.13 20.6188C18.1615 20.6634 18.1921 20.7082 18.2228 20.753C18.2833 20.843 18.3431 20.9329 18.4009 21.0241C18.517 21.2059 18.6286 21.3902 18.7361 21.5766C18.8436 21.763 18.9473 21.9515 19.0464 22.1424C19.0969 22.2373 19.1441 22.3341 19.1928 22.43L19.2632 22.5751L19.2984 22.6477L19.3325 22.7209C19.5144 23.1108 19.6819 23.5078 19.8283 23.9133C19.9752 24.3184 20.1037 24.7309 20.2103 25.1498C20.2383 25.2542 20.2615 25.3598 20.286 25.4651C20.3116 25.57 20.3309 25.6766 20.353 25.7825L20.3692 25.862L20.3834 25.943L20.4116 26.1051C20.4161 26.132 20.4212 26.1593 20.4253 26.1859L20.4367 26.2643L20.4593 26.4211L20.4649 26.4603L20.4677 26.48L20.4697 26.4939L20.4709 26.504L20.4807 26.5845C20.4876 26.6383 20.4932 26.6919 20.4989 26.7456C20.505 26.7994 20.51 26.8531 20.5151 26.9068C20.5204 26.9605 20.5249 27.0143 20.5292 27.068C20.5466 27.2831 20.5586 27.498 20.5663 27.7131C20.5817 28.143 20.5785 28.573 20.559 29.0021C20.5397 29.4313 20.5039 29.8596 20.45 30.2864C20.3964 30.7131 20.3253 31.1384 20.2316 31.5602C20.1376 31.982 20.0221 32.4007 19.8735 32.8118C19.7242 33.2224 19.5424 33.6264 19.3013 34.0068C19.1811 34.1969 19.0428 34.3795 18.8844 34.5487C18.7268 34.7185 18.5428 34.8715 18.3362 34.9965C18.2829 35.0256 18.2313 35.0569 18.1754 35.0819C18.1477 35.0947 18.1209 35.1089 18.0922 35.1201L18.0069 35.1542C17.9928 35.1601 17.9783 35.1651 17.9636 35.1697L17.9197 35.184C17.8904 35.1934 17.8613 35.2034 17.8312 35.2102L17.7416 35.2326C17.7114 35.2387 17.6811 35.2438 17.6507 35.2493C17.6355 35.2518 17.6205 35.2547 17.6053 35.2571L17.5595 35.2622C17.5288 35.2654 17.4991 35.2693 17.4674 35.2715L17.3694 35.2754L17.345 35.2762L17.3328 35.2765L17.3229 35.2762L17.2834 35.275L17.2438 35.2739L17.224 35.2734L17.2049 35.2728L17.1942 35.272L17.1091 35.2654C17.0808 35.2637 17.0523 35.2602 17.0238 35.257C16.9953 35.2534 16.9669 35.2512 16.9384 35.2467C16.8244 35.2315 16.7104 35.2091 16.5969 35.1811C16.4835 35.1526 16.3708 35.1157 16.2604 35.071C16.0396 34.9819 15.8274 34.8561 15.6444 34.6939C15.461 34.5324 15.309 34.3362 15.1944 34.1255C15.137 34.0201 15.088 33.9111 15.0474 33.8004C15.0069 33.6895 14.9742 33.5768 14.9481 33.4637C14.8961 33.2371 14.871 33.0086 14.8649 32.7816C14.8622 32.668 14.8641 32.5545 14.8712 32.4412C14.8747 32.3846 14.8793 32.3279 14.8854 32.2708C14.8885 32.2423 14.8918 32.2137 14.8958 32.1849L14.9021 32.1411L14.9056 32.1185L14.9101 32.0926L15.2496 32.4065L15.2349 32.4102L15.2235 32.4129L15.2022 32.4177C15.1882 32.4208 15.1749 32.4232 15.1613 32.4259C15.1346 32.4307 15.108 32.435 15.0816 32.4385C15.0288 32.4457 14.976 32.4507 14.9227 32.4529C14.8165 32.458 14.7084 32.4536 14.5995 32.4379C14.4905 32.4216 14.3806 32.3932 14.2737 32.3491C14.167 32.3052 14.0638 32.2449 13.9726 32.1694C13.8812 32.0942 13.8018 32.0047 13.738 31.9089C13.7226 31.8847 13.7079 31.8602 13.693 31.8357C13.6855 31.8241 13.6785 31.8098 13.6714 31.7962L13.6505 31.7551L13.6402 31.7345L13.6353 31.7244L13.6319 31.7165L13.6186 31.6853L13.6053 31.6541L13.5985 31.6373L13.5945 31.6263L13.5866 31.6042C13.5456 31.4863 13.5292 31.3661 13.5277 31.2523C13.5269 31.1954 13.5296 31.1395 13.5354 31.0853C13.5407 31.0307 13.5493 30.9779 13.5594 30.9261C13.58 30.8226 13.6081 30.7237 13.641 30.6288C13.6737 30.5336 13.7111 30.442 13.7516 30.3531C13.7921 30.2641 13.8354 30.1776 13.8812 30.0932C13.927 30.0089 13.9746 29.9262 14.0244 29.8455C14.1238 29.6838 14.2299 29.5282 14.3411 29.377C14.3967 29.3015 14.4536 29.2269 14.5121 29.1535C14.5414 29.1167 14.5708 29.0802 14.6011 29.0439L14.6468 28.9893L14.6702 28.9619L14.6953 28.9331L14.6955 28.933L14.6278 29.0864C14.639 28.9503 14.651 28.8143 14.6636 28.6782L14.6825 28.4742C14.6899 28.4064 14.6942 28.3382 14.699 28.2701C14.7085 28.1337 14.7187 27.9976 14.7293 27.8614C14.7414 27.7252 14.7456 27.5886 14.7541 27.4522L14.7657 27.2476L14.7717 27.1452L14.7745 27.094L14.7763 27.0428C14.7806 26.9061 14.7861 26.7695 14.7917 26.6328C14.7984 26.4962 14.7997 26.3594 14.8022 26.2225L14.8062 26.0173L14.8085 25.9145L14.8088 25.812L14.8101 25.4012L14.8051 24.9903C14.8045 24.8532 14.7993 24.7164 14.7961 24.5792C14.7942 24.5107 14.7937 24.4421 14.791 24.3736L14.7835 24.168L14.7761 23.9622L14.7665 23.7566C14.7613 23.6193 14.7526 23.4824 14.7456 23.3451C14.7424 23.2764 14.7363 23.2081 14.7326 23.1394L14.7264 23.0366L14.7189 22.9338C14.7139 22.8653 14.7096 22.7965 14.7037 22.7282C14.6984 22.6593 14.6928 22.592 14.6865 22.5231V22.5226C14.6832 22.4863 14.7099 22.4541 14.7462 22.4508C14.7781 22.4469 14.8072 22.4679 14.8153 22.4983Z" fill="#2B1E59"/>
<path d="M5.73183 12.7818C6.03073 14.4763 6.75414 16.1031 7.8915 17.4928C8.12352 17.7761 8.3717 18.0492 8.63716 18.3107C8.76596 18.4384 8.90021 18.5632 9.03766 18.6865C9.45401 19.0557 9.89164 19.3847 10.347 19.674C10.7389 19.9244 11.1442 20.1446 11.558 20.3359C12.0577 20.5673 12.5718 20.7552 13.0941 20.9012C13.2848 20.9539 13.4762 21.0013 13.6686 21.0435C17.1893 21.8092 21.0088 20.7025 23.5688 17.8146C27.3409 13.5614 26.9501 7.05577 22.6977 3.28382C21.8781 2.55801 20.975 1.98437 20.0237 1.56578C19.913 1.51586 19.8004 1.46881 19.6869 1.42433C19.3843 1.3032 19.0777 1.19711 18.768 1.10623C18.0514 0.896291 17.3175 0.767002 16.5812 0.716758C15.8452 0.665715 15.105 0.694197 14.3761 0.800764C14.1444 0.834527 13.9137 0.87597 13.6839 0.925893C13.3397 1.00078 12.9991 1.0923 12.6621 1.20335C10.9831 1.75075 9.42297 2.7385 8.16656 4.15573C5.99681 6.60214 5.20475 9.79373 5.73183 12.7818Z" fill="white"/>
<path d="M15.8638 21.3062C15.8636 21.3062 15.8635 21.3062 15.8633 21.3062C15.1238 21.3062 14.3834 21.2267 13.6628 21.07C13.4707 21.0278 13.2771 20.9798 13.087 20.9273C12.5576 20.7793 12.0394 20.5886 11.5467 20.3605C11.1257 20.166 10.7172 19.9426 10.3325 19.6968C9.87297 19.4048 9.43134 19.0717 9.01979 18.7067C8.8689 18.5713 8.73753 18.4481 8.61816 18.3298C8.35751 18.073 8.10581 17.7972 7.87059 17.5099C6.75963 16.1526 6.01078 14.5192 5.70515 12.7864C5.44082 11.2874 5.51218 9.7217 5.91173 8.2584C6.11606 7.51019 6.40584 6.78469 6.77275 6.10241C7.15038 5.40043 7.61249 4.73943 8.14645 4.13746C9.36238 2.76584 10.921 1.74225 12.654 1.17725C12.9822 1.06924 13.3268 0.975637 13.6785 0.899151C13.9041 0.850188 14.1376 0.807944 14.3725 0.773702C14.8665 0.701376 15.3703 0.664734 15.87 0.664734C16.1072 0.664734 16.3472 0.673054 16.5835 0.689375C17.327 0.740099 18.0646 0.871469 18.7762 1.0798C19.0856 1.17053 19.3956 1.2779 19.6975 1.39871C19.8185 1.44623 19.9291 1.49263 20.0353 1.54064C21.0059 1.96771 21.9081 2.54727 22.7161 3.26316C23.7583 4.18755 24.5884 5.28859 25.1832 6.5354C25.7578 7.7398 26.0898 9.02885 26.17 10.3667C26.2503 11.7047 26.0746 13.0242 25.6482 14.2886C25.2066 15.5976 24.514 16.7899 23.5895 17.8324C22.5924 18.9569 21.3951 19.8316 20.0305 20.4319C18.712 21.0121 17.3103 21.3062 15.8638 21.3062ZM15.8699 0.719458C15.3729 0.719458 14.8717 0.75594 14.3803 0.827786C14.1467 0.861868 13.9144 0.903791 13.69 0.952434C13.3403 1.0286 12.9974 1.12157 12.6709 1.22909C10.9471 1.79106 9.39678 2.80937 8.18725 4.17363C6.09558 6.53188 5.2104 9.66762 5.75876 12.7768C6.06278 14.5004 6.80763 16.1252 7.91267 17.4752C8.14677 17.761 8.39703 18.0354 8.65641 18.291C8.77514 18.4087 8.90586 18.5313 9.05596 18.6659C9.4651 19.0288 9.9045 19.3602 10.3616 19.6506C10.7442 19.8951 11.1507 20.1172 11.5694 20.3108C12.0595 20.5375 12.5749 20.7273 13.1014 20.8745C13.2903 20.9267 13.4832 20.9745 13.6742 21.0164C14.3909 21.1723 15.1274 21.2513 15.863 21.2513C18.8002 21.2515 21.6013 19.992 23.5482 17.796C27.304 13.5613 26.9142 7.06007 22.6795 3.3038C21.8756 2.59175 20.9784 2.01523 20.0126 1.5904C19.9068 1.54272 19.797 1.49647 19.6769 1.44943C19.3764 1.3291 19.068 1.22237 18.7602 1.13213C18.0524 0.924913 17.3188 0.794183 16.5792 0.74378C16.3445 0.727778 16.1057 0.719458 15.8699 0.719458Z" fill="#371A45"/>
<g opacity="0.35">
<path d="M5.732 12.7814C6.0309 14.4759 6.75431 16.1028 7.89167 17.4925C8.12369 17.7757 8.37187 18.0488 8.63733 18.3103C8.76613 18.438 8.90038 18.5628 9.03783 18.6861C9.45418 19.0553 9.89182 19.3843 10.3472 19.6736C10.7391 19.924 11.1444 20.1442 11.5582 20.3355C12.0579 20.5669 12.572 20.7548 13.0943 20.9009C13.285 20.9535 13.4764 21.0009 13.6687 21.0431C17.1893 21.8088 21.0089 20.7021 23.569 17.8142C24.9359 16.2727 25.7566 14.4346 26.0442 12.5385C25.6654 13.2578 25.1948 13.944 24.6311 14.5798C23.671 15.6627 22.5508 15.8463 21.3189 16.4236C19.2655 17.3856 16.9314 18.2872 14.7309 17.8086C14.5387 17.7664 14.3472 17.719 14.1564 17.6664C13.6342 17.5203 13.1202 17.3324 12.6203 17.1011C12.2064 16.9097 11.8011 16.6895 11.4094 16.4391C10.9541 16.1498 10.5163 15.8208 10.1 15.4517C9.96254 15.3285 9.82829 15.2035 9.69948 15.0758C9.43402 14.8143 9.18585 14.5412 8.95383 14.258C7.81647 12.8684 7.09306 11.2414 6.79415 9.54693C6.59958 8.44157 6.58502 7.30805 6.75431 6.19501C5.67407 8.24555 5.34157 10.5691 5.732 12.7814Z" fill="#2B1E59"/>
</g>
<path d="M15.864 21.4641C15.8636 21.4641 15.8636 21.4641 15.8635 21.4641C15.1127 21.4641 14.361 21.3835 13.6294 21.2242C13.4342 21.1814 13.2379 21.1327 13.045 21.0794C12.5069 20.9289 11.9808 20.7353 11.4804 20.5037C11.0531 20.3061 10.6381 20.0794 10.2476 19.8297C9.78128 19.5334 9.33277 19.1951 8.91514 18.8247C8.76169 18.6871 8.6284 18.5621 8.50711 18.442C8.24277 18.1816 7.98739 17.9014 7.7485 17.6099C6.62042 16.2316 5.86004 14.5732 5.54962 12.8137C5.28112 11.292 5.35376 9.7023 5.75939 8.21675C5.96693 7.45702 6.26103 6.72049 6.6337 6.02764C7.01708 5.31494 7.4864 4.6437 8.02836 4.03277C9.26285 2.64019 10.8454 1.60092 12.605 1.02728C12.9378 0.917669 13.2879 0.822623 13.6449 0.745017C13.8742 0.695254 14.1114 0.65237 14.3498 0.617648C14.8512 0.544202 15.3626 0.50708 15.87 0.50708C16.1109 0.50708 16.3546 0.51556 16.5944 0.532201C17.349 0.583725 18.098 0.717015 18.8205 0.92855C19.1348 1.02072 19.4497 1.12968 19.7562 1.25241C19.8783 1.30042 19.9911 1.34778 20.0996 1.39674C21.0851 1.83053 22.0007 2.41874 22.8208 3.14519C23.8789 4.08382 24.7217 5.20166 25.3256 6.46767C25.909 7.69048 26.246 8.99921 26.3274 10.3575C26.4089 11.716 26.2306 13.0557 25.7976 14.3393C25.3493 15.6685 24.646 16.879 23.7074 17.9373C22.6952 19.079 21.4794 19.967 20.0939 20.5767C18.7555 21.1655 17.3322 21.4641 15.864 21.4641ZM15.8699 0.877346C15.3804 0.877346 14.8869 0.913189 14.4031 0.984074C14.173 1.01768 13.9443 1.05896 13.7233 1.1068C13.379 1.18169 13.0414 1.27338 12.7201 1.37914C11.0225 1.93262 9.49598 2.93509 8.30518 4.27839C6.24551 6.60048 5.37409 9.68806 5.91413 12.7494C6.21351 14.4465 6.94684 16.0461 8.03476 17.3753C8.26533 17.6566 8.51175 17.9269 8.76713 18.1786C8.88442 18.2948 9.01323 18.4157 9.1614 18.5484C9.56367 18.9052 9.99634 19.2315 10.4465 19.5176C10.8234 19.7584 11.2235 19.9771 11.6358 20.1677C12.1183 20.3911 12.6256 20.5776 13.1441 20.7228C13.3299 20.7741 13.52 20.8212 13.7083 20.8626C14.4136 21.0161 15.1389 21.0938 15.8633 21.0938C18.7554 21.094 21.5135 19.8539 23.4303 17.6917C27.1283 13.5219 26.7446 7.12083 22.5748 3.42233C21.7833 2.72132 20.8998 2.1536 19.9492 1.73533C19.9487 1.73501 19.9481 1.73485 19.9476 1.73453C19.8446 1.68796 19.7372 1.64284 19.6194 1.5966C19.3226 1.47771 19.0191 1.37274 18.716 1.28378C18.0193 1.07976 17.2969 0.951111 16.5686 0.901508C16.3373 0.885347 16.1022 0.877346 15.8699 0.877346Z" fill="#371A45"/>
<path d="M15.8638 21.5517C15.8636 21.5517 15.8635 21.5517 15.8633 21.5517C15.1063 21.5517 14.3483 21.4702 13.6106 21.3099C13.4138 21.2667 13.2159 21.2176 13.0216 21.164C12.4789 21.0121 11.9481 20.8169 11.4436 20.5833C11.0127 20.3841 10.5943 20.1554 10.2003 19.9037C9.73021 19.605 9.27817 19.264 8.85686 18.8905C8.70197 18.7516 8.56756 18.6257 8.44532 18.5044C8.1789 18.242 7.92144 17.9596 7.68062 17.6656C6.54294 16.2758 5.77632 14.6033 5.46334 12.8291C5.19276 11.2946 5.26589 9.69178 5.67488 8.19375C5.88401 7.42762 6.18067 6.68484 6.55654 5.98623C6.94313 5.26762 7.41628 4.59077 7.96272 3.97473C9.20745 2.57063 10.8034 1.52255 12.5778 0.944112C12.9133 0.833704 13.2663 0.737856 13.6262 0.659451C13.8574 0.609207 14.0966 0.566005 14.3369 0.530962C14.8424 0.457037 15.3583 0.419434 15.8698 0.419434C16.1126 0.419434 16.3584 0.427914 16.6003 0.444716C17.3612 0.496559 18.1164 0.631129 18.8449 0.844424C19.1616 0.937231 19.4789 1.047 19.7877 1.17069C19.9119 1.21949 20.0255 1.26717 20.1351 1.31662C21.1288 1.75409 22.0521 2.34725 22.8788 3.07962C23.9459 4.02609 24.7956 5.15321 25.4048 6.42995C25.993 7.66299 26.3328 8.98261 26.4151 10.3523C26.4972 11.722 26.3175 13.073 25.8808 14.3673C25.4286 15.7077 24.7196 16.9283 23.7731 17.9954C22.7526 19.1467 21.5266 20.0421 20.1294 20.6569C18.7795 21.2507 17.3444 21.5517 15.8638 21.5517ZM15.8698 0.964913C15.3847 0.964913 14.8954 1.00044 14.4158 1.07068C14.1875 1.10396 13.9609 1.14493 13.742 1.19245C13.4006 1.26669 13.066 1.35758 12.7475 1.46239C11.0645 2.01107 9.55147 3.0049 8.37091 4.33668C6.32916 6.6386 5.4651 9.69946 6.0005 12.7344C6.29732 14.4168 7.02425 16.0023 8.10273 17.32C8.33123 17.5989 8.57556 17.8669 8.82886 18.1164C8.94519 18.2318 9.07304 18.3516 9.22009 18.4834C9.61852 18.8368 10.0475 19.1603 10.4936 19.4438C10.8674 19.6827 11.2639 19.8994 11.6727 20.0884C12.151 20.3097 12.6539 20.4948 13.1679 20.6385C13.3519 20.6894 13.5406 20.7359 13.7273 20.7771C14.4264 20.9291 15.1453 21.0062 15.8635 21.0064C18.7304 21.0065 21.4646 19.7771 23.3648 17.6338C27.0308 13.5002 26.6505 7.15448 22.5169 3.48797C21.7322 2.79304 20.8564 2.23028 19.914 1.81553C19.9132 1.81521 19.9124 1.81489 19.9116 1.81441C19.8098 1.76849 19.7039 1.72401 19.5874 1.67824C19.5868 1.67808 19.5863 1.67776 19.5856 1.6776C19.2925 1.56032 18.9917 1.45615 18.6913 1.36798C18.0007 1.16573 17.2845 1.0382 16.5627 0.988915C16.3331 0.973074 16.1001 0.964913 15.8698 0.964913Z" fill="#2B1E59"/>
<path d="M6.51945 15.299C10.9076 21.2038 19.6399 20.9481 22.351 14.1847C24.1954 9.58341 21.1143 4.22495 16.5815 2.73636C13.2825 1.65308 9.58767 2.03855 6.50665 6.69905C6.50665 6.69905 5.46129 8.97281 5.57714 10.7573C5.69299 12.5417 6.10694 14.2577 6.10694 14.2577L6.51945 15.299Z" fill="#2B1E59"/>
<path d="M5.57064 10.3139C5.56504 10.4637 5.56712 10.6123 5.57672 10.7571C5.69273 12.5414 6.10684 14.2583 6.10684 14.2583L6.51967 15.2992C10.907 21.204 19.6395 20.9478 22.3507 14.1851C22.5258 13.7485 22.6562 13.3047 22.7456 12.8582C18.3616 17.6224 10.2471 16.9038 5.82297 10.9506L5.57064 10.3139Z" fill="#18113A"/>
<path d="M14.6035 20.8425C14.6034 20.8425 14.6035 20.8425 14.6035 20.8425C13.1157 20.8425 11.6473 20.5335 10.2389 19.9243C10.2258 19.9186 10.213 19.9118 10.2008 19.9042C9.73021 19.6051 9.27802 19.2641 8.85686 18.8905C8.70197 18.7516 8.56756 18.6257 8.44532 18.5044C8.1789 18.242 7.92144 17.9595 7.68062 17.6656C6.54294 16.2757 5.77632 14.6033 5.46334 12.8291C5.19276 11.2946 5.26589 9.69175 5.67488 8.19372C5.88417 7.42759 6.18067 6.68481 6.55654 5.9862C6.94313 5.26759 7.41628 4.59074 7.96272 3.9747C9.20745 2.5706 10.8032 1.52252 12.5778 0.944081C12.5957 0.93832 12.6141 0.934319 12.6328 0.932239C12.9408 0.898797 13.2575 0.881836 13.5743 0.881836C14.6482 0.881836 15.7862 1.07673 16.9563 1.46108C18.3067 1.90447 19.6023 2.67236 20.7033 3.68156C21.777 4.66579 22.6676 5.87899 23.2787 7.19045C24.4356 9.67271 24.5529 12.3361 23.6091 14.69C23.208 15.6906 22.679 16.5975 22.0369 17.3856C21.4224 18.1397 20.7028 18.7873 19.8985 19.3104C18.3566 20.3125 16.5254 20.8425 14.6035 20.8425ZM10.4752 19.4321C11.8088 20.0059 13.1977 20.297 14.6034 20.297C18.4667 20.297 21.6442 18.125 23.103 14.4868C23.99 12.2743 23.8768 9.76487 22.7844 7.4207C21.5882 4.85396 19.3458 2.81974 16.7862 1.97919C15.671 1.61293 14.5904 1.42731 13.5743 1.42731C13.2869 1.42731 12.9996 1.4422 12.7199 1.47148C11.0484 2.02176 9.54507 3.01207 8.37091 4.33664C6.32916 6.63857 5.4651 9.69943 6.0005 12.7344C6.29732 14.4167 7.02425 16.0023 8.10273 17.32C8.33123 17.5989 8.57556 17.8669 8.82886 18.1164C8.94519 18.2317 9.07304 18.3516 9.22009 18.4834C9.61292 18.8318 10.0357 19.1513 10.4752 19.4321Z" fill="#2B1E59"/>
<path d="M14.5646 19.779C14.5643 19.779 14.5641 19.779 14.5638 19.779C13.0456 19.7789 11.5023 19.4033 10.1008 18.693C9.37832 18.3268 8.69347 17.8727 8.0651 17.343C7.41386 16.794 6.82021 16.1612 6.3005 15.4618C6.28626 15.4426 6.27458 15.4218 6.26578 15.3995L5.85311 14.3583C5.84846 14.3465 5.84447 14.3342 5.84158 14.3219C5.82446 14.2508 5.42091 12.5625 5.30475 10.7752C5.1857 8.94291 6.21473 6.68083 6.25857 6.5853C6.26433 6.57266 6.27122 6.5605 6.2789 6.54882C7.33817 4.94662 8.53698 3.74862 9.84235 2.98776C11.0122 2.30595 12.292 1.96033 13.6463 1.96033C14.6054 1.96033 15.6215 2.13426 16.6664 2.47748C17.8717 2.87335 19.0281 3.55852 20.0109 4.45939C20.9691 5.33753 21.7638 6.42033 22.3092 7.59049C23.3419 9.80633 23.4465 12.1844 22.6039 14.2865C22.246 15.1797 21.7738 15.9892 21.2006 16.6927C20.6519 17.3662 20.0096 17.9445 19.2914 18.4114C17.9149 19.3061 16.2804 19.779 14.5646 19.779ZM6.75957 15.165C8.66643 17.713 11.5812 19.2332 14.5638 19.2336C14.564 19.2336 14.5645 19.2336 14.5646 19.2336C17.9889 19.2336 20.8047 17.3083 22.0975 14.0833C22.8834 12.1225 22.783 9.8985 21.8146 7.82075C20.7539 5.54474 18.7656 3.74094 16.496 2.9956C15.5061 2.67062 14.5473 2.50581 13.6461 2.50581C10.9708 2.50581 8.64915 3.96127 6.74581 6.8314C6.64948 7.04757 5.7443 9.1282 5.84894 10.7398C5.95567 12.3838 6.32338 13.9881 6.36738 14.1758L6.75957 15.165Z" fill="#2B1E59"/>
<path d="M21.5854 14.0599C21.5816 14.074 21.5773 14.089 21.5742 14.1034C21.0732 16.0488 21.8218 17.8694 23.2579 18.1816C24.7045 18.4968 26.3011 17.1606 26.8248 15.1985C27.2281 13.6848 26.8744 12.2396 26.0259 11.5149C25.776 11.3 25.482 11.148 25.1522 11.0766C23.7056 10.7624 22.1079 12.0985 21.5854 14.0599Z" fill="white"/>
<g opacity="0.35">
<path d="M21.5742 14.1034C21.0732 16.0488 21.8218 17.8694 23.2579 18.1816C24.7045 18.4969 26.3011 17.1606 26.8248 15.1985C26.9124 14.8699 26.9642 14.5444 26.9831 14.2289C27.0633 12.887 25.3958 12.1982 24.4844 13.1864L23.5036 14.2497C23.5036 14.2497 22.9126 14.9809 22.0999 14.7558C21.8242 14.6793 21.6645 14.4169 21.5742 14.1034Z" fill="#2B1E59"/>
</g>
<path d="M23.6872 18.5005C23.5226 18.5005 23.3586 18.4829 23.1995 18.4484C22.5662 18.3107 22.0353 17.9166 21.664 17.3086C21.4026 16.8804 21.2322 16.3551 21.1714 15.7896C21.1083 15.2051 21.1589 14.5994 21.3214 13.9898C21.5608 13.0925 22.0314 12.274 22.6468 11.6851C23.2715 11.0875 24.0085 10.7584 24.7223 10.7584C24.887 10.7584 25.051 10.776 25.21 10.8105C25.8434 10.9481 26.3743 11.3422 26.7455 11.9503C27.007 12.3785 27.1774 12.9038 27.2382 13.4693C27.3012 14.0538 27.2507 14.6594 27.0881 15.2691C26.8487 16.1664 26.3781 16.9849 25.7627 17.5737C25.1382 18.1714 24.401 18.5005 23.6872 18.5005ZM24.7223 11.304C24.1496 11.304 23.5466 11.5794 23.024 12.0794C22.4799 12.5999 22.0625 13.3285 21.8485 14.1304C21.5656 15.191 21.6707 16.2728 22.1297 17.0246C22.4212 17.5022 22.8312 17.8102 23.3153 17.9155C23.4365 17.9418 23.5614 17.9552 23.6872 17.9552C24.2599 17.9552 24.863 17.6798 25.3856 17.1798C25.9296 16.6593 26.3471 15.9307 26.561 15.1288C26.8439 14.0682 26.7388 12.9864 26.2799 12.2346C25.9883 11.757 25.5784 11.449 25.0942 11.3437C24.9731 11.3173 24.8481 11.304 24.7223 11.304Z" fill="#2B1E59"/>
<path d="M27.0204 15.8485C27.5615 14.3535 27.0826 12.8094 25.9508 12.3999C24.8191 11.9903 23.463 12.8702 22.9219 14.3653C22.3808 15.8603 22.8597 17.4044 23.9914 17.814C25.1232 18.2236 26.4793 17.3436 27.0204 15.8485Z" fill="white"/>
<path d="M24.5677 17.9436C24.1334 17.9436 23.7324 17.7872 23.4077 17.4915C22.4806 16.647 22.4261 14.891 23.2861 13.5772C23.8209 12.7605 24.6032 12.2728 25.3789 12.2728C25.8132 12.2728 26.2142 12.4291 26.5388 12.7248C27.4659 13.5693 27.5205 15.3253 26.6604 16.6392C26.1257 17.456 25.3434 17.9436 24.5677 17.9436ZM25.3789 12.3291C24.6222 12.3291 23.8574 12.8072 23.3332 13.6081C22.4877 14.8997 22.5381 16.6232 23.4457 17.4499C23.7598 17.736 24.1478 17.8872 24.5677 17.8872C25.3243 17.8872 26.0892 17.4091 26.6134 16.6083C27.4589 15.3167 27.4085 13.5932 26.5009 12.7664C26.1868 12.4803 25.7988 12.3291 25.3789 12.3291Z" fill="#2B1E59"/>
<g opacity="0.35">
<path d="M22.6431 15.692C22.6511 15.1385 22.8108 14.5854 23.0758 14.0964C23.164 15.3598 24.0909 16.113 25.2368 15.8005C25.9773 15.5989 26.6385 14.998 27.0481 14.2413C27.0542 14.321 27.0559 14.4036 27.0548 14.4874C27.034 15.8968 26.0696 17.476 24.8513 17.8085C23.6328 18.141 22.6225 17.1006 22.6431 15.692Z" fill="#2B1E59"/>
</g>
<path d="M24.4968 18.2733C24.3797 18.2733 24.2629 18.2613 24.1496 18.2377C23.6771 18.1389 23.2792 17.845 22.9988 17.3877C22.5593 16.6708 22.4639 15.6256 22.7441 14.5918C22.946 13.8463 23.3276 13.1639 23.8185 12.6699C24.3239 12.1616 24.9145 11.8815 25.4815 11.8815C25.5987 11.8815 25.7155 11.8935 25.8288 11.9172C26.3013 12.0159 26.6992 12.3099 26.9796 12.7672C27.4191 13.484 27.5145 14.5292 27.2343 15.5631C27.0324 16.3086 26.6508 16.991 26.1598 17.485C25.6545 17.9935 25.0639 18.2733 24.4968 18.2733ZM25.4815 12.4272C25.0609 12.4272 24.6076 12.6501 24.2055 13.0546C23.7801 13.4824 23.4481 14.079 23.2707 14.7345C23.0292 15.6261 23.1014 16.5115 23.464 17.1025C23.664 17.4286 23.9397 17.6365 24.2615 17.7037C24.3379 17.7197 24.4173 17.7279 24.497 17.7279C24.9177 17.7279 25.371 17.505 25.7731 17.1005C26.1984 16.6726 26.5304 16.0761 26.7079 15.4205C26.9493 14.5289 26.8772 13.6436 26.5146 13.0525C26.3146 12.7264 26.0389 12.5185 25.7171 12.4513C25.6406 12.4353 25.5612 12.4272 25.4815 12.4272Z" fill="#2B1E59"/>
<g opacity="0.7">
<path d="M20.2334 11.5613C20.5347 10.7286 20.1997 9.84402 19.4852 9.58542C18.7706 9.32683 17.9471 9.79217 17.6458 10.6248C17.3444 11.4574 17.6794 12.342 18.394 12.6006C19.1085 12.8592 19.932 12.3939 20.2334 11.5613Z" fill="white"/>
</g>
<g opacity="0.7">
<path d="M18.6053 14.6025C18.7584 14.2704 18.6514 13.8947 18.3664 13.7634C18.0814 13.632 17.7263 13.7948 17.5732 14.1269C17.4202 14.459 17.5272 14.8347 17.8122 14.9661C18.0972 15.0974 18.4523 14.9346 18.6053 14.6025Z" fill="white"/>
</g>
<g opacity="0.7">
<path d="M6.79926 9.51496C6.79926 9.51496 8.65347 1.5115 16.7441 3.7411C16.7441 3.74126 10.4835 3.88655 6.79926 9.51496Z" fill="white"/>
</g>
</svg>
