<svg width="288" height="324" viewBox="0 0 288 324" fill="none" xmlns="http://www.w3.org/2000/svg">
<g clip-path="url(#clip0_201_2)">
<g opacity="0.5">
<path d="M18.5427 298.415C34.2507 284.787 31.8978 268.866 49.1304 261.385C70.6956 252.023 85.1673 273.149 85.1673 273.149C85.1673 273.149 85.6714 275.429 85.7843 278.868C86.3656 272.77 85.3227 268.059 85.3227 268.059C85.3227 268.059 70.852 246.933 49.2858 256.294C27.7196 265.656 36.8327 288.238 2.82572 303.001C8.69625 300.452 13.8771 299.047 18.5438 298.415H18.5427Z" fill="white"/>
</g>
<g opacity="0.3">
<path d="M84.9214 283.972C82.4076 287.967 78.5691 291.622 72.7623 294.142C54.9261 301.885 44.3844 287.117 22.0312 290.132C17.7111 294.707 11.7567 299.124 2.8246 303.002C36.8327 288.239 47.7332 311.785 69.2983 302.424C79.0106 298.207 83.2235 290.82 84.9214 283.972Z" fill="#371A45"/>
</g>
<path d="M29.7517 291.829C49.5507 283.234 62.9472 296.936 75.502 291.486C88.0567 286.035 83.5197 268.459 83.5197 268.459C83.5197 268.459 73.7851 253.139 61.2292 258.59C48.6744 264.04 49.5496 283.234 29.7517 291.829V291.829Z" fill="#FFD553"/>
<path d="M58.4482 306.576C53.1365 306.576 48.1747 305.142 43.0431 303.658C32.6601 300.656 20.8922 297.256 2.5664 305.211C1.63641 305.615 0.556649 305.187 0.153134 304.257C0.0502997 304.02 0.00111783 303.772 0.00111783 303.528C0.00111783 302.819 0.414692 302.144 1.10659 301.843C19.4581 293.877 25.1867 283.343 30.2401 274.048C34.4441 266.317 38.4155 259.014 48.5559 254.612C57.9653 250.526 67.5915 251.397 76.3928 257.129C82.9374 261.391 86.6808 266.794 86.8373 267.022C86.9703 267.216 87.0642 267.433 87.1145 267.662C87.1748 267.931 88.5642 274.358 87.2061 282.049C85.3797 292.393 79.441 300.021 70.0316 304.106C65.897 305.901 62.0921 306.575 58.4515 306.575L58.4482 306.576ZM24.1606 296.59C31.8072 296.59 38.1461 298.422 44.0614 300.132C52.4055 302.543 59.6129 304.626 68.5673 300.74C87.1849 292.657 84.1278 271.742 83.5957 268.801C81.7425 266.262 68.7998 249.823 50.0146 257.979C41.0344 261.878 37.5246 268.33 33.4627 275.802C29.688 282.745 25.5578 290.341 16.5598 297.19C19.2402 296.77 21.7641 296.59 24.1617 296.59H24.1606Z" fill="#371A45"/>
<path d="M196.421 157.891C196.421 157.891 220.26 167.911 224.301 174.106C228.341 180.302 213.526 180.453 213.526 180.453" fill="white"/>
<path d="M213.526 182.569C212.865 182.569 212.241 182.259 211.84 181.732L194.734 159.171C194.155 158.408 194.162 157.351 194.749 156.594C195.336 155.837 196.357 155.569 197.24 155.94C199.742 156.991 221.8 166.401 226.072 172.95C227.572 175.25 227.187 177.042 226.599 178.141C224.456 182.149 216.067 182.544 213.546 182.57H213.525L213.526 182.569ZM203.115 163.216L214.555 178.305C218.516 178.117 222.329 177.153 222.869 176.143C222.92 176.047 222.818 175.706 222.529 175.264C220.507 172.164 211.351 167.129 203.115 163.216V163.216Z" fill="#371A45"/>
<path d="M96.3495 105.354C87.0888 112.296 78.6038 145.351 80.7488 165.056C82.8938 184.761 117.715 186.236 137.629 185.597C157.543 184.957 157.474 139.919 157.212 127.854C156.804 109.015 110.07 95.067 96.3495 105.354V105.354Z" fill="white"/>
<g opacity="0.25">
<path d="M137.63 185.597C117.716 186.236 82.896 184.758 80.7477 165.055C80.4693 162.474 80.3687 159.667 80.4324 156.717C85.9319 161.042 93.5942 157.193 94.5186 151.905C100.224 119.261 112.377 106.733 118.256 102.445C136.171 104.956 156.944 115.321 157.211 127.855C157.476 139.918 157.544 184.957 137.63 185.597V185.597Z" fill="#371A45"/>
</g>
<path d="M130.687 187.827C106.624 187.827 80.6303 183.526 78.644 165.284C76.5694 146.221 84.4654 111.617 95.0797 103.659C104.491 96.6032 126.203 99.9708 140.923 107.138C152.627 112.836 159.163 120.176 159.328 127.808C159.805 149.906 157.631 187.073 137.696 187.712C135.394 187.786 133.049 187.827 130.686 187.827H130.687ZM110.478 103.956C105 103.956 100.406 104.956 97.6182 107.047C89.0672 113.457 80.7868 145.856 82.8524 164.825C84.7783 182.522 117.956 184.109 137.561 183.48C154.935 182.922 155.376 140.797 155.096 127.9C154.969 122.021 149.127 115.842 139.07 110.945C129.727 106.395 119.026 103.957 110.478 103.957V103.956ZM96.3495 105.353H96.3551H96.3495Z" fill="#371A45"/>
<path d="M98.3056 138.414L89.4674 134.89C87.4699 134.094 85.2221 135.225 84.6822 137.307C82.8256 144.471 79.9663 159.32 87.1726 162.36C95.9068 166.044 99.002 155.966 100.538 142.121C100.714 140.525 99.7956 139.01 98.3056 138.415V138.414Z" fill="white"/>
<g opacity="0.25">
<path d="M100.52 142.097C99.0176 155.947 95.9437 166.034 87.2028 162.367C83.6114 160.866 82.5093 156.426 82.5372 151.467C83.266 152.887 84.31 153.986 85.772 154.596C93.5987 157.875 96.886 150.133 98.5582 138.53C99.8906 139.18 100.686 140.606 100.52 142.097Z" fill="#371A45"/>
</g>
<path d="M90.5706 165.086C89.2762 165.086 87.8992 164.782 86.4472 164.174C78.4585 160.826 80.0334 147.46 82.7608 136.836C83.1542 135.302 84.1904 134.009 85.6021 133.29C87.0183 132.569 88.6782 132.491 90.1548 133.076L99.0008 136.58C101.308 137.493 102.733 139.85 102.466 142.31C101.084 155.033 98.6845 161.53 94.4403 164.035C93.2533 164.736 91.96 165.086 90.5706 165.086V165.086ZM88.1138 136.598C87.8623 136.598 87.6119 136.658 87.3783 136.776C87.1368 136.899 86.7076 137.198 86.55 137.808C84.0663 147.482 83.1319 158.541 87.9584 160.563C89.7938 161.333 91.2636 161.365 92.4529 160.664C96.8178 158.089 98.1424 145.894 98.5772 141.887C98.6554 141.172 98.2374 140.485 97.5611 140.218L88.7151 136.714C88.5184 136.637 88.3161 136.598 88.1138 136.598Z" fill="#371A45"/>
<path d="M95.0551 105.398L105.468 110.209C108.932 111.838 112.388 113.447 115.831 115.199C116.352 115.464 116.56 116.102 116.295 116.623C116.046 117.114 115.467 117.327 114.965 117.13L114.947 117.123C111.439 115.73 107.839 114.441 104.259 113.146L93.4791 109.329L93.4601 109.322C92.3568 108.932 91.7789 107.72 92.1702 106.617C92.5614 105.513 93.7719 104.935 94.8751 105.326C94.9355 105.348 94.9992 105.373 95.0562 105.4L95.0551 105.398Z" fill="#371A45"/>
<path d="M255.037 99.0249C251.603 110.742 225.525 132.441 188.113 133.525C184.493 133.636 180.769 133.546 176.95 133.239L173.611 118.976L170.939 107.56C170.939 107.56 176.748 106.501 184.69 104.39C190.965 102.729 198.568 100.41 205.695 97.4473C212.414 94.6533 218.716 91.2823 223.065 87.3389C223.065 87.3389 223.304 75.6003 226.631 74.4051C230.694 72.9449 233.705 81.2007 233.705 81.2007C233.705 81.2007 242.944 71.6904 248.335 72.6117C256.35 73.9768 258.811 86.1761 255.038 99.0249H255.037Z" fill="white"/>
<g opacity="0.35">
<path d="M256.72 89.4464C256.562 92.4842 256 95.7333 255.038 99.026C251.271 111.876 220.272 136.734 176.951 133.24L170.94 107.562C170.94 107.562 172.745 107.235 175.713 106.579L182.737 120.189C218.521 130.973 250.844 102.668 256.721 89.4475L256.72 89.4464Z" fill="#371A45"/>
</g>
<path d="M185.167 135.69C182.423 135.69 179.631 135.58 176.782 135.351C175.617 135.257 174.749 134.236 174.843 133.071C174.936 131.906 175.961 131.037 177.122 131.131C219.847 134.574 249.68 109.768 253.007 98.4268C255.382 90.332 255.15 82.2707 252.415 77.8913C251.285 76.0811 249.792 75.0066 247.979 74.6981C245.024 74.1938 238.74 79.0619 235.222 82.6788L232.872 85.0961L231.717 81.9286C230.786 79.3939 228.646 76.0006 227.38 76.3875C226.33 77.1366 225.284 82.3512 225.179 87.3825L225.16 88.2949L224.484 88.9076C209.41 102.564 172.869 109.363 171.321 109.645C170.171 109.855 169.068 109.093 168.858 107.944C168.648 106.793 169.41 105.691 170.559 105.481C170.921 105.415 206.35 98.8226 220.974 86.3561C221.14 82.0136 221.98 73.8304 225.913 72.415C229.906 70.9749 232.811 74.7305 234.383 77.614C237.769 74.5404 243.955 69.7193 248.69 70.5254C251.703 71.0386 254.231 72.8108 256.005 75.6495C259.403 81.09 259.81 90.275 257.068 99.6198C253.227 112.709 224.921 135.689 185.167 135.691V135.69Z" fill="#371A45"/>
<path d="M216.197 183.971C216.197 183.971 163.812 204.235 145.432 202.785C127.057 201.335 107.263 198.424 106.179 163.553C105.507 141.876 116.227 120.548 124.438 107.519C129.438 99.5806 133.506 94.717 133.506 94.717L184.087 97.2998C184.087 97.2998 184.282 99.9675 184.69 104.392C184.944 107.154 185.283 110.599 185.712 114.506C186.325 120.115 187.119 126.672 188.114 133.526C189.637 144.026 191.633 155.214 194.145 164.729C195.23 168.847 212.499 169.974 216.198 183.972L216.197 183.971Z" fill="white"/>
<path d="M186.975 119.408C188.867 125.58 189.951 131.819 191.048 138.053C192.159 144.282 193.153 150.523 194.439 156.691C194.767 158.232 195.116 159.766 195.476 161.297L196.039 163.584L196.182 164.156L196.191 164.19L196.193 164.184V164.169C196.194 164.16 196.192 164.151 196.188 164.143C196.183 164.137 196.174 164.129 196.169 164.125C196.175 164.128 196.18 164.131 196.184 164.134C196.194 164.142 196.19 164.149 196.2 164.167C196.229 164.191 196.255 164.218 196.279 164.246C196.305 164.298 196.438 164.383 196.511 164.456C196.907 164.777 197.534 165.132 198.179 165.46C198.83 165.794 199.532 166.116 200.248 166.442C201.68 167.092 203.169 167.757 204.643 168.503C207.587 169.987 210.535 171.802 213.003 174.312C214.234 175.56 215.334 176.973 216.222 178.517C217.113 180.059 217.79 181.725 218.247 183.431L218.74 185.27L216.964 185.947C208.634 189.119 200.273 192.06 191.818 194.824C183.364 197.572 174.838 200.134 166.128 202.191C161.768 203.204 157.372 204.118 152.83 204.628C150.561 204.888 148.261 205.059 145.85 204.921C145.232 204.905 144.702 204.847 144.141 204.804L142.471 204.659C141.356 204.557 140.238 204.448 139.116 204.314C134.641 203.789 130.089 202.995 125.688 201.374C123.492 200.563 121.344 199.538 119.334 198.254C117.324 196.973 115.461 195.43 113.83 193.676C112.199 191.919 110.822 189.949 109.676 187.883C108.533 185.815 107.585 183.651 106.881 181.435L106.602 180.608L106.367 179.772L105.905 178.098L105.526 176.412L105.34 175.569L105.191 174.721L104.895 173.026C104.807 172.461 104.744 171.894 104.668 171.328C104.504 170.195 104.409 169.063 104.314 167.929C103.937 163.422 103.948 158.802 104.432 154.279C104.905 149.747 105.786 145.28 106.967 140.912C109.332 132.167 112.905 123.843 117.11 115.911C119.212 111.946 121.314 107.963 123.866 104.263C126.419 100.571 129.243 97.0426 132.962 94.2675C133.283 94.0282 133.737 94.0942 133.976 94.4151C134.139 94.6342 134.16 94.9149 134.055 95.1474L134.043 95.1743C132.184 99.2753 129.915 103.003 127.611 106.708C125.346 110.435 122.9 114.056 120.852 117.911C116.75 125.602 113.315 133.664 111.052 142.022C109.921 146.198 109.086 150.445 108.642 154.72C108.186 159.001 108.173 163.272 108.531 167.587C108.621 168.659 108.71 169.733 108.865 170.79C108.937 171.32 108.995 171.855 109.078 172.382L109.354 173.958L109.491 174.746L109.664 175.523L110.013 177.076L110.434 178.602L110.647 179.365L110.899 180.109C111.533 182.114 112.378 184.024 113.373 185.827C114.372 187.627 115.551 189.311 116.934 190.801C119.696 193.79 123.242 195.976 127.154 197.407C131.07 198.853 135.303 199.611 139.605 200.113C140.68 200.241 141.766 200.347 142.854 200.446L144.491 200.588C145.032 200.629 145.604 200.69 146.092 200.697C146.603 200.706 147.095 200.762 147.62 200.738L149.182 200.701C150.238 200.62 151.291 200.563 152.359 200.425C156.617 199.947 160.905 199.063 165.162 198.072C173.682 196.06 182.127 193.526 190.506 190.801C198.877 188.065 207.221 185.129 215.434 182.001L214.152 184.517C213.427 181.78 211.999 179.313 209.989 177.288C207.988 175.247 205.457 173.655 202.734 172.284C201.372 171.593 199.956 170.96 198.492 170.296C197.762 169.964 197.018 169.623 196.253 169.233C195.488 168.835 194.706 168.429 193.857 167.758C193.638 167.563 193.436 167.424 193.21 167.165L192.887 166.805C192.778 166.665 192.671 166.5 192.57 166.344C192.369 166.079 192.188 165.55 192.089 165.238L191.937 164.653L191.329 162.315C190.94 160.754 190.563 159.193 190.21 157.626C189.495 154.497 188.81 151.363 188.209 148.216C187.603 145.071 187.1 141.911 186.653 138.744C185.779 132.41 185.179 126.036 185.573 119.576C185.598 119.18 185.938 118.88 186.332 118.904C186.638 118.923 186.889 119.134 186.974 119.411L186.975 119.408Z" fill="#371A45"/>
<path d="M111.257 290.509L102.192 291.92C98.091 292.559 93.9709 290.893 91.4648 287.583C84.0015 277.729 79.3773 266.019 78.0918 253.723C77.6604 249.594 79.5304 245.561 82.9597 243.223L90.5416 238.055" fill="#00AAFF"/>
<g opacity="0.6">
<path d="M92.1523 243.254L84.6442 248.372C82.7518 249.662 81.2864 251.422 80.352 253.431C79.422 255.439 79.0218 257.697 79.2633 259.981C79.4466 261.742 79.6947 263.494 80.0021 265.232C79.0967 261.834 78.4562 258.361 78.0896 254.839C77.8728 252.777 78.2316 250.733 79.0777 248.915C79.916 247.099 81.2417 245.511 82.9575 244.339L90.5404 239.172L92.1523 243.253V243.254Z" fill="white"/>
</g>
<g opacity="0.35">
<path d="M83.8014 272.59C85.6502 276.275 87.8366 279.799 90.3448 283.112C92.8498 286.422 96.9698 288.087 101.072 287.447L109.526 286.131L90.5393 238.055L88.9208 239.159L102.998 274.798L93.9295 276.21C90.1392 276.801 86.3343 275.419 83.8003 272.59H83.8014ZM101.27 270.421L88.9208 239.159L89.4316 238.81L101.88 270.326L101.269 270.421H101.27Z" fill="#371A45"/>
</g>
<path d="M112.859 224.124C108.146 214.889 91.998 202.669 60.2332 222.829C59.8163 223.094 59.9426 223.737 60.4277 223.823C65.7137 224.766 90.5796 229.003 95.1322 241.938" fill="#EC1C24"/>
<g opacity="0.6">
<path d="M65.5818 224.257C63.3026 223.77 61.4762 223.452 60.4289 223.264C59.9415 223.177 59.8174 222.537 60.2332 222.272C91.9991 202.109 108.146 214.33 112.86 223.566L110.94 225.495C104.848 217.627 90.5259 210.449 65.5829 224.257H65.5818Z" fill="white"/>
</g>
<path d="M95.1322 244.056C94.2593 244.056 93.4422 243.511 93.1359 242.642C91.6146 238.318 85.326 230.4 60.307 225.952L60.0566 225.908C58.969 225.713 58.1296 224.887 57.9161 223.802C57.7026 222.718 58.1676 221.633 59.0998 221.042C74.5418 211.241 88.0053 207.811 99.1148 210.847C108.918 213.526 113.311 220.351 114.745 223.16C115.276 224.201 114.862 225.477 113.821 226.008C112.78 226.539 111.505 226.126 110.974 225.085C109.796 222.776 106.174 217.164 97.9993 214.93C89.0281 212.477 77.6213 215.098 64.8351 222.509C87.6275 227.224 95.0093 235.211 97.1286 241.234C97.5164 242.336 96.9374 243.545 95.8353 243.934C95.6028 244.016 95.3659 244.055 95.1322 244.055V244.056Z" fill="#371A45"/>
<path d="M136.671 284.414C139.541 294.378 136.314 314.875 99.3507 321.872C98.8656 321.964 98.518 321.408 98.8131 321.014C102.028 316.712 117.06 296.048 111.544 283.494" fill="#D25658"/>
<path d="M99.3507 321.875C98.8645 321.963 98.5191 321.409 98.8142 321.014C100.458 318.81 105.206 312.314 108.703 304.812C112.011 297.724 114.198 289.736 111.599 283.63C111.581 283.585 111.559 283.539 111.542 283.495L111.694 283.499L136.667 284.413C137.473 287.21 137.8 290.837 137.03 294.763C135.071 304.821 125.941 316.838 99.3507 321.875V321.875Z" fill="#EC1C24"/>
<g opacity="0.35">
<path d="M108.703 304.812C112.011 297.724 114.198 289.736 111.599 283.63C111.632 283.587 111.662 283.542 111.694 283.5L136.667 284.414C137.473 287.211 137.8 290.838 137.03 294.764C131.071 299.822 122.038 303.793 108.703 304.813V304.812Z" fill="#371A45"/>
</g>
<path d="M99.24 324C98.3358 324 97.4885 323.539 96.9933 322.747C96.4076 321.809 96.4568 320.63 97.1185 319.746C101.261 314.202 114.405 295.267 109.607 284.346C109.137 283.274 109.623 282.027 110.694 281.556C111.764 281.086 113.012 281.572 113.483 282.643C118.364 293.756 109.119 309.96 102.893 318.965C117.098 315.666 127.122 309.78 132.014 301.825C136.736 294.151 135.215 287.007 134.638 285C134.313 283.876 134.962 282.703 136.085 282.379C137.207 282.055 138.381 282.703 138.705 283.827C139.602 286.939 141.096 295.14 135.619 304.044C129.56 313.895 117.489 320.593 99.7442 323.952C99.5754 323.984 99.4066 323.999 99.24 323.999V324ZM98.9572 319.793C98.9572 319.793 98.9561 319.793 98.955 319.793C98.955 319.793 98.9561 319.793 98.9572 319.793Z" fill="#371A45"/>
<path d="M285.999 190.899C285.999 190.899 277.693 243.753 209.255 276.4C150.95 304.211 110.639 290.509 110.639 290.509C102.449 281.375 96.5015 270.563 93.1258 258.946C91.1686 252.199 90.0788 245.181 89.9245 238.053C89.9245 238.053 98.8768 221.288 123.183 204.331C124.019 203.749 124.876 203.162 125.749 202.579C135.241 196.238 146.907 189.946 161.086 184.58C164.429 183.31 167.917 182.098 171.546 180.944C171.689 180.896 171.832 180.855 171.974 180.813C186.619 176.193 200.021 173.874 212.079 173.101C212.466 173.074 212.846 173.053 213.227 173.032C259.765 170.428 285.997 190.899 285.997 190.899H285.999Z" fill="white"/>
<path d="M251.104 248.919C246.556 221.72 236.312 195.782 221.047 172.814C263.076 172.533 286.612 190.9 286.612 190.9C286.612 190.9 281.979 220.391 251.105 248.919H251.104Z" fill="#EC1C24"/>
<g opacity="0.6">
<path d="M285.74 194.178C286.393 191.724 286.612 190.34 286.612 190.34C286.612 190.34 263.077 171.973 221.047 172.254C222.033 173.736 222.996 175.232 223.94 176.739C259.566 177.228 281.257 191.034 285.74 194.178Z" fill="white"/>
</g>
<path d="M249.663 253.131L249.017 249.267C244.489 222.184 234.486 196.857 219.284 173.986L217.116 170.723L221.032 170.697C254.347 170.467 276.349 181.862 284.267 186.768C287.248 188.616 288.636 192.133 287.723 195.52C285.295 204.512 277.007 227.868 252.54 250.475L249.663 253.134V253.131ZM224.968 174.958C238.585 196.34 247.833 219.757 252.501 244.671C273.971 223.685 281.4 202.698 283.636 194.415C284.059 192.849 283.416 191.222 282.038 190.366C274.745 185.847 254.979 175.603 224.968 174.959V174.958Z" fill="#371A45"/>
<path d="M138.317 296.002C121.035 296.002 110.995 292.656 110.573 292.513L110.049 292.335L109.679 291.923C103.065 284.543 97.8652 276.13 94.2257 266.916C90.5863 257.7 88.6335 248.006 88.4234 238.102L88.4111 237.548L88.6726 237.059C88.8839 236.663 94.0033 227.221 106.825 215.285C118.582 204.34 139.349 189.149 171.523 178.93C188.391 173.572 205.049 170.802 221.033 170.697L222.177 170.69L222.809 171.642C238.306 194.957 248.516 220.773 253.159 248.373L253.579 249.513L252.543 250.478C240.803 261.329 226.751 270.695 210.776 278.315C180.306 292.85 154.765 295.955 138.704 296.001C138.575 296.001 138.446 296.001 138.318 296.001L138.317 296.002ZM112.443 288.661C114.683 289.323 124.175 291.852 138.919 291.767C154.5 291.696 179.298 288.64 208.954 274.494C224.161 267.24 237.571 258.377 248.827 248.144C244.277 221.86 234.556 197.246 219.918 174.944C204.708 175.166 188.864 177.864 172.805 182.965C116.427 200.872 95.2127 234.278 92.6709 238.594C92.9336 247.791 94.7801 256.794 98.1647 265.361C101.548 273.926 106.351 281.763 112.445 288.661H112.443Z" fill="#371A45"/>
<path d="M100.448 294.172C96.2936 294.172 92.3356 292.24 89.777 288.861C82.0812 278.698 77.3116 266.623 75.986 253.943C75.4729 249.033 77.6872 244.254 81.7671 241.474L89.3489 236.307C90.3158 235.649 91.6314 235.899 92.2897 236.865C92.9481 237.831 92.6977 239.148 91.732 239.806L84.1502 244.974C81.3591 246.876 79.8434 250.145 80.1955 253.504C81.4407 265.416 85.9207 276.758 93.1504 286.307C95.1892 288.999 98.5291 290.348 101.866 289.83L110.931 288.419C112.085 288.244 113.167 289.03 113.347 290.185C113.527 291.34 112.736 292.422 111.581 292.602L102.516 294.013C101.825 294.121 101.134 294.173 100.447 294.173L100.448 294.172Z" fill="#371A45"/>
<g opacity="0.35">
<path d="M221.378 248.743C232.747 237.371 232.747 218.934 221.378 207.562C210.009 196.191 191.577 196.191 180.209 207.562C168.84 218.934 168.84 237.371 180.209 248.743C191.577 260.114 210.009 260.114 221.378 248.743Z" fill="#371A45"/>
</g>
<path d="M201.438 250.74C215.896 250.74 227.616 239.016 227.616 224.555C227.616 210.093 215.896 198.37 201.438 198.37C186.98 198.37 175.26 210.093 175.26 224.555C175.26 239.016 186.98 250.74 201.438 250.74Z" fill="#EC1C24"/>
<g opacity="0.6">
<path d="M227.186 220.36C227.007 219.792 226.808 219.229 226.588 218.669C221.278 205.22 206.069 198.626 192.623 203.936C180.769 208.619 174.24 220.994 176.499 233.074C172.329 220.053 178.924 205.854 191.817 200.758C205.267 195.446 220.472 202.041 225.787 215.493C226.419 217.097 226.884 218.727 227.187 220.359L227.186 220.36Z" fill="white"/>
</g>
<g opacity="0.35">
<path d="M211.054 248.907C197.61 254.218 182.402 247.629 177.089 234.178C175.42 229.947 174.929 225.543 175.458 221.326C175.751 223.239 176.258 225.146 176.999 227.025C182.31 240.476 197.518 247.073 210.966 241.76C220.185 238.116 226.182 229.813 227.323 220.626C229.127 232.427 222.628 244.332 211.054 248.907V248.907Z" fill="#371A45"/>
</g>
<path d="M201.431 252.872C197.609 252.872 193.792 252.087 190.181 250.521C183.246 247.513 177.899 241.984 175.122 234.953C172.345 227.921 172.472 220.23 175.479 213.294C178.485 206.358 184.013 201.008 191.042 198.231C198.072 195.454 205.761 195.58 212.696 198.588C219.629 201.595 224.978 207.124 227.754 214.156C230.531 221.186 230.405 228.878 227.398 235.814C224.391 242.75 218.864 248.099 211.834 250.876C208.467 252.207 204.946 252.871 201.432 252.871L201.431 252.872ZM201.443 200.473C198.453 200.473 195.461 201.037 192.597 202.169C186.619 204.531 181.919 209.08 179.362 214.979C176.804 220.876 176.697 227.418 179.059 233.398C181.421 239.377 185.968 244.078 191.865 246.637C197.762 249.195 204.301 249.302 210.279 246.94C216.257 244.577 220.957 240.029 223.515 234.13C226.072 228.231 226.18 221.69 223.818 215.711C221.456 209.731 216.909 205.03 211.011 202.472C207.94 201.139 204.694 200.472 201.443 200.472V200.473Z" fill="#371A45"/>
<path d="M213.39 235.93C219.894 229.424 219.894 218.876 213.39 212.37C206.886 205.865 196.341 205.865 189.837 212.37C183.333 218.876 183.333 229.424 189.837 235.93C196.341 242.436 206.886 242.436 213.39 235.93Z" fill="#6BD6F0"/>
<g opacity="0.3">
<path d="M207.732 239.646C199.176 243.027 189.504 238.829 186.124 230.271C185.391 228.42 185.013 226.511 184.964 224.627C185.024 224.802 185.09 224.974 185.158 225.152C188.539 233.709 198.211 237.908 206.766 234.527C213.47 231.88 217.494 225.368 217.299 218.557C220.309 226.98 216.11 236.335 207.731 239.646H207.732Z" fill="white"/>
</g>
<g opacity="0.35">
<path d="M218.448 225.01C218.353 224.74 218.258 224.471 218.151 224.201C214.77 215.644 205.098 211.445 196.543 214.826C190.104 217.369 186.132 223.484 186.009 229.997C183.195 221.646 187.393 212.466 195.679 209.193C204.23 205.815 213.904 210.005 217.284 218.563C218.117 220.682 218.495 222.869 218.448 225.011V225.01Z" fill="#371A45"/>
</g>
<path d="M201.609 242.936C199.074 242.936 196.542 242.415 194.145 241.376C189.546 239.38 185.998 235.713 184.155 231.048C180.352 221.42 185.089 210.492 194.715 206.688C204.342 202.883 215.267 207.623 219.071 217.252C222.873 226.88 218.135 237.808 208.509 241.612C206.274 242.495 203.939 242.936 201.608 242.936H201.609ZM201.596 209.607C199.823 209.607 198.02 209.934 196.272 210.625C188.817 213.571 185.147 222.035 188.093 229.492C189.519 233.105 192.268 235.946 195.83 237.491C199.392 239.037 203.343 239.102 206.955 237.674C214.411 234.728 218.08 226.264 215.135 218.807C212.88 213.098 207.391 209.607 201.596 209.607V209.607Z" fill="#371A45"/>
<g opacity="0.2">
<path d="M255.965 188.433C255.838 184.456 247.578 181.339 242.905 181.376C238.064 181.414 235.152 182.248 235.131 184.592C235.102 187.864 238.872 189.018 243.353 189.188C246.522 189.309 256.12 193.342 255.965 188.433V188.433Z" fill="white"/>
</g>
<g opacity="0.2">
<path d="M268.096 193.457C267.837 190.01 263.67 186.799 261.403 186.538C259.054 186.269 257.682 186.808 257.788 188.834C257.936 191.662 259.826 192.895 262.01 193.321C263.554 193.623 268.417 197.711 268.096 193.457V193.457Z" fill="white"/>
</g>
<g opacity="0.35">
<path d="M110.137 286.595C110.137 286.595 150.447 300.297 208.749 272.49C267.957 244.246 282.156 200.884 284.91 189.699C285.191 189.886 285.436 190.055 285.648 190.202C284.79 189.605 283.365 188.66 281.385 187.509C273.346 205.782 254.21 235.184 210.134 256.211C182.604 269.341 159.087 273.217 141.931 273.651C120.019 274.205 100.319 260.139 94.1128 239.113C94.0782 238.997 94.0446 238.88 94.0111 238.765C93.7686 237.931 93.5439 237.09 93.3282 236.246C93.2164 235.897 93.099 235.552 92.9951 235.2C92.9604 235.084 92.9269 234.967 92.8933 234.852C92.8576 234.728 92.8263 234.602 92.7905 234.478C92.8162 234.439 92.8408 234.403 92.8676 234.363C91.2681 236.696 90.5404 238.058 90.5404 238.058C90.6746 244.353 91.5431 250.561 93.0934 256.574C96.5339 267.607 102.307 277.866 110.137 286.597V286.595Z" fill="#371A45"/>
</g>
<path d="M107.278 272.222C95.2753 276.962 79.7048 272.128 79.7048 272.128C79.7048 272.128 79.735 272.074 79.7942 271.979C80.6985 270.442 88.4972 257.667 99.7654 253.209C110.58 248.932 122.36 253.321 124.457 254.177C124.673 254.265 124.786 254.315 124.786 254.315C124.786 254.315 119.201 267.518 107.279 272.221L107.278 272.222Z" fill="#EC1C24"/>
<g opacity="0.6">
<path d="M125.346 254.873C125.346 254.873 125.005 255.677 124.316 256.955C120.302 255.565 110.37 252.9 101.135 256.553C92.0729 260.137 85.2556 269.101 82.4601 273.268C81.0718 272.939 80.2626 272.689 80.2626 272.689C80.2626 272.689 80.2961 272.634 80.3531 272.536C81.2596 271.002 89.0583 258.227 100.327 253.769C111.14 249.491 122.917 253.88 125.015 254.736C125.234 254.825 125.347 254.873 125.347 254.873H125.346Z" fill="white"/>
</g>
<g opacity="0.35">
<path d="M107.278 272.222C95.2753 276.962 79.7048 272.128 79.7048 272.128C79.7048 272.128 79.735 272.074 79.7942 271.979L124.457 254.177C124.673 254.265 124.786 254.315 124.786 254.315C124.786 254.315 119.201 267.518 107.279 272.221L107.278 272.222Z" fill="#371A45"/>
</g>
<path d="M94.9199 276.431C86.5645 276.431 79.517 274.287 79.0766 274.151L76.5627 273.371L77.8649 271.082C78.2092 270.477 86.4427 256.204 98.9897 251.242C111.591 246.259 125.075 252.13 125.643 252.382L127.542 253.226L126.733 255.142C126.49 255.714 120.66 269.218 108.054 274.195C103.807 275.872 99.192 276.432 94.9199 276.432V276.431ZM83.0592 270.801C87.8913 271.884 98.2217 273.524 106.5 270.256C114.783 266.985 119.838 259.169 121.842 255.482C117.854 254.163 108.798 251.915 100.547 255.179C92.2506 258.459 85.8436 266.709 83.0603 270.801H83.0592ZM79.7037 272.13H79.7093H79.7037Z" fill="#371A45"/>
<g opacity="0.25">
<path d="M166.918 229.035C168.584 231.427 180.097 250.855 170.833 258.576C162.723 265.34 147.755 264.228 139.865 253.596C134.654 246.563 133.596 238.456 133.892 232.253C134.241 225.008 135.537 218.096 131.924 212.671C129.998 209.77 126.823 207.193 123.183 204.33C124.019 203.747 124.876 203.16 125.749 202.578C135.241 196.237 146.907 189.945 161.086 184.579C163.854 185.913 166.504 187.627 168.732 189.83C177.514 198.546 177.758 216.043 171.796 223.134C169.446 225.928 166.918 229.035 166.918 229.035V229.035Z" fill="#371A45"/>
</g>
<path d="M172.209 223.743C173.876 226.136 185.389 245.563 176.125 253.284C168.014 260.048 153.046 258.936 145.157 248.305C139.946 241.271 138.887 233.164 139.184 226.961C139.532 219.716 140.829 212.804 137.215 207.379C133.104 201.197 117.063 198.891 109.083 189.739C104.38 184.351 101.861 174.566 102.289 162.579C102.421 158.938 102.824 155.09 103.522 151.1C106.485 134.155 114.77 114.663 130.029 97.4048C130.029 97.4048 136.093 121.665 142.446 143.22C146.875 158.244 151.445 171.956 154.192 175.201C154.557 175.635 154.89 175.879 155.187 175.921C158.8 176.424 162.345 177.435 165.705 178.969C168.711 180.345 171.614 182.154 174.022 184.537C182.804 193.253 183.048 210.75 177.086 217.841C174.736 220.635 172.208 223.742 172.208 223.742L172.209 223.743Z" fill="white"/>
<g opacity="0.25">
<path d="M179.081 248.855C178.536 250.553 177.595 252.061 176.124 253.285C168.013 260.048 153.045 258.936 145.156 248.305C139.945 241.277 138.886 233.164 139.182 226.961C139.531 219.716 140.822 212.804 137.214 207.385C133.103 201.203 117.062 198.891 109.078 189.746C104.38 184.358 101.861 174.563 102.289 162.58C102.289 162.528 102.295 162.47 102.295 162.416C102.311 162.013 102.332 161.612 102.353 161.204C102.374 160.834 102.396 160.458 102.421 160.077C102.431 159.908 102.442 159.733 102.458 159.558C102.526 158.664 102.607 157.759 102.706 156.844C102.754 156.41 102.807 155.97 102.859 155.525C102.896 155.218 102.939 154.906 102.981 154.594C103.013 154.335 103.051 154.075 103.087 153.816C103.146 153.409 103.209 153.001 103.273 152.588C103.347 152.122 103.426 151.651 103.505 151.181C103.511 151.154 103.516 151.128 103.521 151.101C103.992 150.572 104.325 150.276 104.325 150.276C104.325 150.276 105.923 151 109.336 151.885C114.759 153.293 124.764 155.113 140.219 155.091L139.975 147.074C139.922 145.364 140.943 143.856 142.446 143.221C142.801 143.068 143.187 142.967 143.594 142.925L153.197 141.898L167.08 175.52L154.191 175.202L144.497 174.964C142.413 174.832 140.767 173.133 140.704 171.043L140.582 167.016C132.1 168.915 118.064 169.413 108.979 166.418C109.657 174.79 111.989 181.554 115.609 185.703C123.587 194.853 135.55 189.942 143.645 199.384C148.702 205.289 146.057 215.678 145.708 222.923C145.412 229.126 143.015 238.223 148.221 245.251C155.11 254.545 170.008 253.718 179.077 248.855H179.081Z" fill="#371A45"/>
</g>
<g opacity="0.25">
<path d="M205.695 97.4485C200.494 104.598 193.642 110.473 185.712 114.506C181.908 116.438 177.855 117.95 173.612 118.978C169.236 120.041 164.665 120.587 159.962 120.556C151.6 120.499 143.681 118.611 136.58 115.276C129.498 111.95 121.029 115.122 117.803 122.253C113.161 132.512 110.438 142.672 109.339 151.886C105.927 151.002 104.328 150.277 104.328 150.277C104.328 150.277 103.995 150.573 103.524 151.102C106.488 134.157 114.773 114.666 130.031 97.4071L130.19 99.0316C132.216 96.2633 133.507 94.7181 133.507 94.7181L184.088 97.3009C184.088 97.3009 184.283 99.9686 184.691 104.393C190.966 102.731 198.569 100.412 205.696 97.4496L205.695 97.4485Z" fill="#371A45"/>
</g>
<path d="M156.203 175.362C158.95 175.326 161.71 175.771 164.374 176.578C167.034 177.39 169.625 178.529 172.01 180.119C173.198 180.914 174.341 181.804 175.407 182.799C176.478 183.815 177.443 184.952 178.289 186.146C179.978 188.548 181.151 191.225 181.966 193.96C182.752 196.707 183.195 199.523 183.285 202.352C183.399 205.179 183.185 208.026 182.543 210.831C181.895 213.623 180.876 216.441 178.934 218.915L173.849 225.078L173.944 222.53C174.37 223.155 174.7 223.702 175.044 224.28C175.378 224.852 175.706 225.424 176.017 226.004C176.646 227.16 177.236 228.333 177.79 229.527C178.901 231.911 179.864 234.38 180.608 236.958C181.331 239.54 181.862 242.242 181.795 245.106C181.757 246.531 181.583 248 181.111 249.447C180.652 250.89 179.905 252.299 178.891 253.49L178.511 253.936C178.379 254.079 178.233 254.207 178.093 254.342C177.81 254.597 177.525 254.902 177.237 255.092C176.657 255.512 176.095 255.963 175.492 256.345C174.873 256.695 174.26 257.061 173.631 257.389L171.683 258.226C169.032 259.195 166.237 259.631 163.464 259.613C160.688 259.594 157.929 259.119 155.305 258.225C152.672 257.351 150.223 255.95 148.039 254.24C147.492 253.81 146.936 253.391 146.457 252.885C145.967 252.393 145.442 251.933 144.987 251.409L143.659 249.805C143.223 249.267 142.864 248.694 142.465 248.138C140.973 245.853 139.788 243.376 138.91 240.81C138.061 238.235 137.485 235.579 137.231 232.904C137.088 231.568 137.032 230.227 137.028 228.888C137.023 228.219 137.047 227.55 137.071 226.881L137.183 224.943C137.347 222.374 137.572 219.874 137.576 217.465C137.573 215.066 137.358 212.742 136.566 210.736C136.475 210.482 136.378 210.23 136.252 209.995C136.129 209.759 136.035 209.505 135.892 209.281L135.483 208.596C135.337 208.399 135.228 208.225 135.062 208.043C134.441 207.32 133.58 206.632 132.617 206.01C130.673 204.765 128.407 203.722 126.119 202.68C121.531 200.598 116.691 198.551 112.28 195.412C110.088 193.828 108.008 191.989 106.331 189.665C104.679 187.377 103.528 184.863 102.658 182.314C101.792 179.759 101.208 177.153 100.795 174.539C100.42 171.922 100.212 169.295 100.149 166.675C100.052 161.433 100.521 156.223 101.378 151.095C103.158 140.848 106.54 130.943 111.142 121.671C113.484 117.061 115.881 112.449 118.84 108.19C121.819 103.96 125.196 99.9618 129.503 96.9341C129.83 96.7037 130.283 96.7831 130.513 97.1107C130.674 97.3399 130.684 97.6306 130.563 97.8632L130.56 97.8688C128.153 102.473 125.293 106.525 122.585 110.719C119.856 114.881 117.114 119.064 114.934 123.555C110.5 132.483 107.251 142.018 105.552 151.809C104.734 156.704 104.291 161.66 104.382 166.585C104.442 169.046 104.638 171.492 104.982 173.907C105.363 176.311 105.897 178.679 106.663 180.94C107.429 183.194 108.434 185.35 109.764 187.187C111.064 188.998 112.825 190.588 114.747 191.971C118.637 194.748 123.217 196.724 127.868 198.823C130.198 199.89 132.574 200.961 134.917 202.455C136.082 203.214 137.251 204.098 138.29 205.304C138.549 205.594 138.796 205.951 139.018 206.269L139.589 207.219C139.783 207.534 139.921 207.876 140.088 208.205C140.258 208.534 140.392 208.874 140.517 209.217C141.047 210.581 141.381 211.992 141.559 213.376C141.742 214.76 141.821 216.134 141.81 217.468C141.802 220.144 141.565 222.711 141.408 225.213L141.301 227.08C141.28 227.682 141.256 228.283 141.263 228.884C141.266 230.086 141.315 231.288 141.444 232.478C141.668 234.864 142.184 237.206 142.922 239.456C144.462 243.913 147.019 248.121 150.661 250.914C152.468 252.326 154.495 253.499 156.692 254.223C158.879 254.965 161.185 255.361 163.487 255.377C165.789 255.394 168.09 255.03 170.22 254.253L171.772 253.584C172.266 253.322 172.743 253.033 173.233 252.763C173.702 252.466 174.128 252.112 174.582 251.794C174.828 251.636 174.966 251.456 175.158 251.291C175.246 251.205 175.344 251.128 175.426 251.037L175.66 250.755C176.932 249.278 177.532 247.23 177.564 244.997C177.624 242.769 177.188 240.42 176.538 238.119C175.872 235.814 174.988 233.532 173.952 231.311C173.435 230.2 172.882 229.102 172.297 228.025C172.007 227.485 171.704 226.955 171.398 226.43C171.094 225.915 170.763 225.376 170.472 224.952L169.563 223.62L170.567 222.403L175.624 216.275C176.98 214.56 177.884 212.274 178.4 209.906C179.428 205.132 179.088 199.945 177.634 195.265C176.894 192.928 175.889 190.688 174.552 188.718C173.889 187.727 173.14 186.822 172.32 185.972C171.484 185.114 170.56 184.319 169.575 183.59C167.61 182.127 165.433 180.839 163.15 179.717C160.865 178.594 158.471 177.644 155.977 176.753L155.972 176.751C155.6 176.618 155.406 176.207 155.539 175.835C155.642 175.545 155.913 175.364 156.204 175.36L156.203 175.362Z" fill="#371A45"/>
<path d="M139.375 214.645C138.592 214.645 137.911 214.067 137.803 213.27C135.334 195.001 146.151 186.364 150.915 183.499C158.814 178.749 168.333 178.305 174.064 182.42C174.776 182.931 174.939 183.923 174.427 184.636C173.916 185.349 172.925 185.512 172.211 185C167.555 181.656 159.287 182.169 152.549 186.221C148.322 188.762 138.731 196.444 140.947 212.845C141.065 213.714 140.456 214.513 139.587 214.631C139.516 214.641 139.443 214.645 139.372 214.645H139.375Z" fill="#371A45"/>
<path d="M175.121 223.477C174.897 223.689 174.746 223.817 174.561 223.973C174.385 224.125 174.202 224.261 174.021 224.4C173.661 224.68 173.286 224.929 172.907 225.174C172.151 225.666 171.347 226.08 170.529 226.464C168.88 227.206 167.109 227.732 165.274 227.939C163.449 228.139 161.547 228.061 159.804 227.458C158.065 226.877 156.512 225.846 155.425 224.471C157.159 224.773 158.71 225.005 160.228 224.93C160.979 224.923 161.713 224.847 162.436 224.737C163.159 224.635 163.872 224.489 164.57 224.267C165.969 223.855 167.323 223.27 168.628 222.566C169.287 222.228 169.922 221.838 170.559 221.455L171.493 220.854L172.35 220.276L172.48 220.189C173.449 219.536 174.763 219.792 175.416 220.761C176.002 221.631 175.855 222.778 175.12 223.477H175.121Z" fill="#371A45"/>
<path d="M215.628 72.2506C214.998 72.2908 214.456 71.8134 214.416 71.184L212.318 38.362C212.278 37.7325 212.755 37.1903 213.384 37.15C219.985 36.7285 225.678 41.7374 226.099 48.3396L226.814 59.5315C227.236 66.1336 222.228 71.828 215.628 72.2495V72.2506Z" fill="white"/>
<path d="M215.555 72.4797C214.84 72.4797 214.236 71.9218 214.19 71.1984L212.093 38.3765C212.045 37.6229 212.619 36.9711 213.372 36.923C220.09 36.4981 225.899 41.6088 226.328 48.325L227.044 59.5169C227.251 62.7705 226.181 65.91 224.028 68.3574C221.875 70.8049 218.897 72.2673 215.645 72.4753C215.615 72.4764 215.585 72.4775 215.556 72.4775L215.555 72.4797ZM215.629 72.2505H215.634H215.629ZM214.166 37.3523C213.911 37.3523 213.656 37.3602 213.4 37.3769C213.156 37.3926 212.933 37.5022 212.772 37.6855C212.611 37.8689 212.53 38.1048 212.546 38.3485L214.643 71.1705C214.675 71.6736 215.112 72.0649 215.614 72.0247C218.746 71.8246 221.612 70.4169 223.685 68.06C225.758 65.7031 226.789 62.6799 226.589 59.5482L225.873 48.3552C225.673 45.2224 224.266 42.3557 221.91 40.2817C219.747 38.3776 217.022 37.3523 214.166 37.3523V37.3523Z" fill="#371A45"/>
<g opacity="0.35">
<path d="M226.479 54.2832L226.816 59.5325C227.237 66.1325 222.228 71.8279 215.627 72.2528C214.997 72.2941 214.455 71.8122 214.414 71.1839L213.854 62.4585C214.056 62.8454 214.472 63.0947 214.934 63.0679L215.712 63.0164C220.927 62.6844 225.152 59.0562 226.479 54.2832V54.2832Z" fill="#371A45"/>
</g>
<path d="M215.553 74.3693C213.851 74.3693 212.414 73.0411 212.304 71.3192L210.207 38.4973C210.093 36.7039 211.457 35.152 213.25 35.038C217.004 34.7954 220.632 36.0342 223.458 38.5219C226.283 41.0085 227.972 44.4476 228.213 48.2055L228.928 59.3984C229.168 63.1562 227.931 66.7821 225.445 69.6086C222.959 72.4351 219.521 74.1245 215.764 74.3649C215.694 74.3693 215.624 74.3716 215.555 74.3716L215.553 74.3693ZM215.628 72.2506H215.633H215.628ZM214.495 39.2475L216.463 70.0279C221.402 69.2195 225.029 64.7651 224.703 59.6668L223.988 48.4749C223.82 45.8463 222.638 43.4403 220.661 41.7005C218.93 40.1766 216.77 39.3235 214.495 39.2475V39.2475Z" fill="#371A45"/>
<path d="M105.076 44.0754C105.705 44.0351 106.247 44.5125 106.288 45.142L108.386 77.964C108.426 78.5934 107.949 79.1357 107.319 79.1759C100.719 79.5975 95.0261 74.5885 94.6047 67.9863L93.8893 56.7945C93.4679 50.1923 98.4755 44.498 105.076 44.0765V44.0754Z" fill="white"/>
<path d="M106.539 79.4275C103.573 79.4275 100.742 78.362 98.4956 76.3852C96.0488 74.2318 94.5856 71.2533 94.3777 67.9997L93.6624 56.8068C93.4545 53.5532 94.5253 50.4137 96.6781 47.9662C98.8309 45.5188 101.809 44.0563 105.061 43.8484C105.824 43.8104 106.466 44.3739 106.514 45.1274L108.611 77.9494C108.635 78.3139 108.514 78.6661 108.273 78.9411C108.031 79.2162 107.697 79.3794 107.333 79.4029C107.067 79.4197 106.802 79.4286 106.537 79.4286L106.539 79.4275ZM105.092 44.3012C101.96 44.5013 99.0936 45.909 97.0213 48.2659C94.9478 50.6227 93.9172 53.646 94.1173 56.7777L94.8327 67.9707C95.0328 71.1035 96.44 73.9702 98.7963 76.0442C101.153 78.1171 104.177 79.1536 107.307 78.9489C107.551 78.9333 107.774 78.8237 107.935 78.6404C108.097 78.457 108.177 78.2211 108.161 77.9773L106.064 45.1554C106.032 44.6523 105.598 44.2665 105.093 44.3012H105.092Z" fill="#371A45"/>
<g opacity="0.35">
<path d="M107.807 68.8572L108.388 77.9627C108.429 78.5922 107.947 79.1345 107.319 79.1758C103.855 79.3961 100.637 78.1215 98.3033 75.9033C96.1952 73.8997 94.8081 71.1224 94.6069 67.9885L94.3051 63.2725C96.4434 67.2908 100.802 69.9059 105.641 69.5974L106.839 69.5202C107.276 69.4911 107.632 69.2262 107.808 68.8583L107.807 68.8572Z" fill="#371A45"/>
</g>
<path d="M106.546 81.3169C99.1819 81.3169 92.9682 75.5723 92.4921 68.1204L91.7767 56.9285C91.5364 53.1707 92.7737 49.5448 95.2597 46.7184C97.7456 43.8919 101.184 42.2025 104.941 41.9621C106.736 41.8458 108.284 43.2132 108.399 45.0055L110.496 77.8274C110.552 78.6962 110.266 79.5347 109.691 80.1877C109.117 80.8417 108.321 81.2319 107.453 81.2867C107.149 81.3069 106.846 81.3158 106.545 81.3158L106.546 81.3169ZM104.241 46.2968C99.3015 47.1052 95.6744 51.5596 96.0007 56.658L96.7161 67.8498C96.8838 70.4784 98.0653 72.8845 100.043 74.6242C101.774 76.1481 103.934 77.0012 106.208 77.0772L104.241 46.2968V46.2968Z" fill="#371A45"/>
<path d="M199.978 97.7919C221.86 75.9048 221.86 40.4189 199.978 18.5318C178.097 -3.35521 142.621 -3.35521 120.739 18.5318C98.8582 40.4189 98.8582 75.9048 120.739 97.7919C142.621 119.679 178.097 119.679 199.978 97.7919Z" fill="white"/>
<path d="M160.365 114.434C160.227 114.434 160.095 114.434 159.956 114.433C128.937 114.212 103.881 88.788 104.103 57.7605C104.325 26.8706 129.522 1.89075 160.353 1.89075C160.492 1.89075 160.623 1.89075 160.762 1.89187C175.788 1.9992 189.873 7.9529 200.423 18.6573C210.972 29.3616 216.723 43.5342 216.615 58.5644C216.393 89.4544 191.197 114.434 160.365 114.434ZM160.347 2.34356C145.594 2.34356 131.701 8.04011 121.183 18.4113C110.568 28.8786 104.663 42.8533 104.556 57.7628C104.45 72.6722 110.154 86.7307 120.618 97.3479C131.083 107.966 145.054 113.872 159.96 113.979C174.852 114.082 188.92 108.38 199.534 97.9125C210.15 87.4452 216.054 73.4705 216.161 58.5611C216.267 43.6516 210.563 29.5931 200.099 18.9759C189.634 8.35764 175.663 2.45202 160.758 2.3458C160.621 2.3458 160.484 2.34468 160.347 2.34468V2.34356Z" fill="#371A45"/>
<g opacity="0.35">
<path d="M215.906 50.8016C216.245 53.3385 216.407 55.9291 216.389 58.5644C216.163 89.5158 190.9 114.427 159.957 114.208C129.014 113.982 104.109 88.713 104.328 57.7616C104.334 56.8716 104.361 55.9805 104.41 55.104C107.992 82.4127 131.244 103.584 159.557 103.788C189.611 104 214.301 80.5098 215.907 50.8016H215.906Z" fill="#371A45"/>
</g>
<path d="M160.371 116.325C160.228 116.325 160.087 116.325 159.944 116.324C144.412 116.213 129.855 110.058 118.951 98.9947C108.047 87.9314 102.104 73.2825 102.214 57.747C102.325 42.2115 108.478 27.6498 119.539 16.743C130.599 5.83629 145.254 -0.116291 160.774 0.00222449C176.306 0.112913 190.864 6.26787 201.767 17.3311C212.671 28.3944 218.614 43.0433 218.504 58.5788C218.393 74.1144 212.24 88.6761 201.179 99.5828C190.221 110.389 175.742 116.325 160.371 116.325ZM160.349 4.23411C146.095 4.23411 132.671 9.73723 122.51 19.7573C112.254 29.8703 106.549 43.372 106.446 57.7761C106.343 72.1801 111.854 85.7635 121.964 96.0206C132.075 106.279 145.573 111.986 159.973 112.088C174.392 112.173 187.952 106.679 198.207 96.5663C208.463 86.4534 214.168 72.9516 214.271 58.5475C214.374 44.1424 208.863 30.5612 198.753 20.3018C188.643 10.0436 175.144 4.33697 160.744 4.23411C160.612 4.23411 160.479 4.23299 160.347 4.23299L160.349 4.23411Z" fill="#371A45"/>
<path d="M216.198 60.0011C216.285 70.9682 212.807 81.1784 206.787 89.65C202.274 96.0017 183.604 107.205 160.441 107.597C138.964 107.962 119.332 96.6625 114.719 90.3834C108.566 82.008 104.925 71.8548 104.838 60.8877C104.608 31.866 129.439 19.6366 160.192 19.3918C190.944 19.1469 215.968 30.9794 216.199 60.0011H216.198Z" fill="#371A45"/>
<path d="M159.403 108.869C137.65 108.869 118.449 97.5926 113.702 91.1313C107.164 82.2326 103.662 71.7776 103.576 60.8977C103.463 46.7307 109.054 35.7624 120.194 28.2994C129.928 21.7766 143.756 18.2602 160.182 18.1294C176.613 17.9953 190.489 21.2958 200.327 27.6621C211.584 34.9474 217.348 45.825 217.461 59.9921C217.547 70.872 214.213 81.3818 207.817 90.3834C203.385 96.6222 184.944 108.447 160.463 108.862C160.109 108.867 159.754 108.871 159.402 108.871L159.403 108.869ZM161.03 20.6518C160.749 20.6518 160.474 20.6518 160.203 20.6551C143.841 20.7848 105.817 24.9653 106.102 60.8776C106.184 71.223 109.516 81.1671 115.737 89.6354C120.089 95.5566 138.798 106.343 159.425 106.344C159.758 106.344 160.088 106.342 160.421 106.335C183.711 105.94 201.715 94.6108 205.759 88.9187C211.845 80.3532 215.019 70.3565 214.936 60.0111C214.655 24.6925 177.811 20.6507 161.029 20.6507L161.03 20.6518Z" fill="#371A45"/>
<g opacity="0.7">
<path d="M205.135 57.4194C206.068 52.0217 203.655 47.0978 199.745 46.4215C195.835 45.7452 191.908 49.5726 190.975 54.9703C190.042 60.368 192.456 65.2919 196.366 65.9682C200.276 66.6445 204.202 62.817 205.135 57.4194Z" fill="white"/>
</g>
<g opacity="0.7">
<path d="M193.153 77.1178C193.92 74.7233 192.876 72.2486 190.822 71.5905C188.768 70.9323 186.481 72.34 185.714 74.7346C184.947 77.1292 185.991 79.6039 188.045 80.262C190.099 80.9202 192.386 79.5124 193.153 77.1178Z" fill="white"/>
</g>
<g opacity="0.35">
<path d="M205.153 33.0132C212.012 39.4555 216.103 48.3441 216.198 60C216.285 70.9693 212.805 81.1784 206.79 89.6511C202.275 96.0028 183.603 107.205 160.441 107.599C152.263 107.74 144.354 106.187 137.438 103.861C165.898 102.768 188.641 89.0205 194.238 81.1426C201.879 70.389 206.292 57.4295 206.18 43.5129C206.154 39.7931 205.797 36.2958 205.154 33.0132H205.153Z" fill="#111A28"/>
</g>
<path d="M110.506 37.4072L107.183 34.7853L108.743 36.0342L107.081 34.9239C116.918 20.1923 136.139 11.6346 159.814 11.4457C183.342 11.2679 202.652 19.2263 212.884 33.3027C213.476 34.0809 213.469 35.1934 212.809 35.9649C212.049 36.8526 210.715 36.9588 209.829 36.1974C209.702 36.0901 209.583 35.9604 209.486 35.8262C200.074 22.8466 181.977 15.4919 159.849 15.6787C137.597 15.8564 119.647 23.7276 110.601 37.2741C110.571 37.32 110.538 37.3636 110.505 37.406L110.506 37.4072ZM108.836 36.1069H108.842H108.836Z" fill="#371A45"/>
<g opacity="0.7">
<path d="M117.48 78.0522C117.48 78.0522 108.266 49.4935 123.601 37.9617C138.935 26.43 161.129 26.2992 160.621 27.7269C160.621 27.7269 136.1 33.8718 126.641 53.3765C119.348 68.4167 117.48 78.0511 117.48 78.0511V78.0522Z" fill="white"/>
</g>
<path d="M195.714 140.301L197.229 152.003L198.411 161.107C198.73 163.58 197.092 165.88 194.644 166.376C193.069 166.698 191.114 167.075 188.864 167.463C180.855 168.845 169.073 170.39 157.228 170.209C154.683 170.169 152.626 168.119 152.559 165.571L151.948 141.407C151.879 138.686 154.101 136.462 156.821 136.532C165.049 136.744 181.444 137.015 190.577 136.174C193.119 135.939 195.387 137.766 195.714 140.299V140.301Z" fill="white"/>
<path d="M156.456 136.538L146.853 137.562C144.747 137.787 143.171 139.596 143.235 141.713L143.966 165.684C144.03 167.774 145.674 169.472 147.76 169.603L156.633 170.159" fill="white"/>
<g opacity="0.25">
<path d="M156.456 136.538L146.853 137.562C144.747 137.787 143.171 139.596 143.235 141.713L143.966 165.684C144.03 167.774 145.674 169.472 147.76 169.603L156.633 170.159" fill="#371A45"/>
</g>
<path d="M159.177 172.095C158.518 172.095 157.858 172.091 157.196 172.079C153.639 172.025 150.782 169.187 150.691 165.62L150.08 141.456C150.033 139.622 150.721 137.899 152.018 136.602C153.313 135.306 155.036 134.623 156.868 134.664C165.56 134.886 181.474 135.135 190.405 134.313C193.958 133.987 197.105 136.51 197.566 140.06L200.263 160.864C200.708 164.292 198.404 167.519 195.018 168.207C187.751 169.688 173.695 172.094 159.177 172.094V172.095ZM156.697 138.4C155.928 138.4 155.207 138.698 154.66 139.245C154.095 139.81 153.795 140.562 153.815 141.362L154.427 165.526C154.466 167.082 155.708 168.319 157.255 168.343C172.104 168.565 186.823 166.063 194.273 164.546C195.747 164.245 196.751 162.84 196.558 161.345L193.86 140.541C193.66 138.994 192.298 137.894 190.747 138.035C181.626 138.875 165.546 138.626 156.773 138.402C156.747 138.402 156.721 138.402 156.697 138.402V138.4Z" fill="#371A45"/>
<path d="M156.635 172.029C156.596 172.029 156.556 172.029 156.517 172.026L147.644 171.47C144.577 171.278 142.193 168.816 142.1 165.743L141.369 141.772C141.275 138.697 143.596 136.032 146.656 135.706L156.26 134.681C157.29 134.567 158.206 135.315 158.315 136.341C158.425 137.368 157.681 138.288 156.655 138.398L147.051 139.422C145.925 139.543 145.069 140.524 145.103 141.658L145.834 165.629C145.869 166.762 146.747 167.669 147.878 167.739L156.75 168.295C157.78 168.36 158.562 169.246 158.499 170.277C158.436 171.268 157.614 172.029 156.635 172.029V172.029Z" fill="#371A45"/>
<path d="M176.889 171.208C175.907 171.208 175.084 170.441 175.026 169.449L174.312 157.205L168.114 153.023C167.636 152.701 167.333 152.177 167.294 151.602L166.28 136.856C166.21 135.826 166.987 134.934 168.016 134.863C169.044 134.793 169.938 135.57 170.008 136.6L170.959 150.435L177.168 154.623C177.65 154.948 177.954 155.482 177.988 156.063L178.756 169.229C178.816 170.26 178.029 171.144 177 171.204C176.963 171.206 176.926 171.207 176.889 171.207V171.208Z" fill="#371A45"/>
<path d="M194.317 151.478C194.395 152.219 193.974 158.314 193.974 158.314C193.974 158.314 192.079 158.51 189.751 158.753C186.843 159.056 184.173 156.289 183.786 152.574C183.399 148.858 185.444 145.601 188.352 145.298C190.315 145.094 192.575 144.859 192.575 144.859C192.575 144.859 194.191 150.269 194.316 151.478H194.317Z" fill="#22A7F0"/>
<path d="M194.316 151.478C194.395 152.219 193.977 158.314 193.977 158.314C193.977 158.314 193.929 158.318 193.837 158.327C193.946 156.568 194.056 154.48 194.012 154.065C193.889 152.856 192.273 147.447 192.273 147.447C192.273 147.447 190.011 147.682 188.05 147.887C186.019 148.096 184.405 149.754 183.748 152C183.612 148.527 185.594 145.584 188.353 145.299C190.315 145.095 192.576 144.86 192.576 144.86C192.576 144.86 194.192 150.27 194.315 151.478H194.316Z" fill="white"/>
<path d="M189.322 160.362C185.786 160.362 182.658 157.076 182.206 152.737C181.73 148.156 184.413 144.111 188.187 143.719L191.135 143.412C192.644 143.255 194.039 144.197 194.461 145.651C195.78 150.206 195.866 151.039 195.895 151.312C195.917 151.533 195.971 152.047 195.643 157.121C195.545 158.646 194.369 159.868 192.848 160.027L189.914 160.332C189.715 160.353 189.518 160.363 189.321 160.363L189.322 160.362ZM191.424 146.574L188.515 146.877C186.517 147.085 185.074 149.619 185.363 152.409C185.654 155.2 187.59 157.375 189.585 157.173L192.478 156.873C192.696 153.489 192.753 151.939 192.736 151.631C192.689 151.217 192.321 149.678 191.424 146.575V146.574Z" fill="#371A45"/>
<path d="M193.979 158.305C196.887 158.003 198.931 154.746 198.545 151.031C198.158 147.315 195.488 144.549 192.58 144.852C189.672 145.154 187.628 148.411 188.014 152.127C188.401 155.842 191.071 158.608 193.979 158.305Z" fill="#22A7F0"/>
<path d="M198.539 151.038C198.585 151.488 198.597 151.93 198.573 152.361C197.769 149.331 195.406 147.234 192.851 147.498C190.294 147.767 188.405 150.314 188.25 153.451C188.138 153.027 188.055 152.586 188.008 152.132C187.621 148.418 189.668 145.16 192.576 144.86C195.483 144.556 198.151 147.324 198.538 151.038H198.539Z" fill="white"/>
<path d="M193.528 159.924C191.842 159.924 190.22 159.195 188.904 157.833C187.533 156.412 186.654 154.446 186.431 152.297C186.207 150.15 186.662 148.045 187.713 146.372C188.84 144.575 190.508 143.477 192.412 143.279C194.314 143.08 196.173 143.812 197.646 145.339C199.018 146.76 199.896 148.725 200.12 150.874C200.343 153.022 199.888 155.126 198.838 156.8C197.71 158.597 196.042 159.695 194.139 159.892C193.935 159.914 193.731 159.925 193.528 159.925V159.924ZM193.007 146.424C192.918 146.424 192.829 146.429 192.74 146.438C191.829 146.533 190.999 147.109 190.402 148.06C189.727 149.134 189.438 150.523 189.588 151.969C189.738 153.414 190.307 154.714 191.188 155.626C191.968 156.434 192.901 156.83 193.81 156.733C194.721 156.638 195.552 156.062 196.148 155.111C196.824 154.036 197.112 152.647 196.962 151.202C196.811 149.756 196.243 148.457 195.363 147.545C194.658 146.816 193.831 146.424 193.009 146.424H193.007Z" fill="#371A45"/>
<path d="M104.327 144.983C104.327 144.983 116.961 150.703 147.01 149.67C147.01 149.67 152.515 154.947 147.01 159.307C141.505 163.666 110.522 166.175 102.246 157.242C97.0056 151.585 104.328 144.983 104.328 144.983H104.327Z" fill="white"/>
<g opacity="0.25">
<path d="M147.009 159.309C141.506 163.665 110.523 166.173 102.243 157.239C99.752 154.55 100.101 151.65 101.159 149.344C101.434 149.841 101.794 150.333 102.243 150.82C110.524 159.754 141.507 157.245 147.009 152.89C147.591 152.424 148.056 151.953 148.406 151.477C149.56 153.398 150.507 156.536 147.009 159.309Z" fill="#371A45"/>
</g>
<path d="M125.196 165.13C118.178 165.13 106.172 164.231 100.874 158.512C99.1931 156.697 98.3928 154.617 98.4956 152.331C98.708 147.585 102.897 143.755 103.075 143.594L103.983 142.776L105.093 143.279C105.284 143.363 117.906 148.802 146.944 147.803L147.732 147.776L148.301 148.322C148.628 148.636 151.491 151.491 151.316 155.193C151.246 156.657 150.644 158.812 148.168 160.772C144.476 163.696 133.921 165.08 125.676 165.128C125.519 165.128 125.358 165.13 125.195 165.13H125.196ZM104.807 147.177C103.845 148.27 102.321 150.335 102.228 152.511C102.174 153.774 102.628 154.906 103.615 155.971C111.196 164.155 141.203 161.52 145.85 157.841C146.969 156.954 147.537 156.031 147.585 155.015C147.647 153.7 146.822 152.349 146.202 151.565C121.517 152.319 108.662 148.564 104.807 147.176V147.177Z" fill="#371A45"/>
<g opacity="0.25">
<path d="M212.499 189.364C207.976 194.831 193.468 200.107 185.658 195.211C179.135 191.126 178.928 185.273 174.304 181.906C174.034 181.71 173.22 181.356 171.976 180.81C186.621 176.19 200.023 173.872 212.08 173.099C217.275 179.498 216.244 184.832 212.498 189.362L212.499 189.364Z" fill="#371A45"/>
</g>
<path d="M149.456 120.188C165.818 140.608 192.814 153.127 208.941 167.682C217.781 175.659 216.389 179.498 211.98 184.833C207.46 190.303 196.843 195.579 189.033 190.684C182.509 186.595 182.104 182.711 177.481 179.342C175.657 178.014 146.32 170.227 130.035 144.838" fill="white"/>
<g opacity="0.25">
<path d="M211.98 184.834C207.462 190.302 196.844 195.578 189.034 190.682C182.511 186.596 182.103 182.712 177.478 179.34C175.659 178.012 146.32 170.227 130.036 144.834L130.369 144.411C148.533 163.51 167.465 164.653 180.04 174.334C184.572 177.823 184.965 178.98 191.488 183.065C199.298 187.96 209.916 182.684 214.435 177.218C214.726 176.869 215.002 176.525 215.26 176.186C216.006 179.272 214.476 181.812 211.979 184.833L211.98 184.834Z" fill="#371A45"/>
</g>
<path d="M150.007 119.746C153.481 122.198 156.347 124.986 159.413 127.658C162.422 130.362 165.515 133 168.637 135.623C171.815 138.189 175.104 140.623 178.475 142.974C181.826 145.345 185.247 147.65 188.66 149.975C192.077 152.31 195.515 154.621 198.896 157.066C199.748 157.663 200.589 158.281 201.425 158.912C202.262 159.54 203.105 160.155 203.936 160.795C205.579 162.105 207.245 163.38 208.827 164.79C210.435 166.139 212.023 167.61 213.512 169.245C213.875 169.673 214.243 170.091 214.598 170.531C214.937 171 215.288 171.449 215.612 171.941L216.076 172.711L216.305 173.098C216.377 173.233 216.439 173.38 216.506 173.521L216.895 174.376C217.01 174.674 217.1 174.996 217.198 175.307C217.556 176.561 217.697 178.013 217.402 179.346C217.133 180.672 216.609 181.87 216 182.886C215.387 183.897 214.72 184.819 214.037 185.656C213.714 186.076 213.327 186.511 212.934 186.943C212.556 187.39 212.127 187.759 211.719 188.161C210.045 189.703 208.191 190.979 206.204 192.023C204.215 193.062 202.086 193.867 199.835 194.327C197.589 194.783 195.202 194.882 192.848 194.413L191.97 194.209C191.677 194.146 191.386 194.073 191.105 193.957C190.544 193.736 189.959 193.564 189.422 193.289C188.892 193.006 188.344 192.723 187.836 192.427C187.373 192.115 186.901 191.824 186.448 191.492C185.54 190.836 184.656 190.126 183.833 189.343C183.015 188.562 182.241 187.728 181.549 186.879C180.154 185.176 179.043 183.545 177.737 182.316C177.579 182.151 177.403 182.012 177.237 181.861C177.07 181.71 176.9 181.563 176.719 181.429L176.452 181.222L176.319 181.118L176.252 181.065C176.222 181.041 176.251 181.071 176.249 181.07C176.259 181.082 176.272 181.09 176.287 181.093L176.176 181.043C176.087 181.004 176.02 180.968 175.9 180.921C175.032 180.564 174.033 180.192 173.071 179.819C171.126 179.066 169.177 178.276 167.252 177.432C159.552 174.058 152.152 169.859 145.482 164.629C143.806 163.334 142.199 161.949 140.619 160.533C139.066 159.087 137.467 157.683 135.996 156.14C135.248 155.382 134.54 154.584 133.883 153.743C133.546 153.332 133.211 152.916 132.914 152.471C132.604 152.036 132.299 151.599 132.007 151.151C131.417 150.264 130.933 149.297 130.474 148.327C130.048 147.333 129.682 146.307 129.446 145.218C129.357 144.812 129.615 144.411 130.021 144.323C130.228 144.279 130.434 144.323 130.598 144.433L130.634 144.456C131.558 145.077 132.315 145.786 133.081 146.48C133.861 147.163 134.541 147.907 135.251 148.625C135.603 148.986 135.941 149.357 136.275 149.73C136.607 150.105 136.961 150.462 137.296 150.834C137.638 151.2 137.972 151.572 138.296 151.952C138.635 152.32 138.973 152.689 139.305 153.064C140.622 154.573 142.004 156.035 143.477 157.404C144.969 158.751 146.497 160.062 148.091 161.295C154.434 166.27 161.523 170.301 168.951 173.554C170.81 174.369 172.691 175.132 174.599 175.871C175.562 176.245 176.501 176.592 177.544 177.02C177.665 177.067 177.83 177.145 177.976 177.211C178.057 177.25 178.11 177.271 178.216 177.325C178.342 177.394 178.468 177.466 178.589 177.542C178.642 177.576 178.731 177.631 178.75 177.647L178.836 177.714L179.01 177.849L179.355 178.117C179.817 178.471 180.25 178.868 180.671 179.265C182.371 180.889 183.589 182.708 184.819 184.19C186.04 185.689 187.371 186.949 188.914 188.051C189.293 188.332 189.704 188.581 190.096 188.848L191.234 189.463C191.613 189.663 192.034 189.769 192.428 189.936C192.625 190.024 192.835 190.074 193.048 190.116L193.679 190.263C195.381 190.602 197.199 190.543 198.994 190.178C202.582 189.435 206.104 187.56 208.846 185.052C209.173 184.728 209.534 184.425 209.82 184.078C210.122 183.745 210.427 183.413 210.733 183.013C211.357 182.25 211.897 181.488 212.356 180.735C212.812 179.982 213.098 179.248 213.246 178.553C213.408 177.86 213.323 177.19 213.128 176.468C212.712 175.024 211.641 173.48 210.359 172.069C209.064 170.651 207.621 169.301 206.063 167.995C204.56 166.655 202.941 165.417 201.355 164.15C200.549 163.528 199.723 162.927 198.907 162.314C198.093 161.7 197.271 161.096 196.43 160.506C193.115 158.109 189.692 155.807 186.286 153.48C182.869 151.154 179.437 148.84 176.041 146.438C172.631 144.064 169.298 141.551 165.936 139.064C162.627 136.503 159.318 133.895 156.388 130.848C153.376 127.912 150.737 124.515 148.909 120.632C148.738 120.269 148.895 119.837 149.257 119.667C149.502 119.552 149.777 119.585 149.983 119.729L150.011 119.749L150.007 119.746Z" fill="#371A45"/>
<path d="M150.727 167.747C150.58 167.747 150.432 167.729 150.283 167.693C149.28 167.448 148.666 166.438 148.91 165.435C149.165 164.392 155.304 140.027 172.269 140.027C172.362 140.027 172.453 140.027 172.546 140.029C173.577 140.045 174.401 140.894 174.384 141.926C174.369 142.958 173.518 143.807 172.487 143.765C172.418 143.765 172.348 143.764 172.28 143.764C158.201 143.764 152.595 166.093 152.539 166.32C152.331 167.174 151.566 167.747 150.724 167.747H150.727Z" fill="#371A45"/>
<path d="M219.91 129.125C219.6 129.125 219.286 129.048 218.997 128.886C209.577 123.594 208.889 98.1226 208.842 95.2358C208.825 94.2038 209.647 93.3541 210.678 93.3362C210.689 93.3362 210.7 93.3362 210.71 93.3362C211.727 93.3362 212.56 94.1524 212.577 95.1743C212.699 102.424 214.417 122.027 220.827 125.628C221.726 126.134 222.046 127.273 221.541 128.173C221.198 128.783 220.564 129.127 219.91 129.127V129.125Z" fill="#371A45"/>
<path d="M235.378 81.3259C235.397 81.4422 235.406 81.6591 235.418 81.8391L235.454 82.4115C235.486 82.7973 235.499 83.1875 235.539 83.5766C235.591 84.3592 235.688 85.1419 235.8 85.9312C235.909 86.7239 236.074 87.5077 236.228 88.3306C236.351 89.1747 236.564 89.9976 236.666 91.0028C235.769 90.5891 235.017 89.9574 234.406 89.2239C234.088 88.8617 233.838 88.458 233.585 88.0511C233.365 87.6329 233.13 87.2103 232.955 86.7686C232.574 85.8921 232.305 84.9697 232.134 84.0294C232.062 83.5576 231.991 83.0824 231.976 82.5994C231.966 82.3579 231.957 82.1164 231.971 81.8693C231.976 81.6144 231.994 81.3963 232.035 81.0799C232.156 80.1676 232.992 79.5247 233.906 79.6454C234.653 79.7438 235.219 80.3241 235.333 81.0318L235.38 81.327L235.378 81.3259Z" fill="#371A45"/>
</g>
<defs>
<clipPath id="clip0_201_2">
<rect width="288" height="324" fill="white"/>
</clipPath>
</defs>
</svg>
